<svg width="57" height="56" viewBox="0 0 57 56" fill="none" xmlns="http://www.w3.org/2000/svg">
<path fill-rule="evenodd" clip-rule="evenodd" d="M28.4999 4.6543C33.7509 4.6543 38.7868 6.74026 42.4999 10.4533C46.1974 14.1509 48.2746 19.1658 48.2746 24.395C48.2746 29.6241 46.1974 34.639 42.4999 38.3366L30.1099 50.7733C29.8929 50.992 29.6349 51.1656 29.3505 51.284C29.0662 51.4025 28.7612 51.4635 28.4532 51.4635C28.1452 51.4635 27.8402 51.4025 27.5558 51.284C27.2715 51.1656 27.0134 50.992 26.7965 50.7733L14.4999 38.4533C10.7868 34.7403 8.70087 29.7043 8.70087 24.4533C8.70087 19.2023 10.7868 14.1663 14.4999 10.4533C18.2129 6.74026 23.2488 4.6543 28.4999 4.6543ZM28.4999 45.7099L39.1632 35C41.2698 32.8914 42.7041 30.2055 43.2846 27.282C43.8651 24.3584 43.5657 21.3284 42.4245 18.5749C41.2832 15.8214 39.3512 13.4681 36.8727 11.8124C34.3942 10.1567 31.4805 9.27304 28.4999 9.27304C25.5192 9.27304 22.6055 10.1567 20.127 11.8124C17.6485 13.4681 15.7165 15.8214 14.5752 18.5749C13.434 21.3284 13.1347 24.3584 13.7151 27.282C14.2956 30.2055 15.7299 32.8914 17.8365 35L28.4999 45.7099ZM33.1667 23.3334C33.1667 25.9107 31.0773 28 28.5 28C25.9227 28 23.8334 25.9107 23.8334 23.3334C23.8334 20.756 25.9227 18.6667 28.5 18.6667C31.0773 18.6667 33.1667 20.756 33.1667 23.3334ZM37.8334 23.3334C37.8334 28.488 33.6547 32.6667 28.5 32.6667C23.3454 32.6667 19.1667 28.488 19.1667 23.3334C19.1667 18.1787 23.3454 14 28.5 14C33.6547 14 37.8334 18.1787 37.8334 23.3334Z" fill="#49D600"/>
</svg>
