<svg width="46" height="45" viewBox="0 0 46 45" fill="none" xmlns="http://www.w3.org/2000/svg">
<path fill-rule="evenodd" clip-rule="evenodd" d="M30.5 3.75H15.5C13.9467 3.75 12.6209 4.29918 11.5225 5.39752C10.4242 6.49587 9.875 7.8217 9.875 9.375V35.625C9.875 39.375 11.75 41.25 15.5 41.25H30.5C34.25 41.25 36.125 39.375 36.125 35.625V9.375C36.125 5.625 34.25 3.75 30.5 3.75V3.75ZM13.625 9.375V30V35.625C13.625 36.875 14.25 37.5 15.5 37.5H30.5C31.75 37.5 32.375 36.875 32.375 35.625V30V9.375C32.375 8.125 31.75 7.5 30.5 7.5H15.5C14.9822 7.5 14.5403 7.68306 14.1742 8.04918C13.8081 8.41529 13.625 8.85723 13.625 9.375Z" fill="#49D600"/>
<path fill-rule="evenodd" clip-rule="evenodd" d="M17.375 33.75C17.375 32.7145 18.2145 31.875 19.25 31.875H26.75C27.7855 31.875 28.625 32.7145 28.625 33.75C28.625 34.7855 27.7855 35.625 26.75 35.625H19.25C18.2145 35.625 17.375 34.7855 17.375 33.75Z" fill="#49D600"/>
</svg>
