<svg width="45" height="45" viewBox="0 0 45 45" fill="none" xmlns="http://www.w3.org/2000/svg">
<path d="M33.75 8.39995C30.7663 5.41627 26.7196 3.74005 22.5 3.74005C18.2804 3.74005 14.2337 5.41627 11.25 8.39995C8.2663 11.3836 6.59009 15.4304 6.59009 19.65C6.59009 23.8695 8.2663 27.9163 11.25 30.9L21.1312 40.8C21.3055 40.9757 21.5129 41.1152 21.7414 41.2104C21.9699 41.3056 22.215 41.3546 22.4625 41.3546C22.71 41.3546 22.9551 41.3056 23.1836 41.2104C23.4121 41.1152 23.6194 40.9757 23.7937 40.8L33.75 30.8062C36.7212 27.8349 38.3904 23.8051 38.3904 19.6031C38.3904 15.4011 36.7212 11.3712 33.75 8.39995ZM31.0687 28.125L22.5 36.7312L13.9312 28.125C12.2384 26.4306 11.0859 24.2723 10.6194 21.923C10.153 19.5737 10.3935 17.1389 11.3106 14.9262C12.2277 12.7136 13.7801 10.8225 15.7718 9.4921C17.7634 8.16165 20.1048 7.45154 22.5 7.45154C24.8951 7.45154 27.2365 8.16165 29.2282 9.4921C31.2198 10.8225 32.7723 12.7136 33.6894 14.9262C34.6065 17.1389 34.847 19.5737 34.3806 21.923C33.9141 24.2723 32.7616 26.4306 31.0687 28.125Z" fill="#49D600"/>
<path fill-rule="evenodd" clip-rule="evenodd" d="M22.5 22.5C24.5711 22.5 26.25 20.8211 26.25 18.75C26.25 16.6789 24.5711 15 22.5 15C20.4289 15 18.75 16.6789 18.75 18.75C18.75 20.8211 20.4289 22.5 22.5 22.5ZM22.5 26.25C26.6421 26.25 30 22.8921 30 18.75C30 14.6079 26.6421 11.25 22.5 11.25C18.3579 11.25 15 14.6079 15 18.75C15 22.8921 18.3579 26.25 22.5 26.25Z" fill="#49D600"/>
</svg>
