<svg width="32" height="32" viewBox="0 0 32 32" fill="none" xmlns="http://www.w3.org/2000/svg">
<circle cx="16" cy="16" r="16" fill="#91FF50"/>
<path d="M16.18 23.143C19.2445 23.143 21.4979 21.4305 21.4979 18.7039C21.4979 16.9238 20.574 15.6394 19.1093 14.9634V14.8958C20.3036 14.1522 21.0247 12.9354 21.0247 11.4257C21.0247 8.76672 18.7713 7.25699 15.9547 7.25699C13.6563 7.25699 11.7635 8.47379 11.0875 10.1638L14.0168 11.7186C14.3773 10.9299 14.9181 10.5018 15.842 10.5018C16.8109 10.5018 17.5095 11.1327 17.5095 12.0791C17.5095 12.9579 16.9461 13.6114 15.8645 13.6114H14.6027V16.4506H15.6167C17.0137 16.4506 17.7123 17.2393 17.7123 18.2082C17.7123 19.3349 16.856 19.9433 15.9096 19.9433C14.7153 19.9433 14.0168 19.3799 13.6788 18.3209L10.5016 19.5827C11.2452 21.6107 13.3408 23.143 16.18 23.143Z" fill="black"/>
</svg>
