<svg width="45" height="45" viewBox="0 0 45 45" fill="none" xmlns="http://www.w3.org/2000/svg">
<path d="M41.25 14.6625C41.259 14.5439 41.259 14.4249 41.25 14.3063L37.5 4.93127C37.3535 4.56069 37.0928 4.2464 36.7557 4.034C36.4185 3.8216 36.0225 3.72213 35.625 3.75002H9.375C8.99948 3.74966 8.6325 3.86206 8.32159 4.07267C8.01069 4.28329 7.77019 4.5824 7.63125 4.93127L3.88125 14.3063C3.87221 14.4249 3.87221 14.5439 3.88125 14.6625C3.81895 14.7669 3.77458 14.881 3.75 15C3.77087 16.2961 4.1273 17.5646 4.78452 18.6819C5.44174 19.7992 6.37732 20.7271 7.5 21.375V39.375C7.5 39.8723 7.69754 40.3492 8.04918 40.7009C8.40081 41.0525 8.87772 41.25 9.375 41.25H35.625C36.1223 41.25 36.5992 41.0525 36.9508 40.7009C37.3025 40.3492 37.5 39.8723 37.5 39.375V21.45C38.6335 20.7956 39.5761 19.8559 40.2339 18.7244C40.8918 17.5929 41.2421 16.3089 41.25 15C41.2676 14.8882 41.2676 14.7743 41.25 14.6625ZM33.75 37.5C21.2506 37.5 23.7494 37.5 11.25 37.5V22.5C12.3178 22.494 13.3719 22.26 14.342 21.8138C15.312 21.3676 16.1756 20.7194 16.875 19.9125C17.5788 20.7106 18.4444 21.3497 19.4142 21.7875C20.384 22.2253 21.4359 22.4517 22.5 22.4517C23.5641 22.4517 24.616 22.2253 25.5858 21.7875C26.5556 21.3497 27.4212 20.7106 28.125 19.9125C28.8244 20.7194 29.688 21.3676 30.658 21.8138C31.6281 22.26 32.6822 22.494 33.75 22.5V37.5ZM33.75 18.75C32.7554 18.75 31.8016 18.3549 31.0984 17.6517C30.3951 16.9484 30 15.9946 30 15C30 14.5027 29.8025 14.0258 29.4508 13.6742C29.0992 13.3226 28.6223 13.125 28.125 13.125C27.6277 13.125 27.1508 13.3226 26.7992 13.6742C26.4475 14.0258 26.25 14.5027 26.25 15C26.25 15.9946 25.8549 16.9484 25.1516 17.6517C24.4484 18.3549 23.4946 18.75 22.5 18.75C21.5054 18.75 20.5516 18.3549 19.8484 17.6517C19.1451 16.9484 18.75 15.9946 18.75 15C18.75 14.5027 18.5525 14.0258 18.2008 13.6742C17.8492 13.3226 17.3723 13.125 16.875 13.125C16.3777 13.125 15.9008 13.3226 15.5492 13.6742C15.1975 14.0258 15 14.5027 15 15C15.0185 15.4925 14.9398 15.9838 14.7684 16.4458C14.597 16.9078 14.3362 17.3316 14.0011 17.6929C13.6659 18.0541 13.2629 18.3459 12.815 18.5514C12.3671 18.7569 11.8831 18.8722 11.3906 18.8906C10.3961 18.9279 9.42742 18.5686 8.69779 17.8917C8.33651 17.5566 8.04478 17.1535 7.83927 16.7056C7.63375 16.2577 7.51847 15.7737 7.5 15.2813L10.65 7.50002H34.35L37.5 15.2813C37.4289 16.2263 37.0027 17.1094 36.307 17.7529C35.6113 18.3964 34.6977 18.7527 33.75 18.75Z" fill="#49D600"/>
<path fill-rule="evenodd" clip-rule="evenodd" d="M16.875 28.125C16.875 27.0895 17.7145 26.25 18.75 26.25H26.25C27.2855 26.25 28.125 27.0895 28.125 28.125V37.5H24.375V30H20.625V37.5H16.875V28.125Z" fill="#49D600"/>
</svg>
