<svg width="309" height="116" viewBox="0 0 309 116" fill="none" xmlns="http://www.w3.org/2000/svg">
<path d="M308.238 0H0.721924V115.319H308.238V0Z" fill="url(#paint0_linear_14333_54278)"/>
<path d="M6.07727 109.724H302.883V5.59845H6.07727V109.724ZM296.081 11.9727V103.229H12.7601V11.9727H296.081ZM294.188 13.7707V101.371H14.5931V13.7707H294.188ZM292.681 99.8316V15.3071H16.1001V99.8285H292.681V99.8316Z" fill="url(#paint1_linear_14333_54278)"/>
<path d="M35.7511 54.4304L33.4846 48.2546L31.4543 54.5146L24.912 54.7762L30.2045 58.6518L28.4283 64.9899L33.7298 61.1263L39.1747 64.7825L37.1594 58.5165L42.2994 54.4394L35.7511 54.4304Z" fill="url(#paint2_linear_14333_54278)"/>
<path d="M36.3132 72.0497L34.866 67.9185L33.4517 72.0618L29.0981 72.167L32.5786 74.8009L31.3347 78.9982L34.8989 76.4816L38.4841 78.9682L37.2073 74.7828L40.6668 72.1219L36.3132 72.0497Z" fill="url(#paint3_linear_14333_54278)"/>
<path d="M37.2315 86.6111L36.1042 83.5202L35.0816 86.6472L31.8104 86.7704L34.4507 88.7158L33.5566 91.8818L36.2118 89.9545L38.9328 91.7886L37.9312 88.6556L40.5056 86.6201L37.2315 86.6111Z" fill="url(#paint4_linear_14333_54278)"/>
<path d="M36.2803 38.6873L34.7614 34.5832L33.4218 38.7505L29.0682 38.9339L32.5965 41.5046L31.4274 45.723L34.9468 43.1433L38.5767 45.5667L37.2222 41.4024L40.6369 38.6813L36.2803 38.6873Z" fill="url(#paint5_linear_14333_54278)"/>
<path d="M40.4787 24.9406L37.2046 24.9918L36.0205 21.9249L35.0577 25.0699L31.7865 25.2564L34.4656 27.1476L33.6314 30.3317L36.2507 28.3563L39.0016 30.1392L37.9431 27.0243L40.4787 24.9406Z" fill="url(#paint6_linear_14333_54278)"/>
<path d="M232.55 86.6683C232.428 86.0038 232.12 85.634 231.566 85.634C231.121 85.634 230.813 85.8655 230.813 86.2984C230.813 87.5973 234.039 88.1205 234.039 90.592C234.039 92.0743 233.026 92.832 231.629 92.832C230.125 92.832 229.264 91.9661 229.004 90.5168L230.508 90.0989C230.616 90.7935 230.861 91.4128 231.644 91.4128C232.09 91.4128 232.413 91.1512 232.413 90.6852C232.413 89.248 229.186 88.7098 229.186 86.4397C229.186 85.1258 230.2 84.2148 231.492 84.2148C232.783 84.2148 233.749 85.1258 234.009 86.4247L232.55 86.6683ZM234.715 85.7873V84.3651H235.666V82.1251H237.385V84.3651H238.536V85.7873H237.385V90.574C237.385 91.0069 237.571 91.2535 237.968 91.2535H238.536V92.7358C238.306 92.7989 238.106 92.829 237.675 92.829C236.383 92.829 235.663 92.2277 235.663 90.9618V85.7873H234.715ZM239.475 86.8066C239.568 85.1228 240.626 84.2118 242.241 84.2118C243.856 84.2118 244.744 84.9544 244.744 86.4668V91.7947C244.744 92.0563 244.804 92.396 244.851 92.6757H243.207C243.192 92.4441 243.129 92.2277 243.114 92.0262C242.468 92.5524 241.93 92.829 241.102 92.829C239.936 92.829 239.35 92.0262 239.35 90.9618C239.35 89.1398 240.546 88.1355 243.021 87.1944V86.7013C243.021 86.0068 242.746 85.637 242.178 85.637C241.395 85.637 241.227 86.1 241.195 86.8096H239.475V86.8066ZM243.024 88.4542C241.458 89.3502 241.075 89.9215 241.075 90.6461C241.075 91.1873 241.35 91.4038 241.873 91.4038C242.349 91.4038 242.734 91.049 243.024 90.6311V88.4542ZM245.802 85.7843V84.3621H246.756V82.1221H248.475V84.3621H249.627V85.7843H248.475V90.571C248.475 91.0039 248.661 91.2505 249.058 91.2505H249.627V92.7328C249.396 92.7959 249.196 92.826 248.765 92.826C247.474 92.826 246.753 92.2246 246.753 90.9588V85.7843H245.802ZM250.763 83.6766V82.1011H252.482V83.6766H250.763ZM250.763 92.6726V84.3651H252.482V92.6726H250.763ZM257.29 86.6652C257.168 86.0008 256.86 85.6309 256.306 85.6309C255.861 85.6309 255.553 85.8625 255.553 86.2954C255.553 87.5943 258.779 88.1175 258.779 90.589C258.779 92.0713 257.766 92.829 256.369 92.829C254.865 92.829 254.004 91.9631 253.744 90.5138L255.248 90.0959C255.356 90.7904 255.601 91.4098 256.384 91.4098C256.83 91.4098 257.153 91.1482 257.153 90.6822C257.153 89.245 253.926 88.7068 253.926 86.4367C253.926 85.1228 254.94 84.2118 256.232 84.2118C257.523 84.2118 258.489 85.1228 258.749 86.4217L257.29 86.6652ZM259.458 85.7843V84.3621H260.412V82.1221H262.131V84.3621H263.282V85.7843H262.131V90.571C262.131 91.0039 262.317 91.2505 262.714 91.2505H263.282V92.7328C263.052 92.7959 262.852 92.826 262.421 92.826C261.132 92.826 260.409 92.2246 260.409 90.9588V85.7843H259.458ZM264.218 86.8036C264.311 85.1198 265.369 84.2088 266.984 84.2088C268.599 84.2088 269.487 84.9514 269.487 86.4638V91.7917C269.487 92.0533 269.547 92.393 269.594 92.6726H267.95C267.935 92.4411 267.872 92.2246 267.857 92.0232C267.211 92.5494 266.673 92.826 265.845 92.826C264.679 92.826 264.096 92.0232 264.096 90.9588C264.096 89.1368 265.295 88.1325 267.768 87.1914V86.6983C267.768 86.0038 267.489 85.634 266.921 85.634C266.138 85.634 265.97 86.097 265.938 86.8066H264.218V86.8036ZM267.765 88.4512C266.198 89.3472 265.815 89.9185 265.815 90.6431C265.815 91.1843 266.09 91.4008 266.613 91.4008C267.089 91.4008 267.474 91.046 267.765 90.6281V88.4512ZM283.107 82.1101H273.198C272.991 82.1101 272.824 82.2785 272.824 82.4859V89.2751C272.842 89.2721 272.86 89.2721 272.878 89.2721C272.878 89.2721 274.48 89.239 275.171 88.8782C276.02 88.4332 276.654 87.5162 276.654 87.5162C276.816 87.2816 276.992 87.0261 277.049 86.9449C277.106 86.8637 277.162 86.7825 277.177 86.7645C277.192 86.7464 277.258 86.6502 277.297 86.5961C277.336 86.539 277.5 86.3014 277.662 86.0699C277.662 86.0699 278.628 84.6658 279.997 83.9502C281.483 83.1745 283.445 83.2617 283.445 83.2617C283.457 83.2617 283.466 83.2647 283.477 83.2647V82.4919C283.48 82.2785 283.313 82.1101 283.107 82.1101ZM281.088 86.0549C280.239 86.4999 279.608 87.4169 279.608 87.4169C279.447 87.6514 279.27 87.907 279.214 87.9882C279.157 88.0694 279.1 88.1506 279.085 88.1686C279.07 88.1866 279.004 88.2829 278.965 88.337C278.927 88.3941 278.762 88.6316 278.601 88.8631C278.601 88.8631 277.635 90.2673 276.265 90.9829C274.842 91.7255 272.979 91.6774 272.827 91.6744V92.4441C272.827 92.6516 272.994 92.82 273.201 92.82H283.11C283.316 92.82 283.483 92.6516 283.483 92.4441V85.649C283.451 85.655 283.421 85.661 283.388 85.661C283.382 85.664 281.779 85.6941 281.088 86.0549Z" fill="#D5B881"/>
<path d="M245.946 35.2084C245.946 34.6883 246.083 34.2312 246.361 33.7923L249.934 28.3832C250.072 28.1848 250.153 27.9442 250.153 27.6857V25.587C250.153 25.3284 250.015 25.1871 249.755 25.1871H248.009C247.752 25.1871 247.611 25.3254 247.611 25.587V28.3411H246.023V25.4667C246.023 24.3091 246.657 23.6687 247.811 23.6687H249.955C251.107 23.6687 251.743 24.3061 251.743 25.4667V27.6015C251.743 28.1216 251.606 28.5786 251.328 29.0176L247.755 34.4267C247.617 34.6251 247.536 34.8657 247.536 35.1242V36.2006H251.746V37.719H245.949V35.2084H245.946Z" fill="#D5B881"/>
<path d="M256.973 36.0082V25.4667C256.973 24.3091 257.607 23.6687 258.761 23.6687H261.183C262.334 23.6687 262.971 24.3061 262.971 25.4667V36.0052C262.971 37.1628 262.337 37.8032 261.183 37.8032H258.761C257.607 37.8032 256.973 37.1658 256.973 36.0082ZM260.983 36.2848C261.24 36.2848 261.381 36.1465 261.381 35.8849V25.587C261.381 25.3284 261.243 25.1871 260.983 25.1871H258.959C258.701 25.1871 258.561 25.3254 258.561 25.587V35.8879C258.561 36.1465 258.698 36.2878 258.959 36.2878H260.983V36.2848Z" fill="#D5B881"/>
<path d="M268.198 35.2084C268.198 34.6883 268.335 34.2312 268.614 33.7923L272.187 28.3832C272.324 28.1848 272.405 27.9442 272.405 27.6857V25.587C272.405 25.3284 272.267 25.1871 272.007 25.1871H270.261C270.004 25.1871 269.863 25.3254 269.863 25.587V28.3411H268.276V25.4667C268.276 24.3091 268.91 23.6687 270.064 23.6687H272.208C273.359 23.6687 273.996 24.3061 273.996 25.4667V27.6015C273.996 28.1216 273.858 28.5786 273.58 29.0176L270.007 34.4267C269.869 34.6251 269.789 34.8657 269.789 35.1242V36.2006H273.999V37.719H268.201V35.2084H268.198Z" fill="#D5B881"/>
<path d="M279.187 33.0917H280.774V35.8849C280.774 36.1435 280.912 36.2848 281.172 36.2848H283.119C283.376 36.2848 283.516 36.1465 283.516 35.8849V31.7718C283.516 31.5132 283.379 31.3719 283.119 31.3719H281.094V29.8535H283.119C283.376 29.8535 283.516 29.7152 283.516 29.4536V25.587C283.516 25.3284 283.379 25.1871 283.119 25.1871H281.172C280.915 25.1871 280.774 25.3254 280.774 25.587V28.4013H279.187V25.4667C279.187 24.3091 279.82 23.6687 280.975 23.6687H283.316C284.467 23.6687 285.104 24.3061 285.104 25.4667V29.0808C285.104 29.8204 284.805 30.3376 284.013 30.6172C284.808 30.8968 285.104 31.417 285.104 32.1536V36.0052C285.104 37.1628 284.47 37.8032 283.316 37.8032H280.975C279.823 37.8032 279.187 37.1658 279.187 36.0052V33.0917Z" fill="#D5B881"/>
<path d="M87.3719 23.6268H90.1348L91.9976 36.2369L93.8395 23.6268H96.6233V38.3626H94.9489V26.2997L93.0651 38.3596H90.9302L89.0464 26.2997V38.3596H87.3719V23.6268Z" fill="#D5B881"/>
<path d="M99.6582 36.5525V25.4368C99.6582 24.216 100.328 23.5425 101.542 23.5425H104.012C105.226 23.5425 105.896 24.216 105.896 25.4368V36.5495C105.896 37.7703 105.226 38.4438 104.012 38.4438H101.542C100.328 38.4468 99.6582 37.7733 99.6582 36.5525ZM103.802 36.8472C104.075 36.8472 104.221 36.6999 104.221 36.4263V25.563C104.221 25.2894 104.075 25.1421 103.802 25.1421H101.751C101.479 25.1421 101.333 25.2894 101.333 25.563V36.4233C101.333 36.6969 101.479 36.8442 101.751 36.8442H103.802V36.8472Z" fill="#D5B881"/>
<path d="M108.847 36.5525V32.8904H110.521V36.4263C110.521 36.6999 110.668 36.8472 110.94 36.8472H112.949C113.221 36.8472 113.368 36.6999 113.368 36.4263V33.164C113.368 32.9535 113.305 32.8062 113.117 32.6589L109.684 30.1543C109.14 29.7544 108.91 29.2914 108.91 28.6179V25.4368C108.91 24.216 109.58 23.5425 110.793 23.5425H113.096C114.31 23.5425 114.98 24.216 114.98 25.4368V28.8885H113.305V25.563C113.305 25.2894 113.159 25.1421 112.887 25.1421H111.003C110.731 25.1421 110.584 25.2894 110.584 25.563V28.4465C110.584 28.6569 110.647 28.8043 110.835 28.9516L114.268 31.4351C114.812 31.835 115.042 32.2981 115.042 32.9716V36.5495C115.042 37.7703 114.373 38.4438 113.159 38.4438H110.731C109.517 38.4438 108.847 37.7733 108.847 36.5525Z" fill="#D5B881"/>
<path d="M117.694 23.6268H123.681V25.2263H121.525V38.3596H119.85V25.2263H117.694V23.6268Z" fill="#D5B881"/>
<path d="M61.681 64.2175C61.681 63.6161 61.7947 63.0148 62.0189 62.4165C62.2432 61.8181 62.5721 61.2829 63.0027 60.8139C63.4332 60.3449 63.9595 59.96 64.5754 59.6683C65.1944 59.3767 65.8971 59.2294 66.6835 59.2294C67.6194 59.2294 68.4327 59.4308 69.1204 59.8367C69.8081 60.2426 70.3224 60.7688 70.6603 61.4182L68.8902 62.663C68.7765 62.3984 68.636 62.1819 68.4626 62.0076C68.2891 61.8332 68.1008 61.6919 67.8945 61.5836C67.6881 61.4754 67.4788 61.4002 67.2606 61.3581C67.0453 61.316 66.833 61.295 66.6296 61.295C66.1901 61.295 65.8044 61.3852 65.4785 61.5626C65.1495 61.743 64.8774 61.9715 64.6622 62.2541C64.4469 62.5367 64.2884 62.8555 64.1837 63.2163C64.0821 63.5741 64.0283 63.9379 64.0283 64.3047C64.0283 64.7016 64.0881 65.0804 64.2107 65.4502C64.3332 65.8171 64.5097 66.1418 64.7369 66.4244C64.9671 66.707 65.2422 66.9295 65.5652 67.0949C65.8881 67.2603 66.2499 67.3415 66.6536 67.3415C66.8599 67.3415 67.0722 67.3144 67.2934 67.2633C67.5147 67.2122 67.724 67.131 67.9244 67.0227C68.1247 66.9145 68.3101 66.7732 68.4805 66.5988C68.648 66.4244 68.7855 66.2109 68.8872 65.9554L70.7709 67.0709C70.6214 67.4377 70.3972 67.7684 70.1041 68.0601C69.8081 68.3517 69.4702 68.5983 69.0845 68.7937C68.6988 68.9921 68.2921 69.1425 67.8616 69.2447C67.431 69.3469 67.0094 69.401 66.5967 69.401C65.8761 69.401 65.2123 69.2537 64.6083 68.9561C64.0043 68.6584 63.4841 68.2675 63.0475 67.7774C62.611 67.2873 62.2761 66.7311 62.0369 66.1087C61.8006 65.4893 61.681 64.8609 61.681 64.2175Z" fill="#D5B881"/>
<path d="M76.6647 69.4037C75.9231 69.4037 75.2504 69.2564 74.6404 68.9648C74.0304 68.6731 73.5101 68.2883 73.0796 67.8132C72.649 67.3381 72.3141 66.7939 72.0749 66.1806C71.8357 65.5672 71.7161 64.9358 71.7161 64.2863C71.7161 63.6369 71.8416 62.9904 72.0898 62.3801C72.338 61.7667 72.6849 61.2285 73.1304 60.7625C73.5759 60.2964 74.1022 59.9236 74.7121 59.647C75.3221 59.3704 75.9859 59.2291 76.7065 59.2291C77.4271 59.2291 78.1209 59.3764 78.7308 59.668C79.3408 59.9597 79.8611 60.3476 80.2917 60.8256C80.7222 61.3067 81.0541 61.8539 81.2904 62.4643C81.5236 63.0776 81.6402 63.697 81.6402 64.3284C81.6402 64.9598 81.5146 65.6243 81.2664 66.2347C81.0183 66.848 80.6744 67.3862 80.2349 67.8523C79.7953 68.3183 79.2691 68.6942 78.6621 68.9768C78.0521 69.2624 77.3853 69.4037 76.6647 69.4037ZM74.0663 64.3164C74.0663 64.7043 74.1231 65.0771 74.2337 65.4409C74.3444 65.8047 74.5118 66.1264 74.7331 66.4091C74.9543 66.6917 75.2264 66.9172 75.5554 67.0886C75.8843 67.257 76.258 67.3442 76.6796 67.3442C77.1012 67.3442 77.5049 67.254 77.8308 67.0766C78.1597 66.8992 78.4288 66.6646 78.6471 66.376C78.8624 66.0874 79.0239 65.7626 79.1315 65.4018C79.2392 65.038 79.293 64.6682 79.293 64.2924C79.293 63.9165 79.2362 63.5317 79.1255 63.1678C79.0119 62.804 78.8445 62.4853 78.6202 62.2057C78.3959 61.9291 78.1208 61.7066 77.7979 61.5412C77.475 61.3758 77.1012 61.2947 76.6796 61.2947C76.258 61.2947 75.8573 61.3819 75.5344 61.5563C75.2115 61.7306 74.9394 61.9591 74.7181 62.2418C74.4969 62.5244 74.3324 62.8461 74.2248 63.2099C74.1201 63.5707 74.0663 63.9406 74.0663 64.3164Z" fill="#D5B881"/>
<path d="M91.4535 69.3196V63.3122L89.2887 67.678H88.0508L85.8859 63.3122V69.3196H83.5806V59.2863H86.0833L88.6697 64.5299L91.2711 59.2863H93.7589V69.3196H91.4535Z" fill="#D5B881"/>
<path d="M96.3005 69.3196V59.2863H100.558C101.037 59.2863 101.473 59.3855 101.871 59.5839C102.269 59.7824 102.613 60.0409 102.897 60.3597C103.184 60.6814 103.408 61.0422 103.572 61.4481C103.737 61.854 103.818 62.2629 103.818 62.6778C103.818 63.1198 103.74 63.5437 103.584 63.9497C103.429 64.3556 103.214 64.7164 102.939 65.0381C102.663 65.3598 102.329 65.6124 101.934 65.8018C101.539 65.9912 101.106 66.0844 100.627 66.0844H98.6029V69.3196H96.3005ZM98.6059 64.0639H100.49C100.762 64.0639 100.995 63.9466 101.192 63.7121C101.39 63.4776 101.488 63.1318 101.488 62.6808C101.488 62.4463 101.458 62.2418 101.396 62.0735C101.336 61.9051 101.252 61.7638 101.15 61.6495C101.046 61.5353 100.929 61.4541 100.801 61.403C100.669 61.3519 100.538 61.3248 100.406 61.3248H98.6059V64.0639Z" fill="#D5B881"/>
<path d="M107.603 59.2863H109.684L113.323 69.3196H110.961L110.189 67.0736H107.082L106.323 69.3196H103.961L107.603 59.2863ZM109.809 65.4771L108.643 61.9291L107.447 65.4771H109.809Z" fill="#D5B881"/>
<path d="M117.066 63.5828V69.3196H114.761V59.2863H116.561L121.214 65.1794V59.2863H123.519V69.3196H121.665L117.066 63.5828Z" fill="#D5B881"/>
<path d="M126.061 69.3196V59.2863H128.366V69.3196H126.061Z" fill="#D5B881"/>
<path d="M137.919 67.2841V69.3196H130.907V59.2863H137.794V61.3218H133.213V63.2731H137.148V65.1523H133.213V67.2871H137.919V67.2841Z" fill="#D5B881"/>
<path d="M145.999 62.2267C145.972 62.1907 145.873 62.1185 145.703 62.0163C145.535 61.914 145.323 61.8028 145.069 61.6915C144.815 61.5773 144.54 61.4781 144.241 61.3939C143.942 61.3097 143.643 61.2676 143.341 61.2676C142.515 61.2676 142.103 61.5442 142.103 62.1005C142.103 62.2688 142.148 62.4101 142.237 62.5244C142.327 62.6387 142.459 62.7379 142.632 62.8281C142.805 62.9183 143.024 62.9995 143.287 63.0746C143.55 63.1498 143.852 63.234 144.199 63.3302C144.677 63.4625 145.108 63.6068 145.491 63.7602C145.873 63.9165 146.199 64.1089 146.468 64.3405C146.734 64.572 146.941 64.8516 147.087 65.1823C147.234 65.5131 147.306 65.9069 147.306 66.37C147.306 66.9352 147.201 67.4133 146.989 67.8042C146.776 68.195 146.498 68.5107 146.151 68.7513C145.804 68.9918 145.407 69.1662 144.955 69.2744C144.507 69.3827 144.04 69.4368 143.565 69.4368C143.2 69.4368 142.823 69.4098 142.441 69.3526C142.055 69.2955 141.681 69.2143 141.316 69.1061C140.952 68.9978 140.596 68.8685 140.255 68.7182C139.914 68.5679 139.597 68.3935 139.307 68.195L140.318 66.1745C140.354 66.2226 140.476 66.3128 140.682 66.4421C140.889 66.5744 141.143 66.7067 141.448 66.839C141.753 66.9713 142.091 67.0886 142.468 67.1908C142.841 67.296 143.221 67.3472 143.607 67.3472C144.423 67.3472 144.83 67.0976 144.83 66.5985C144.83 66.4091 144.77 66.2557 144.647 66.1324C144.525 66.0092 144.357 65.8979 144.142 65.8017C143.927 65.7055 143.673 65.6123 143.377 65.5251C143.081 65.4409 142.761 65.3477 142.414 65.2425C141.953 65.1011 141.556 64.9478 141.218 64.7824C140.88 64.6171 140.602 64.4276 140.38 64.2112C140.159 63.9947 139.995 63.7451 139.89 63.4625C139.782 63.1799 139.729 62.8491 139.729 62.4733C139.729 61.9471 139.827 61.4781 140.025 61.0752C140.222 60.6693 140.488 60.3295 140.826 60.0499C141.164 59.7703 141.556 59.5628 141.998 59.4215C142.444 59.2802 142.913 59.208 143.409 59.208C143.756 59.208 144.097 59.2411 144.435 59.3072C144.773 59.3734 145.096 59.4576 145.404 59.5628C145.712 59.668 146.002 59.7853 146.268 59.9176C146.534 60.0499 146.779 60.1822 147.007 60.3145L145.999 62.2267Z" fill="#D5B881"/>
<path d="M56.3109 45.8555H53.2759V53.8533H50.9706V45.8555H47.9207V43.8199H56.3109V45.8555Z" fill="#D5B881"/>
<path d="M57.8055 53.8533V43.8199H62.3026C62.7721 43.8199 63.2027 43.9192 63.6033 44.1176C64.001 44.316 64.3449 44.5746 64.6349 44.8933C64.925 45.2151 65.1522 45.5759 65.3167 45.9818C65.4811 46.3877 65.5619 46.7966 65.5619 47.2115C65.5619 47.5212 65.526 47.8219 65.4482 48.1075C65.3735 48.3961 65.2658 48.6667 65.1253 48.9193C64.9848 49.1749 64.8143 49.4034 64.614 49.6048C64.4137 49.8063 64.1864 49.9807 63.9322 50.119L66.124 53.8503H63.5256L61.6149 50.6151H60.1109V53.8503H57.8055V53.8533ZM60.1109 48.6006H62.2189C62.491 48.6006 62.7243 48.4713 62.9216 48.2127C63.1189 47.9542 63.2176 47.6204 63.2176 47.2175C63.2176 46.8146 63.104 46.4749 62.8797 46.2283C62.6555 45.9848 62.4103 45.8615 62.1502 45.8615H60.1139V48.6006H60.1109Z" fill="#D5B881"/>
<path d="M71.9697 51.8749C72.3643 51.8749 72.6962 51.7937 72.9683 51.6284C73.2404 51.463 73.4587 51.2435 73.6292 50.9699C73.7966 50.6963 73.9162 50.3836 73.988 50.0318C74.0597 49.677 74.0926 49.3192 74.0926 48.9494V43.8199H76.398V48.9494C76.398 49.6469 76.3113 50.2964 76.1379 50.9007C75.9644 51.5051 75.6983 52.0313 75.3365 52.4823C74.9747 52.9333 74.5172 53.2911 73.9581 53.5496C73.4019 53.8082 72.7381 53.9375 71.9697 53.9375C71.2012 53.9375 70.4925 53.8022 69.9304 53.5286C69.3683 53.255 68.9108 52.8912 68.5609 52.4341C68.2111 51.9771 67.951 51.448 67.7895 50.8436C67.625 50.2423 67.5443 49.6109 67.5443 48.9494V43.8199H69.8497V48.9494C69.8497 49.3372 69.8856 49.7041 69.9633 50.0528C70.041 50.4016 70.1606 50.7113 70.3281 50.9849C70.4955 51.2585 70.7138 51.475 70.9829 51.6344C71.2461 51.7967 71.575 51.8749 71.9697 51.8749Z" fill="#D5B881"/>
<path d="M84.6871 46.7604C84.6602 46.7243 84.5615 46.6521 84.3911 46.5469C84.2236 46.4447 84.0113 46.3334 83.7572 46.2222C83.503 46.1079 83.2279 46.0087 82.9289 45.9245C82.6299 45.8403 82.3309 45.7982 82.0289 45.7982C81.2036 45.7982 80.791 46.0749 80.791 46.6311C80.791 46.7995 80.8358 46.9408 80.9255 47.055C81.0152 47.1693 81.1468 47.2685 81.3202 47.3587C81.4937 47.4489 81.7119 47.5301 81.9751 47.6053C82.2382 47.6804 82.5402 47.7646 82.887 47.8608C83.3655 47.9931 83.796 48.1375 84.1788 48.2908C84.5615 48.4471 84.8874 48.6396 85.1565 48.8711C85.4226 49.1026 85.629 49.3822 85.7755 49.713C85.922 50.0437 85.9937 50.4376 85.9937 50.9006C85.9937 51.4659 85.8891 51.9439 85.6768 52.3348C85.4645 52.7257 85.1864 53.0414 84.8396 53.2819C84.4927 53.5225 84.095 53.6968 83.6435 53.8051C83.195 53.9133 82.7286 53.9675 82.2531 53.9675C81.8884 53.9675 81.5116 53.9404 81.1289 53.8833C80.7431 53.8261 80.3694 53.745 80.0046 53.6367C79.6398 53.5285 79.284 53.3992 78.9431 53.2489C78.6022 53.0985 78.2853 52.9241 77.9952 52.7257L79.0059 50.7052C79.0418 50.7533 79.1644 50.8405 79.3707 50.9728C79.577 51.1051 79.8312 51.2374 80.1361 51.3697C80.4411 51.502 80.779 51.6192 81.1558 51.7214C81.5295 51.8237 81.9093 51.8778 82.295 51.8778C83.1113 51.8778 83.5179 51.6282 83.5179 51.1291C83.5179 50.9397 83.4582 50.7864 83.3356 50.6631C83.213 50.5398 83.0455 50.4286 82.8302 50.3323C82.6149 50.2361 82.3608 50.1429 82.0648 50.0557C81.7687 49.9715 81.4488 49.8783 81.102 49.7731C80.6415 49.6318 80.2438 49.4784 79.9059 49.3131C79.568 49.1477 79.29 48.9583 79.0687 48.7418C78.8474 48.5253 78.683 48.2758 78.5783 47.9931C78.4707 47.7105 78.4168 47.3798 78.4168 47.0039C78.4168 46.4778 78.5155 46.0087 78.7129 45.6058C78.9102 45.1999 79.1763 44.8601 79.5142 44.5805C79.8521 44.3039 80.2438 44.0934 80.6863 43.9521C81.1319 43.8108 81.6013 43.7386 82.0977 43.7386C82.4445 43.7386 82.7854 43.7717 83.1233 43.8379C83.4611 43.904 83.7841 43.9882 84.0921 44.0934C84.4 44.1987 84.6901 44.3159 84.9562 44.4452C85.2223 44.5775 85.4675 44.7098 85.6947 44.8421L84.6871 46.7604Z" fill="#D5B881"/>
<path d="M95.4659 45.8555H92.4309V53.8533H90.1256V45.8555H87.0757V43.8199H95.4659V45.8555Z" fill="#D5B881"/>
<path d="M100.827 43.8349H102.95L103.961 47.0431L104.972 43.8349H107.107L105.435 48.4983L106.446 51.1983L108.948 43.8229H111.463L107.471 53.8562H105.546L103.958 49.9265L102.385 53.8562H100.445L96.4678 43.8229H98.9705L101.485 51.1983L102.469 48.4983L100.827 43.8349Z" fill="#D5B881"/>
<path d="M116.756 53.9374C116.014 53.9374 115.341 53.7901 114.731 53.4984C114.121 53.2068 113.601 52.8219 113.17 52.3469C112.74 51.8718 112.405 51.3276 112.166 50.7142C111.927 50.1008 111.807 49.4694 111.807 48.82C111.807 48.1705 111.933 47.5241 112.181 46.9107C112.429 46.2974 112.776 45.7592 113.221 45.2931C113.667 44.8271 114.193 44.4543 114.803 44.1776C115.413 43.901 116.077 43.7597 116.797 43.7597C117.518 43.7597 118.212 43.907 118.822 44.1987C119.432 44.4903 119.952 44.8782 120.383 45.3563C120.813 45.8373 121.145 46.3846 121.381 46.9949C121.615 47.6083 121.731 48.2307 121.731 48.8591C121.731 49.4875 121.606 50.155 121.357 50.7653C121.109 51.3787 120.765 51.9169 120.326 52.3829C119.886 52.849 119.36 53.2248 118.753 53.5074C118.143 53.7961 117.476 53.9374 116.756 53.9374ZM114.154 48.8501C114.154 49.2379 114.211 49.6108 114.322 49.9746C114.435 50.3384 114.6 50.6601 114.821 50.9427C115.042 51.2253 115.314 51.4509 115.643 51.6222C115.972 51.7936 116.346 51.8778 116.768 51.8778C117.189 51.8778 117.593 51.7876 117.919 51.6102C118.248 51.4328 118.517 51.1983 118.735 50.9096C118.95 50.621 119.112 50.2963 119.219 49.9355C119.327 49.5717 119.381 49.2018 119.381 48.826C119.381 48.4502 119.324 48.0653 119.213 47.7015C119.103 47.3377 118.932 47.019 118.708 46.7393C118.484 46.4627 118.209 46.2402 117.886 46.0749C117.563 45.9095 117.189 45.8283 116.768 45.8283C116.346 45.8283 115.945 45.9155 115.622 46.0899C115.299 46.2643 115.027 46.4928 114.806 46.7754C114.585 47.0581 114.42 47.3798 114.313 47.7436C114.205 48.1074 114.154 48.4742 114.154 48.8501Z" fill="#D5B881"/>
<path d="M123.675 53.8533V43.8199H128.172C128.641 43.8199 129.072 43.9192 129.473 44.1176C129.87 44.316 130.214 44.5746 130.504 44.8933C130.794 45.2151 131.021 45.5759 131.186 45.9818C131.35 46.3877 131.431 46.7966 131.431 47.2115C131.431 47.5212 131.395 47.8219 131.317 48.1075C131.243 48.3961 131.135 48.6667 130.995 48.9193C130.854 49.1749 130.684 49.4034 130.483 49.6048C130.283 49.8063 130.056 49.9807 129.802 50.119L131.993 53.8503H129.395L127.484 50.6151H125.98V53.8503H123.675V53.8533ZM125.98 48.6006H128.088C128.36 48.6006 128.594 48.4713 128.791 48.2127C128.988 47.9542 129.087 47.6204 129.087 47.2175C129.087 46.8146 128.973 46.4749 128.749 46.2283C128.525 45.9848 128.28 45.8615 128.019 45.8615H125.983V48.6006H125.98Z" fill="#D5B881"/>
<path d="M141.092 45.8555H138.057V53.8533H135.752V45.8555H132.702V43.8199H141.092V45.8555Z" fill="#D5B881"/>
<path d="M151.175 43.8199V53.8533H148.869V49.7401H144.892V53.8533H142.587V43.8199H144.892V47.7076H148.869V43.8199H151.175Z" fill="#D5B881"/>
<path d="M155.092 43.8199L157.242 48.4262L159.421 43.8199H161.936L158.381 50.4347V53.8533H156.09V50.4046L152.592 43.8199H155.092Z" fill="#D5B881"/>
<path d="M65.661 74.6837H67.3355V89.4165H65.661V74.6837Z" fill="#D5B881"/>
<path d="M70.3555 74.6837H72.0299L75.1695 82.1343V74.6837H76.844V89.4165H75.1695V86.0069L72.0299 78.5563V89.4165H70.3555V74.6837Z" fill="#D5B881"/>
<path d="M86.1579 74.6837H88.8789L91.0766 89.4165H89.4022L88.9208 86.049H86.1161L85.6347 89.4165H83.9602L86.1579 74.6837ZM88.6905 84.4494L87.5184 76.2832L86.3463 84.4494H88.6905Z" fill="#D5B881"/>
<path d="M93.8485 74.6837H96.6114L98.4742 87.2908L100.316 74.6837H103.1V89.4165H101.425V77.3566L99.5416 89.4165H97.4067L95.523 77.3566V89.4165H93.8485V74.6837Z" fill="#D5B881"/>
<path d="M106.159 74.6837H111.224V76.2832H107.833V81.124H111.098V82.7236H107.833V87.8169H111.308V89.4165H106.159V74.6837Z" fill="#D5B881"/>
<path d="M114.136 74.6837H118.364C119.578 74.6837 120.248 75.3572 120.248 76.5779V81.4187C120.248 82.45 119.767 83.1024 118.867 83.2708L120.458 89.4165H118.783L117.213 83.3129H115.811V89.4165H114.136V74.6837ZM118.155 81.7133C118.427 81.7133 118.574 81.566 118.574 81.2924V76.7042C118.574 76.4305 118.427 76.2832 118.155 76.2832H115.811V81.7133H118.155Z" fill="#D5B881"/>
<path d="M123.331 74.6837H125.006V89.4165H123.331V74.6837Z" fill="#D5B881"/>
<path d="M128.002 87.6094V76.4966C128.002 75.2759 128.671 74.6024 129.885 74.6024H132.313C133.527 74.6024 134.197 75.2759 134.197 76.4966V80.1588H132.523V76.6229C132.523 76.3493 132.376 76.202 132.104 76.202H130.095C129.823 76.202 129.676 76.3493 129.676 76.6229V87.4831C129.676 87.7567 129.823 87.9041 130.095 87.9041H132.104C132.376 87.9041 132.523 87.7567 132.523 87.4831V83.9473H134.197V87.6094C134.197 88.8301 133.527 89.5036 132.313 89.5036H129.885C128.671 89.5036 128.002 88.8301 128.002 87.6094Z" fill="#D5B881"/>
<path d="M139.008 74.6837H141.729L143.927 89.4165H142.253L141.771 86.049H138.966L138.485 89.4165H136.811L139.008 74.6837ZM141.541 84.4494L140.369 76.2832L139.197 84.4494H141.541Z" fill="#D5B881"/>
<path d="M287.425 77.2182H273.144V49.4724H287.425L283.244 63.3453L287.425 77.2182Z" fill="url(#paint7_linear_14333_54278)"/>
<path d="M277.991 72.627L273.144 77.2182V49.4723L277.991 44.8811V72.627Z" fill="#390907"/>
<path d="M166.831 77.2182H181.111V49.4724H166.831L171.011 63.3453L166.831 77.2182Z" fill="url(#paint8_linear_14333_54278)"/>
<path d="M176.265 72.627L181.112 77.2182V49.4723L176.265 44.8811V72.627Z" fill="#390907"/>
<path d="M278.526 44.8811H176.265V72.627H278.526V44.8811Z" fill="#E5231B"/>
<path d="M200.392 59.5417H203.331C203.331 58.2699 202.509 57.7648 201.893 57.7648C201.181 57.7648 200.439 58.3541 200.392 59.5417ZM244.071 59.5207H247.01C247.01 58.2488 246.188 57.7437 245.572 57.7437C244.86 57.7437 244.119 58.333 244.071 59.5207ZM252.939 59.5026H255.879C255.879 58.2308 255.056 57.7257 254.441 57.7257C253.732 57.7257 252.99 58.312 252.939 59.5026ZM268.835 64.3645C268.835 64.3645 268.859 64.3344 268.859 64.3134C268.859 64.2923 268.85 64.2773 268.835 64.2622C268.82 64.2502 268.793 64.2442 268.754 64.2442H268.691V64.3825H268.751C268.79 64.3825 268.817 64.3795 268.835 64.3645ZM268.85 64.4607C268.871 64.4697 268.889 64.4787 268.898 64.4877C268.913 64.4998 268.925 64.5208 268.943 64.5449C268.943 64.5449 268.972 64.602 269.032 64.7072H268.868C268.817 64.599 268.778 64.5359 268.763 64.5148C268.745 64.4938 268.727 64.4847 268.709 64.4847C268.703 64.4847 268.697 64.4847 268.691 64.4847V64.7042H268.56V64.145H268.802C268.871 64.145 268.916 64.16 268.945 64.1871C268.978 64.2141 268.993 64.2532 268.993 64.3013C268.993 64.3404 268.981 64.3705 268.957 64.3975C268.931 64.4276 268.904 64.4457 268.85 64.4577M269.071 64.7223C269.152 64.6411 269.194 64.5419 269.194 64.4246C269.194 64.3073 269.152 64.2081 269.071 64.1269C268.99 64.0458 268.892 64.0037 268.775 64.0037C268.658 64.0037 268.56 64.0458 268.479 64.1269C268.398 64.2081 268.356 64.3073 268.356 64.4246C268.356 64.5419 268.398 64.6411 268.479 64.7223C268.563 64.8034 268.658 64.8455 268.775 64.8455C268.892 64.8455 268.99 64.8034 269.071 64.7223ZM269.295 64.4246C269.295 64.5178 269.271 64.605 269.227 64.6862C269.179 64.7674 269.116 64.8305 269.035 64.8786C268.954 64.9267 268.868 64.9478 268.775 64.9478C268.682 64.9478 268.596 64.9237 268.515 64.8786C268.434 64.8305 268.371 64.7674 268.324 64.6862C268.279 64.605 268.255 64.5178 268.255 64.4246C268.255 64.3314 268.279 64.2442 268.324 64.163C268.371 64.0818 268.434 64.0187 268.515 63.9736C268.596 63.9255 268.682 63.9044 268.775 63.9044C268.868 63.9044 268.954 63.9285 269.035 63.9736C269.113 64.0187 269.179 64.0818 269.227 64.163C269.271 64.2442 269.295 64.3314 269.295 64.4246ZM268.087 64.9237H265.381L262.574 61.2315L261.656 61.917V62.6326H262.457V64.9237H258.304V62.6416H259.093V54.6107H257.912V52.3587H261.659V59.5838L263.536 58.2037H262.355V55.9006H267.415V58.2037H266.628L264.652 59.68L266.909 62.6386H268.09V64.9237H268.087ZM258.331 60.4016C258.331 60.585 258.331 60.7685 258.316 60.9699H252.937C252.799 62.7078 253.442 63.2339 254.438 63.2339C255.269 63.2339 255.888 62.6897 255.888 61.8238H258.205C258.154 63.3452 257.35 65.1041 254.291 65.1041C251.232 65.1041 249.782 62.8792 249.782 60.3866C249.782 58.1616 251.262 55.7833 254.24 55.7833C257.218 55.7833 258.331 57.7738 258.331 60.4016ZM249.459 60.4227C249.459 60.6061 249.459 60.7895 249.444 60.991H244.065C243.927 62.7288 244.57 63.255 245.566 63.255C246.397 63.255 247.016 62.7108 247.016 61.8449H249.333C249.283 63.3693 248.478 65.1252 245.419 65.1252C242.361 65.1252 240.91 62.9002 240.91 60.4076C240.91 58.1827 242.39 55.8074 245.372 55.8074C248.212 55.8074 249.459 57.7948 249.459 60.4227ZM241.159 58.1887H240.369L238.375 64.9418H235.726L234.47 61.2435L233.36 64.9418H230.657L228.418 58.1887H227.628V55.9006H232.314V58.1887H231.133L232.353 61.7847L233.958 55.9006H235.4L237.373 61.7847L238.423 58.1887H237.241V55.9006H241.159V58.1887ZM222.461 58.2819C222.461 58.6006 222.713 58.8171 223.592 59.1027L224.857 59.5207C226.02 59.9055 227.419 60.7745 227.419 62.365C227.419 64.2382 226.023 65.1432 224.306 65.1432C222.943 65.1432 221.863 64.4727 221.582 64.172V64.9418H219.289V61.8118H221.529C221.594 62.8341 222.494 63.3693 223.326 63.3693C223.989 63.3693 224.306 63.0866 224.306 62.7348C224.306 62.3169 224.058 62.0824 222.925 61.7156L221.81 61.3457C220.679 60.9789 219.397 60.1431 219.397 58.6187C219.397 56.7605 221.026 55.8254 222.426 55.8254C223.825 55.8254 224.563 56.2313 224.913 56.6312L224.919 55.9277H227.213V58.757H224.854C224.821 57.9873 224.073 57.6505 223.323 57.6505C222.743 57.6475 222.461 57.9151 222.461 58.2819ZM219.169 58.1887H218.383L216.386 64.9418H213.736L212.483 61.2435L211.374 64.9418H208.671L206.432 58.1887H205.645V55.9006H210.328V58.1887H209.147L210.366 61.7847L211.972 55.9006H213.413L215.387 61.7847L216.436 58.1887H215.255V55.9006H219.172V58.1887H219.169ZM205.783 60.4407C205.783 60.6241 205.783 60.8075 205.768 61.009H200.389C200.251 62.7469 200.894 63.273 201.89 63.273C202.721 63.273 203.34 62.7288 203.34 61.8629H205.66C205.609 63.3843 204.805 65.1432 201.746 65.1432C198.687 65.1432 197.237 62.9182 197.237 60.4257C197.237 58.2007 198.717 55.8224 201.695 55.8224C204.673 55.8224 205.783 57.8159 205.783 60.4407ZM197.925 54.6528H196.744V64.9418H194.564L189.238 57.9301V62.6476H190.42V64.9418H185.495V62.6506H186.676V54.6528H185.495V52.3617H189.232L194.178 58.8863V54.6528H192.997V52.3617H197.922V54.6528H197.925Z" fill="white"/>
<defs>
<linearGradient id="paint0_linear_14333_54278" x1="0.279388" y1="1.22373" x2="309.079" y2="112.996" gradientUnits="userSpaceOnUse">
<stop offset="0.2" stop-color="#192C47"/>
<stop offset="0.5" stop-color="#004267"/>
<stop offset="0.8" stop-color="#192C47"/>
</linearGradient>
<linearGradient id="paint1_linear_14333_54278" x1="94.9609" y1="161.325" x2="214.994" y2="-45.4268" gradientUnits="userSpaceOnUse">
<stop stop-color="#D5B881"/>
<stop offset="0.14" stop-color="#E1CDA6"/>
<stop offset="0.34" stop-color="#F2EAD9"/>
<stop offset="0.39" stop-color="#EDE1C9"/>
<stop offset="0.52" stop-color="#E0CBA2"/>
<stop offset="0.62" stop-color="#D8BD8A"/>
<stop offset="0.68" stop-color="#D5B881"/>
<stop offset="1" stop-color="#E2CDA7"/>
</linearGradient>
<linearGradient id="paint2_linear_14333_54278" x1="12.7723" y1="77.861" x2="58.0502" y2="35.7243" gradientUnits="userSpaceOnUse">
<stop stop-color="#D5B881"/>
<stop offset="0.14" stop-color="#E1CDA6"/>
<stop offset="0.34" stop-color="#F2EAD9"/>
<stop offset="0.39" stop-color="#EDE1C9"/>
<stop offset="0.52" stop-color="#E0CBA2"/>
<stop offset="0.62" stop-color="#D8BD8A"/>
<stop offset="0.68" stop-color="#D5B881"/>
<stop offset="1" stop-color="#E2CDA7"/>
</linearGradient>
<linearGradient id="paint3_linear_14333_54278" x1="23.212" y1="85.2669" x2="69.1212" y2="43.8229" gradientUnits="userSpaceOnUse">
<stop stop-color="#D5B881"/>
<stop offset="0.14" stop-color="#E1CDA6"/>
<stop offset="0.34" stop-color="#F2EAD9"/>
<stop offset="0.39" stop-color="#EDE1C9"/>
<stop offset="0.52" stop-color="#E0CBA2"/>
<stop offset="0.62" stop-color="#D8BD8A"/>
<stop offset="0.68" stop-color="#D5B881"/>
<stop offset="1" stop-color="#E2CDA7"/>
</linearGradient>
<linearGradient id="paint4_linear_14333_54278" x1="32.8439" y1="91.5211" x2="78.2022" y2="49.4719" gradientUnits="userSpaceOnUse">
<stop stop-color="#D5B881"/>
<stop offset="0.14" stop-color="#E1CDA6"/>
<stop offset="0.34" stop-color="#F2EAD9"/>
<stop offset="0.39" stop-color="#EDE1C9"/>
<stop offset="0.52" stop-color="#E0CBA2"/>
<stop offset="0.62" stop-color="#D8BD8A"/>
<stop offset="0.68" stop-color="#D5B881"/>
<stop offset="1" stop-color="#E2CDA7"/>
</linearGradient>
<linearGradient id="paint5_linear_14333_54278" x1="2.61795" y1="71.8817" x2="47.787" y2="29.6232" gradientUnits="userSpaceOnUse">
<stop stop-color="#D5B881"/>
<stop offset="0.14" stop-color="#E1CDA6"/>
<stop offset="0.34" stop-color="#F2EAD9"/>
<stop offset="0.39" stop-color="#EDE1C9"/>
<stop offset="0.52" stop-color="#E0CBA2"/>
<stop offset="0.62" stop-color="#D8BD8A"/>
<stop offset="0.68" stop-color="#D5B881"/>
<stop offset="1" stop-color="#E2CDA7"/>
</linearGradient>
<linearGradient id="paint6_linear_14333_54278" x1="-5.24687" y1="67.1258" x2="39.3239" y2="24.2298" gradientUnits="userSpaceOnUse">
<stop stop-color="#D5B881"/>
<stop offset="0.14" stop-color="#E1CDA6"/>
<stop offset="0.34" stop-color="#F2EAD9"/>
<stop offset="0.39" stop-color="#EDE1C9"/>
<stop offset="0.52" stop-color="#E0CBA2"/>
<stop offset="0.62" stop-color="#D8BD8A"/>
<stop offset="0.68" stop-color="#D5B881"/>
<stop offset="1" stop-color="#E2CDA7"/>
</linearGradient>
<linearGradient id="paint7_linear_14333_54278" x1="273.144" y1="63.3453" x2="287.425" y2="63.3453" gradientUnits="userSpaceOnUse">
<stop stop-color="#650F0C"/>
<stop offset="0.13" stop-color="#6E100D"/>
<stop offset="0.33" stop-color="#861410"/>
<stop offset="0.59" stop-color="#AE1A15"/>
<stop offset="0.9" stop-color="#E5231B"/>
</linearGradient>
<linearGradient id="paint8_linear_14333_54278" x1="181.111" y1="116.059" x2="166.831" y2="116.059" gradientUnits="userSpaceOnUse">
<stop stop-color="#650F0C"/>
<stop offset="0.13" stop-color="#6E100D"/>
<stop offset="0.33" stop-color="#861410"/>
<stop offset="0.59" stop-color="#AE1A15"/>
<stop offset="0.9" stop-color="#E5231B"/>
</linearGradient>
</defs>
</svg>
