<svg width="57" height="56" viewBox="0 0 57 56" fill="none" xmlns="http://www.w3.org/2000/svg">
<path d="M46.3034 8.51669C46.0323 8.29741 45.7155 8.14167 45.3764 8.06091C45.0372 7.98015 44.6842 7.97643 44.3434 8.05003C41.8501 8.57256 39.2762 8.57922 36.7802 8.06959C34.2842 7.55996 31.919 6.54483 29.8301 5.08669C29.4395 4.81573 28.9754 4.67053 28.5001 4.67053C28.0247 4.67053 27.5606 4.81573 27.1701 5.08669C25.0812 6.54483 22.7159 7.55996 20.2199 8.06959C17.7239 8.57922 15.15 8.57256 12.6567 8.05003C12.3159 7.97643 11.9629 7.98015 11.6238 8.06091C11.2846 8.14167 10.9678 8.29741 10.6967 8.51669C10.426 8.7363 10.2079 9.01378 10.0585 9.32873C9.90914 9.64368 9.8322 9.98811 9.83339 10.3367V27.72C9.83131 31.0654 10.6285 34.3629 12.1586 37.3379C13.6887 40.3129 15.9075 42.8793 18.6301 44.8234L27.1467 50.89C27.5419 51.1714 28.0149 51.3226 28.5001 51.3226C28.9852 51.3226 29.4582 51.1714 29.8534 50.89L38.3701 44.8234C41.0926 42.8793 43.3114 40.3129 44.8415 37.3379C46.3716 34.3629 47.1688 31.0654 47.1667 27.72V10.3367C47.1679 9.98811 47.091 9.64368 46.9416 9.32873C46.7922 9.01378 46.5741 8.7363 46.3034 8.51669ZM42.5001 27.72C42.5018 30.3211 41.8824 32.885 40.6932 35.1984C39.5041 37.5118 37.7796 39.5077 35.6634 41.02L28.5001 46.13L21.3367 41.02C19.2205 39.5077 17.496 37.5118 16.3069 35.1984C15.1177 32.885 14.4983 30.3211 14.5001 27.72V13.02C19.3917 13.4387 24.2908 12.3037 28.5001 9.77669C32.7093 12.3037 37.6084 13.4387 42.5001 13.02V27.72ZM32.0934 22.3767L25.8167 28.6767L23.7401 26.5767C23.3007 26.1373 22.7048 25.8905 22.0834 25.8905C21.462 25.8905 20.8661 26.1373 20.4267 26.5767C19.9873 27.0161 19.7405 27.612 19.7405 28.2334C19.7405 28.8547 19.9873 29.4507 20.4267 29.89L24.1601 33.6234C24.377 33.8421 24.635 34.0156 24.9194 34.1341C25.2037 34.2526 25.5087 34.3136 25.8167 34.3136C26.1247 34.3136 26.4297 34.2526 26.7141 34.1341C26.9984 34.0156 27.2565 33.8421 27.4734 33.6234L35.5001 25.6667C35.9394 25.2273 36.1863 24.6314 36.1863 24.01C36.1863 23.3887 35.9394 22.7927 35.5001 22.3534C35.0607 21.914 34.4648 21.6671 33.8434 21.6671C33.222 21.6671 32.6261 21.914 32.1867 22.3534L32.0934 22.3767Z" fill="#49D600"/>
</svg>
