<svg width="28" height="28" viewBox="0 0 28 28" fill="none" xmlns="http://www.w3.org/2000/svg">
<path d="M22.1666 3.5H5.83331C4.90506 3.5 4.01482 3.86875 3.35844 4.52513C2.70206 5.1815 2.33331 6.07174 2.33331 7V16.3333C2.33331 17.2616 2.70206 18.1518 3.35844 18.8082C4.01482 19.4646 4.90506 19.8333 5.83331 19.8333H12.8333V22.1667H8.16665C7.85723 22.1667 7.56048 22.2896 7.34169 22.5084C7.1229 22.7272 6.99998 23.0239 6.99998 23.3333C6.99998 23.6428 7.1229 23.9395 7.34169 24.1583C7.56048 24.3771 7.85723 24.5 8.16665 24.5H19.8333C20.1427 24.5 20.4395 24.3771 20.6583 24.1583C20.8771 23.9395 21 23.6428 21 23.3333C21 23.0239 20.8771 22.7272 20.6583 22.5084C20.4395 22.2896 20.1427 22.1667 19.8333 22.1667H15.1666V19.8333H22.1666C23.0949 19.8333 23.9851 19.4646 24.6415 18.8082C25.2979 18.1518 25.6666 17.2616 25.6666 16.3333V7C25.6666 6.07174 25.2979 5.1815 24.6415 4.52513C23.9851 3.86875 23.0949 3.5 22.1666 3.5ZM23.3333 16.3333C23.3333 16.6428 23.2104 16.9395 22.9916 17.1583C22.7728 17.3771 22.4761 17.5 22.1666 17.5H5.83331C5.52389 17.5 5.22715 17.3771 5.00836 17.1583C4.78956 16.9395 4.66665 16.6428 4.66665 16.3333V7C4.66665 6.69058 4.78956 6.39383 5.00836 6.17504C5.22715 5.95625 5.52389 5.83333 5.83331 5.83333H22.1666C22.4761 5.83333 22.7728 5.95625 22.9916 6.17504C23.2104 6.39383 23.3333 6.69058 23.3333 7V16.3333Z" fill="#5DDF2A"/>
</svg>
