<svg width="40" height="40" viewBox="0 0 40 40" fill="none" xmlns="http://www.w3.org/2000/svg">
<path d="M33.3334 6.66669H6.66675C5.34067 6.66669 4.0689 7.19347 3.13121 8.13115C2.19353 9.06884 1.66675 10.3406 1.66675 11.6667V28.3334C1.66675 29.6594 2.19353 30.9312 3.13121 31.8689C4.0689 32.8066 5.34067 33.3334 6.66675 33.3334H33.3334C34.6595 33.3334 35.9313 32.8066 36.8689 31.8689C37.8066 30.9312 38.3334 29.6594 38.3334 28.3334V11.6667C38.3334 10.3406 37.8066 9.06884 36.8689 8.13115C35.9313 7.19347 34.6595 6.66669 33.3334 6.66669ZM35.0001 28.3334C35.0001 28.7754 34.8245 29.1993 34.5119 29.5119C34.1994 29.8244 33.7754 30 33.3334 30H6.66675C6.22472 30 5.8008 29.8244 5.48824 29.5119C5.17568 29.1993 5.00008 28.7754 5.00008 28.3334V11.6667C5.00008 11.2247 5.17568 10.8007 5.48824 10.4882C5.8008 10.1756 6.22472 10 6.66675 10H33.3334C33.7754 10 34.1994 10.1756 34.5119 10.4882C34.8245 10.8007 35.0001 11.2247 35.0001 11.6667V28.3334Z" fill="#49D600"/>
<path fill-rule="evenodd" clip-rule="evenodd" d="M16.6237 14.2526C17.4364 13.4078 18.6013 12.9236 19.9998 12.9236C22.0325 12.9236 23.2964 13.8738 23.9477 15.0132C24.2422 15.5282 24.382 16.0276 24.4506 16.3877C24.4856 16.5711 24.5039 16.7283 24.5137 16.8472C24.5185 16.907 24.5213 16.958 24.5229 16.9988C24.5236 17.0192 24.5241 17.0371 24.5244 17.0524L24.5247 17.0734L24.5247 17.0824L24.5248 17.0865L24.5248 17.0884C24.5248 17.0894 24.5248 17.0903 22.8581 17.0903H24.5248C24.5248 18.0108 23.7786 18.757 22.8581 18.757C21.9487 18.757 21.2094 18.0286 21.1918 17.1234C21.1917 17.1221 21.1915 17.1205 21.1914 17.1185C21.1899 17.1008 21.186 17.0627 21.1762 17.0117C21.1555 16.903 21.1167 16.7774 21.0539 16.6675C20.9969 16.5677 20.9239 16.4855 20.8127 16.4207C20.7022 16.3563 20.4648 16.257 19.9998 16.257C19.3988 16.257 19.1385 16.4465 19.0258 16.5636C18.8872 16.7077 18.816 16.9069 18.816 17.0903V17.0903C18.816 17.3607 18.8801 17.7238 19.0367 17.966C19.1011 18.0657 19.1773 18.14 19.2838 18.1968C19.3922 18.2546 19.6061 18.3334 19.9998 18.3334C21.7172 18.3334 22.9932 18.9975 23.751 20.1281C24.4271 21.137 24.5248 22.2807 24.5248 22.976C24.5248 23.8718 24.2215 24.9189 23.4484 25.7597C22.641 26.6378 21.458 27.1427 19.9998 27.1427C17.9688 27.1427 16.707 26.1904 16.0577 25.0514C15.7642 24.5366 15.6249 24.0375 15.5565 23.6778C15.5217 23.4946 15.5034 23.3375 15.4937 23.2187C15.4889 23.159 15.4861 23.1081 15.4846 23.0674C15.4838 23.047 15.4833 23.0291 15.483 23.0138L15.4827 22.9929L15.4827 22.9839L15.4827 22.9798L15.4827 22.9779C15.4827 22.9769 15.4827 22.976 17.1493 22.976H15.4827C15.4827 22.0555 16.2289 21.3093 17.1493 21.3093C18.0588 21.3093 18.7981 22.0378 18.8157 22.9431C18.8158 22.9444 18.8159 22.9461 18.8161 22.9481C18.8175 22.966 18.8215 23.0043 18.8312 23.0555C18.852 23.1645 18.8908 23.2904 18.9535 23.4006C19.0105 23.5005 19.0832 23.5823 19.1931 23.6466C19.3023 23.7104 19.5375 23.8093 19.9998 23.8093C20.6553 23.8093 20.9014 23.605 20.9947 23.5035C21.1224 23.3647 21.1914 23.1619 21.1914 22.976C21.1914 22.5191 21.11 22.1748 20.9819 21.9838C20.9334 21.9113 20.8725 21.8511 20.7669 21.7993C20.6528 21.7433 20.4223 21.6667 19.9998 21.6667C18.2063 21.6667 16.9564 20.8878 16.2374 19.7758C15.5938 18.7802 15.4827 17.6885 15.4827 17.0903M16.6237 14.2526C15.8369 15.0704 15.4827 16.1211 15.4827 17.0903L16.6237 14.2526Z" fill="#49D600"/>
<path fill-rule="evenodd" clip-rule="evenodd" d="M20.0002 11.0229C20.9206 11.0229 21.6668 11.7691 21.6668 12.6895L21.6669 14.5903C21.6669 15.5108 20.9207 16.257 20.0002 16.257C19.0797 16.257 18.3335 15.5108 18.3335 14.5904L18.3335 12.6896C18.3335 11.7691 19.0797 11.0229 20.0002 11.0229Z" fill="#49D600"/>
<path fill-rule="evenodd" clip-rule="evenodd" d="M20.0002 23.8093C20.9206 23.8093 21.6668 24.5555 21.6668 25.476V27.3871C21.6668 28.3076 20.9206 29.0538 20.0002 29.0538C19.0797 29.0538 18.3335 28.3076 18.3335 27.3871V25.476C18.3335 24.5555 19.0797 23.8093 20.0002 23.8093Z" fill="#49D600"/>
<circle cx="29.998" cy="19.9979" r="1.66451" fill="#49D600"/>
<ellipse cx="9.99801" cy="19.9979" rx="1.66452" ry="1.66451" fill="#49D600"/>
</svg>
