<svg width="107" height="21" viewBox="0 0 107 21" fill="none" xmlns="http://www.w3.org/2000/svg">
<path d="M9.61921 1.47808C9.77037 1.01284 10.4286 1.01285 10.5797 1.47808L12.2536 6.62963C12.3212 6.83769 12.5151 6.97856 12.7338 6.97856L18.1505 6.97856C18.6397 6.97856 18.8431 7.60453 18.4473 7.89206L14.0651 11.0759C13.8881 11.2045 13.8141 11.4324 13.8817 11.6405L15.5555 16.792C15.7067 17.2573 15.1742 17.6441 14.7785 17.3566L10.3963 14.1728C10.2193 14.0442 9.97964 14.0442 9.80265 14.1728L5.42048 17.3566C5.02473 17.6441 4.49224 17.2573 4.64341 16.792L6.31725 11.6405C6.38485 11.4324 6.31079 11.2045 6.1338 11.0759L1.75163 7.89206C1.35588 7.60453 1.55927 6.97856 2.04845 6.97856L7.46511 6.97856C7.68388 6.97856 7.87776 6.83769 7.94537 6.62963L9.61921 1.47808Z" fill="#49D600"/>
<path d="M31.5695 1.47808C31.7207 1.01284 32.3789 1.01285 32.53 1.47808L34.2039 6.62963C34.2715 6.83769 34.4654 6.97856 34.6841 6.97856L40.1008 6.97856C40.59 6.97856 40.7934 7.60453 40.3976 7.89206L36.0154 11.0759C35.8385 11.2045 35.7644 11.4324 35.832 11.6405L37.5058 16.792C37.657 17.2573 37.1245 17.6441 36.7288 17.3566L32.3466 14.1728C32.1696 14.0442 31.93 14.0442 31.753 14.1728L27.3708 17.3566C26.975 17.6441 26.4426 17.2573 26.5937 16.792L28.2676 11.6405C28.3352 11.4324 28.2611 11.2045 28.0841 11.0759L23.702 7.89206C23.3062 7.60453 23.5096 6.97856 23.9988 6.97856L29.4154 6.97856C29.6342 6.97856 29.8281 6.83769 29.8957 6.62963L31.5695 1.47808Z" fill="#49D600"/>
<path d="M53.5198 1.47808C53.671 1.01284 54.3292 1.01285 54.4804 1.47808L56.1542 6.62963C56.2218 6.83769 56.4157 6.97856 56.6345 6.97856L62.0511 6.97856C62.5403 6.97856 62.7437 7.60453 62.3479 7.89206L57.9658 11.0759C57.7888 11.2045 57.7147 11.4324 57.7823 11.6405L59.4562 16.792C59.6073 17.2573 59.0748 17.6441 58.6791 17.3566L54.2969 14.1728C54.1199 14.0442 53.8803 14.0442 53.7033 14.1728L49.3211 17.3566C48.9254 17.6441 48.3929 17.2573 48.544 16.792L50.2179 11.6405C50.2855 11.4324 50.2114 11.2045 50.0344 11.0759L45.6523 7.89206C45.2565 7.60453 45.4599 6.97856 45.9491 6.97856L51.3657 6.97856C51.5845 6.97856 51.7784 6.83769 51.846 6.62963L53.5198 1.47808Z" fill="#49D600"/>
<path d="M75.47 1.47808C75.6212 1.01284 76.2794 1.01285 76.4306 1.47808L78.1044 6.62963C78.172 6.83769 78.3659 6.97856 78.5847 6.97856L84.0013 6.97856C84.4905 6.97856 84.6939 7.60453 84.2981 7.89206L79.916 11.0759C79.739 11.2045 79.6649 11.4324 79.7325 11.6405L81.4064 16.792C81.5575 17.2573 81.025 17.6441 80.6293 17.3566L76.2471 14.1728C76.0701 14.0442 75.8305 14.0442 75.6535 14.1728L71.2713 17.3566C70.8756 17.6441 70.3431 17.2573 70.4942 16.792L72.1681 11.6405C72.2357 11.4324 72.1616 11.2045 71.9846 11.0759L67.6025 7.89206C67.2067 7.60453 67.4101 6.97856 67.8993 6.97856L73.3159 6.97856C73.5347 6.97856 73.7286 6.83769 73.7962 6.62963L75.47 1.47808Z" fill="#49D600"/>
<path d="M97.1285 1.31708C97.2659 0.894136 97.8643 0.894136 98.0017 1.31708L99.7089 6.5713C99.7703 6.76045 99.9466 6.88851 100.145 6.88851H105.67C106.115 6.88851 106.3 7.45757 105.94 7.71897L101.47 10.9663C101.31 11.0832 101.242 11.2904 101.304 11.4795L103.011 16.7337C103.148 17.1567 102.664 17.5084 102.304 17.247L97.8349 13.9997C97.674 13.8828 97.4562 13.8828 97.2953 13.9997L92.8257 17.247C92.466 17.5084 91.9819 17.1567 92.1193 16.7337L93.8265 11.4795C93.888 11.2904 93.8207 11.0832 93.6598 10.9663L89.1902 7.71897C88.8305 7.45757 89.0154 6.88851 89.4601 6.88851H94.9847C95.1836 6.88851 95.3598 6.76045 95.4213 6.5713L97.1285 1.31708Z" fill="#49D600"/>
</svg>
