<svg width="121" height="40" viewBox="0 0 121 40" fill="none" xmlns="http://www.w3.org/2000/svg">
<path d="M110.635 0.00013H10.0347C9.66798 0.00013 9.30568 0.00013 8.93995 0.00213C8.6338 0.00413 8.33009 0.00994 8.021 0.01483C7.34951 0.0227318 6.67961 0.0818063 6.0171 0.19154C5.35552 0.303663 4.71467 0.515046 4.11622 0.81854C3.5185 1.1246 2.97235 1.5223 2.49757 1.9972C2.0203 2.47077 1.62246 3.01815 1.31935 3.61829C1.0154 4.21724 0.804641 4.85907 0.69435 5.52161C0.583011 6.18332 0.523098 6.85265 0.51515 7.52361C0.50587 7.83021 0.50489 8.13783 0.5 8.44447V31.5587C0.50489 31.8692 0.50587 32.17 0.51515 32.4806C0.523101 33.1516 0.583013 33.8209 0.69435 34.4825C0.804336 35.1455 1.01511 35.7877 1.31935 36.3868C1.62233 36.985 2.02022 37.5302 2.49757 38.0011C2.97054 38.4781 3.51705 38.8761 4.11622 39.1798C4.71467 39.4841 5.35545 39.6968 6.0171 39.8106C6.67972 39.9195 7.34956 39.9786 8.021 39.9874C8.33009 39.9942 8.6338 39.9981 8.93995 39.9981C9.30567 40.0001 9.668 40.0001 10.0347 40.0001H110.635C110.994 40.0001 111.359 40.0001 111.719 39.9981C112.023 39.9981 112.336 39.9942 112.641 39.9874C113.311 39.9791 113.979 39.92 114.641 39.8106C115.304 39.696 115.948 39.4834 116.549 39.1798C117.147 38.8759 117.693 38.478 118.166 38.0011C118.642 37.5284 119.041 36.9836 119.348 36.3868C119.65 35.7872 119.858 35.1451 119.967 34.4825C120.078 33.8208 120.14 33.1516 120.152 32.4806C120.156 32.17 120.156 31.8692 120.156 31.5587C120.164 31.1954 120.164 30.8341 120.164 30.4649V9.53626C120.164 9.17005 120.164 8.80677 120.156 8.44447C120.156 8.13783 120.156 7.83021 120.152 7.52357C120.14 6.85255 120.078 6.18337 119.967 5.52157C119.858 4.85941 119.649 4.21763 119.348 3.61825C118.73 2.41533 117.752 1.43616 116.549 0.81845C115.948 0.515697 115.304 0.30437 114.641 0.19145C113.98 0.0812328 113.311 0.0221378 112.641 0.01469C112.336 0.00981 112.023 0.00395 111.719 0.002C111.359 0 110.994 0 110.635 0V0.00013Z" fill="#A6A6A6"/>
<path d="M8.94481 39.1251C8.64013 39.1251 8.34281 39.1212 8.04052 39.1144C7.4143 39.1063 6.78954 39.0517 6.17138 38.9513C5.59497 38.852 5.03658 38.6674 4.51464 38.4034C3.99748 38.1416 3.52579 37.7984 3.11764 37.3868C2.70358 36.9801 2.35885 36.5084 2.09713 35.9903C1.83252 35.4689 1.64939 34.91 1.55413 34.3331C1.45125 33.7132 1.39559 33.0864 1.38763 32.4581C1.38129 32.2472 1.37299 31.545 1.37299 31.545V8.44446C1.37299 8.44446 1.38183 7.75305 1.38768 7.54992C1.3953 6.9226 1.45064 6.29678 1.55321 5.67785C1.64864 5.09937 1.83191 4.53887 2.09667 4.01575C2.35743 3.49807 2.70024 3.02598 3.11181 2.6178C3.52291 2.20574 3.99611 1.86073 4.51415 1.59533C5.03489 1.33222 5.59222 1.14885 6.16747 1.05139C6.78766 0.949958 7.41459 0.895118 8.04298 0.887332L8.9453 0.875122H111.714L112.627 0.887822C113.25 0.895221 113.871 0.949572 114.485 1.05041C115.066 1.1491 115.63 1.33374 116.156 1.59826C117.194 2.13311 118.039 2.97929 118.571 4.01819C118.832 4.5377 119.012 5.09363 119.106 5.66711C119.21 6.29111 119.268 6.92186 119.28 7.55432C119.283 7.83752 119.283 8.14172 119.283 8.44446C119.291 8.81946 119.291 9.17639 119.291 9.53625V30.4649C119.291 30.8282 119.291 31.1827 119.283 31.5401C119.283 31.8653 119.283 32.1632 119.279 32.4698C119.268 33.091 119.21 33.7105 119.108 34.3233C119.015 34.9044 118.833 35.4676 118.568 35.9933C118.305 36.5057 117.962 36.9734 117.553 37.379C117.144 37.7928 116.672 38.1381 116.153 38.4015C115.628 38.6675 115.066 38.8529 114.485 38.9513C113.867 39.0523 113.242 39.1068 112.616 39.1144C112.323 39.1212 112.017 39.1251 111.719 39.1251L110.635 39.1271L8.94481 39.1251Z" fill="black"/>
<path fill-rule="evenodd" clip-rule="evenodd" d="M6.83333 3H115.167C117.56 3 119.5 4.95107 119.5 7.35783V33.5048C119.5 35.9115 117.56 37.8626 115.167 37.8626H6.83333C4.4401 37.8626 2.5 35.9115 2.5 33.5048V7.35783C2.5 4.95107 4.4401 3 6.83333 3ZM118.806 7.3576C118.806 5.33592 117.177 3.69703 115.166 3.69703H6.83308C4.82276 3.69703 3.19308 5.33592 3.19308 7.3576V33.5046C3.19308 35.5262 4.82276 37.1651 6.83308 37.1651H115.166C117.177 37.1651 118.806 35.5262 118.806 33.5046V7.3576Z" fill="black"/>
<path d="M43.597 11.9247C43.6267 12.5708 43.3918 13.2008 42.947 13.6679C42.4499 14.1871 41.7566 14.4692 41.0403 14.4436C40.3195 14.4507 39.6263 14.1652 39.1174 13.6518C38.6085 13.1384 38.3269 12.4404 38.3363 11.7156C38.3269 10.9907 38.6085 10.2927 39.1174 9.77928C39.6263 9.26587 40.3195 8.98046 41.0403 8.98756C41.4067 8.98633 41.7695 9.06048 42.1063 9.20545C42.4199 9.33266 42.6991 9.53277 42.921 9.7894L42.4616 10.2513C42.1109 9.83182 41.5845 9.60261 41.0403 9.63251C40.4948 9.6299 39.9718 9.85025 39.591 10.243C39.2102 10.6358 39.0045 11.1673 39.021 11.7156C39.0093 12.5463 39.4959 13.3025 40.2542 13.6324C41.0125 13.9622 41.8936 13.8008 42.4876 13.2234C42.7543 12.9327 42.9081 12.5553 42.921 12.1601H41.0403V11.5325H43.5623C43.5854 11.662 43.597 11.7932 43.597 11.9247Z" fill="white"/>
<path d="M47.5669 9.74585H45.227V11.4018H47.3589V12.0294H45.227V13.6853H47.5669V14.3303H44.5336V9.10089H47.5669V9.74585Z" fill="white"/>
<path d="M50.4094 14.3303H49.7421V9.74585H48.2861V9.10089H51.9001V9.74585H50.4094V14.3303Z" fill="white"/>
<path d="M54.4479 14.3303V9.10089H55.1152V14.3303H54.4479Z" fill="white"/>
<path d="M58.0792 14.3303H57.4119V9.74585H55.9559V9.10089H59.5266V9.74585H58.0792V14.3303Z" fill="white"/>
<path fill-rule="evenodd" clip-rule="evenodd" d="M62.4822 13.6506C63.537 14.7054 65.2408 14.7054 66.2956 13.6506C66.799 13.1356 67.0741 12.4378 67.0582 11.7157C67.0741 10.9937 66.799 10.2959 66.2956 9.78087C65.7912 9.26991 65.1049 8.98254 64.3889 8.98254C63.673 8.98254 62.9866 9.26991 62.4822 9.78087C61.9788 10.2959 61.7037 10.9937 61.7196 11.7157C61.7037 12.4378 61.9788 13.1356 62.4822 13.6506ZM65.8015 13.2147C65.0203 13.997 63.7573 13.997 62.9762 13.2147C62.5874 12.8155 62.3776 12.274 62.3955 11.7156C62.3684 11.1622 62.5654 10.6214 62.9415 10.2165C63.7226 9.43421 64.9857 9.43421 65.7668 10.2165C66.1683 10.6098 66.3909 11.152 66.3822 11.7156C66.4 12.274 66.1903 12.8155 65.8015 13.2147Z" fill="white"/>
<path d="M68.0026 14.3303V9.10089H68.8172L71.3479 13.1711V12.1601V9.10089H72.0152V14.3303H71.3219L68.6699 10.0683V11.0793V14.3303H68.0026Z" fill="white"/>
<path fill-rule="evenodd" clip-rule="evenodd" d="M43.8748 23.0984V24.6672H47.6188C47.5601 25.4061 47.2547 26.1034 46.7521 26.6456C45.9947 27.4215 44.9465 27.8394 43.8661 27.7961C41.5686 27.7961 39.7061 25.9231 39.7061 23.6126C39.7061 21.3021 41.5686 19.4291 43.8661 19.4291C44.9215 19.4118 45.9407 19.8161 46.7001 20.5534L47.8008 19.4465C46.7651 18.3918 45.3487 17.8038 43.8748 17.8167C41.7766 17.7346 39.8018 18.8135 38.7284 20.6284C37.655 22.4433 37.655 24.7034 38.7284 26.5184C39.8018 28.3333 41.7766 29.4122 43.8748 29.3301C45.3756 29.3983 46.8325 28.8103 47.8701 27.7177C48.7781 26.7144 49.2629 25.3956 49.2221 24.0397C49.2249 23.7093 49.1959 23.3795 49.1355 23.0548L43.8748 23.0984ZM53.486 21.9565C51.4529 21.9613 49.8081 23.6219 49.8113 25.6665C49.8145 27.7111 51.4644 29.3664 53.4975 29.3648C55.5307 29.3632 57.178 27.7053 57.178 25.6607C57.1923 24.6709 56.8064 23.7177 56.1087 23.0194C55.4111 22.3211 54.4614 21.9375 53.4773 21.9565H53.486ZM57.889 25.6723C57.8826 23.6288 59.523 21.9661 61.5549 21.9565C62.5391 21.9375 63.4887 22.3211 64.1864 23.0194C64.884 23.7177 65.2699 24.6709 65.2556 25.6607C65.2556 27.7042 63.61 29.3616 61.578 29.3648C59.546 29.368 57.8953 27.7157 57.889 25.6723ZM59.3812 26.6356C59.777 27.4687 60.6389 27.9739 61.5548 27.9094C62.1297 27.896 62.6748 27.6497 63.0664 27.2263C63.458 26.8029 63.663 26.2384 63.6348 25.6608C63.6326 24.7375 63.0694 23.9094 62.2145 23.5726C61.3597 23.2358 60.387 23.4587 59.7617 24.1347C59.1363 24.8108 58.9855 25.8025 59.3812 26.6356ZM51.3065 26.6423C51.7051 27.4749 52.5695 27.9775 53.4859 27.9095H53.4772C54.0521 27.8961 54.5971 27.6497 54.9888 27.2263C55.3804 26.8029 55.5854 26.2384 55.5572 25.6609C55.5547 24.7368 54.9904 23.9084 54.1344 23.5723C53.2785 23.2362 52.3053 23.461 51.6809 24.1388C51.0564 24.8167 50.9079 25.8097 51.3065 26.6423ZM79.9887 21.9568C81.4255 22.01 82.6806 22.9497 83.1433 24.3187L83.3253 24.7109L78.394 26.7591C78.7031 27.467 79.4111 27.9128 80.1793 27.8834C80.9211 27.8853 81.6091 27.4946 81.9907 26.855L83.2473 27.7265C82.5632 28.7562 81.4107 29.3717 80.1793 29.3651C79.2005 29.3795 78.2579 28.993 77.5681 28.2944C76.8783 27.5958 76.5007 26.6452 76.522 25.6609C76.4621 24.6992 76.8007 23.7554 77.4574 23.0536C78.1142 22.3519 79.0304 21.9549 79.9887 21.9568ZM78.117 25.5561C78.0815 25.0115 78.2654 24.4755 78.6274 24.0689C78.9893 23.6622 79.4988 23.4192 80.041 23.3946C80.6124 23.3568 81.1512 23.6654 81.4103 24.179L78.117 25.5561ZM75.7335 29.147H74.1128V18.2524H75.7335V29.147ZM71.4608 22.7846H71.4001C70.9061 22.2292 70.1998 21.9121 69.4588 21.9131C67.4916 22.009 65.9456 23.6409 65.9456 25.6216C65.9456 27.6022 67.4916 29.2342 69.4588 29.3301C70.2022 29.3427 70.9131 29.0235 71.4001 28.4585H71.4521V28.9902C71.4521 30.4108 70.6981 31.1691 69.4848 31.1691C68.6582 31.1496 67.9254 30.6296 67.6301 29.853L66.2174 30.4457C66.7614 31.7764 68.0541 32.6419 69.4848 32.6333C71.3828 32.6333 72.9514 31.509 72.9514 28.7723V22.1745H71.4608V22.7846ZM69.6036 27.9093L69.6063 27.9095H69.5976L69.6036 27.9093ZM71.064 27.2103C70.692 27.6336 70.1646 27.8859 69.6036 27.9093C68.446 27.8053 67.5586 26.8298 67.5586 25.6609C67.5586 24.491 68.4474 23.5149 69.6063 23.4122C70.1662 23.4411 70.6909 23.6961 71.0613 24.1195C71.4316 24.5428 71.6164 25.0986 71.5736 25.6609C71.6214 26.2257 71.4372 26.7856 71.064 27.2103ZM90.7357 18.2523H86.853V29.1468H88.4737V25.0156H90.7357C91.9947 25.1066 93.1987 24.4827 93.8558 23.3988C94.5129 22.315 94.5129 20.9529 93.8558 19.8691C93.1987 18.7852 91.9947 18.1613 90.7357 18.2523ZM88.4732 23.4818H90.7352L90.7698 23.508C91.7965 23.508 92.6288 22.671 92.6288 21.6385C92.6288 20.606 91.7965 19.769 90.7698 19.769H88.4732V23.4818ZM100.728 21.913C99.522 21.8405 98.3884 22.4944 97.8418 23.5776L99.2804 24.179C99.5703 23.6419 100.148 23.3274 100.754 23.3772C101.169 23.3284 101.587 23.4495 101.913 23.7134C102.239 23.9772 102.446 24.3617 102.487 24.7804V24.8937C101.967 24.6166 101.386 24.4729 100.797 24.4754C99.2458 24.4754 97.6771 25.3469 97.6771 26.9245C97.708 27.604 98.011 28.2421 98.517 28.6936C99.0231 29.145 99.6891 29.3714 100.364 29.3213C101.195 29.3813 101.993 28.9802 102.444 28.2754H102.496V29.1469H104.056V24.9547C104.056 23.046 102.617 21.9391 100.771 21.9391L100.728 21.913ZM99.2634 26.9595C99.2634 27.6132 100 27.8834 100.529 27.8834L100.572 27.9095C101.548 27.8856 102.358 27.142 102.47 26.1664C102.02 25.914 101.512 25.7875 100.997 25.8003C100.182 25.8003 99.2634 26.0879 99.2634 26.9595ZM109.742 22.1747L107.887 26.8986H107.835L105.911 22.1747H104.178L107.064 28.7812L105.417 32.4505H107.107L111.544 22.1747H109.742ZM96.7933 29.147H95.1727V18.2524H96.7933V29.147Z" fill="white"/>
<path d="M11.5486 9.57175C11.2723 9.9152 11.136 10.3513 11.1672 10.7919V30.071C11.1408 30.5139 11.2834 30.9503 11.5659 31.2912L11.6266 31.3522L22.3472 20.5622V20.3094L11.6092 9.51074L11.5486 9.57175Z" fill="#00D8FF"/>
<path d="M25.9 24.1615L22.3466 20.562V20.3092L25.9 16.7009L25.978 16.7445L30.2333 19.1762C31.4466 19.8647 31.4466 20.9977 30.2333 21.695L25.9953 24.1179L25.9 24.1615Z" fill="url(#paint0_linear_2634_12332)"/>
<path d="M26.0039 24.1182L22.3466 20.4315L11.5479 31.2912C12.0581 31.7423 12.8154 31.7642 13.3506 31.3435L26.0126 24.1095" fill="#F1324B"/>
<path d="M26.0037 16.7533L13.3417 9.51926C12.8064 9.09853 12.0492 9.1205 11.539 9.57155L22.3463 20.4313L26.0037 16.7533Z" fill="#00F076"/>
<path opacity="0.2" d="M25.8999 24.0306L13.3419 31.2211C12.828 31.6075 12.1225 31.6075 11.6086 31.2211L11.5479 31.2821L11.6086 31.3431C12.1215 31.7324 12.829 31.7324 13.3419 31.3431L26.0039 24.1091L25.8999 24.0306Z" fill="black"/>
<path d="M11.5478 31.169C11.2654 30.8281 11.1228 30.3917 11.1492 29.9488V30.0795C11.1228 30.5225 11.2654 30.9588 11.5478 31.2997L11.6085 31.2387L11.5478 31.169Z" fill="black"/>
<path d="M30.2332 21.5646L25.8998 24.0311L25.9778 24.1095L30.2332 21.6866C30.7246 21.4544 31.0552 20.9757 31.0998 20.4315C31.0011 20.9238 30.681 21.3423 30.2332 21.5646Z" fill="black"/>
<path d="M13.3422 9.64142L30.2335 19.2984C30.6814 19.5206 31.0014 19.9391 31.1002 20.4314C31.0555 19.8872 30.725 19.4085 30.2335 19.1763L13.3422 9.5194C12.1375 8.82215 11.1669 9.39738 11.1669 10.7919V10.9226C11.1669 9.52811 12.1375 8.95288 13.3422 9.64142Z" fill="black"/>
<defs>
<linearGradient id="paint0_linear_2634_12332" x1="31.8193" y1="11.541" x2="10.8546" y2="11.541" gradientUnits="userSpaceOnUse">
<stop stop-color="#FFE000"/>
<stop offset="0.41" stop-color="#FFBD00"/>
<stop offset="0.78" stop-color="#FFA500"/>
<stop offset="1" stop-color="#FF9C00"/>
</linearGradient>
</defs>
</svg>
