<svg width="135" height="31" viewBox="0 0 135 31" fill="none" xmlns="http://www.w3.org/2000/svg">
<path fill-rule="evenodd" clip-rule="evenodd" d="M37.0379 9.85629V11.5925H41.2049C41.1396 12.4103 40.7996 13.1819 40.2403 13.7821C39.3973 14.6408 38.2307 15.1032 37.0283 15.0553C34.4712 15.0553 32.3983 12.9824 32.3983 10.4254C32.3983 7.86833 34.4712 5.79543 37.0283 5.79543C38.2029 5.77627 39.3372 6.22375 40.1824 7.03973L41.4075 5.81472C40.2547 4.64744 38.6784 3.99674 37.0379 4.01096C34.7027 3.92008 32.5048 5.11412 31.3102 7.12274C30.1155 9.13135 30.1155 11.6326 31.3102 13.6412C32.5048 15.6498 34.7027 16.8439 37.0379 16.753C38.7083 16.8285 40.3298 16.1778 41.4846 14.9685C42.4952 13.8582 43.0347 12.3987 42.9894 10.898C42.9925 10.5324 42.9602 10.1674 42.8929 9.80806L37.0379 9.85629ZM47.7352 8.59257C45.4724 8.59789 43.6419 10.4356 43.6454 12.6984C43.649 14.9612 45.4853 16.7932 47.7481 16.7914C50.0109 16.7897 51.8443 14.9548 51.8443 12.692C51.8602 11.5966 51.4307 10.5417 50.6543 9.76887C49.8778 8.99605 48.8209 8.57154 47.7256 8.59257H47.7352ZM52.6352 12.7048C52.6281 10.4433 54.4538 8.60321 56.7153 8.59257C57.8106 8.57154 58.8676 8.99605 59.644 9.76887C60.4205 10.5417 60.8499 11.5966 60.8341 12.692C60.834 14.9536 59.0026 16.7879 56.741 16.7914C54.4795 16.7949 52.6423 14.9663 52.6352 12.7048ZM54.2961 13.7708C54.7366 14.6928 55.6959 15.2518 56.7153 15.1806C57.3551 15.1657 57.9617 14.8931 58.3976 14.4245C58.8335 13.9559 59.0616 13.3311 59.0303 12.6919C59.0278 11.6701 58.4009 10.7537 57.4495 10.3809C56.4981 10.0081 55.4155 10.2548 54.7195 11.003C54.0236 11.7512 53.8557 12.8488 54.2961 13.7708ZM45.3096 13.7781C45.7532 14.6996 46.7153 15.2558 47.7352 15.1805H47.7255C48.3653 15.1657 48.972 14.8931 49.4079 14.4245C49.8438 13.9559 50.0719 13.3311 50.0405 12.6919C50.0377 11.6693 49.4096 10.7524 48.457 10.3805C47.5044 10.0086 46.4212 10.2573 45.7263 11.0075C45.0313 11.7577 44.866 12.8567 45.3096 13.7781ZM77.2318 8.59259C78.831 8.65148 80.2278 9.69144 80.7429 11.2066L80.9454 11.6406L75.457 13.9074C75.801 14.6908 76.589 15.1843 77.444 15.1517C78.2695 15.1538 79.0353 14.7214 79.46 14.0135L80.8586 14.9781C80.0972 16.1177 78.8145 16.7989 77.444 16.7915C76.3546 16.8074 75.3055 16.3797 74.5378 15.6066C73.7701 14.8334 73.3498 13.7813 73.3735 12.692C73.3069 11.6276 73.6837 10.5831 74.4146 9.80654C75.1456 9.02993 76.1653 8.5905 77.2318 8.59259ZM75.1482 12.5761C75.1087 11.9734 75.3135 11.3802 75.7163 10.9302C76.1192 10.4801 76.6862 10.2112 77.2896 10.184C77.9256 10.1421 78.5253 10.4837 78.8136 11.0521L75.1482 12.5761ZM72.4958 16.5503H70.692V4.49311H72.4958V16.5503ZM67.7403 9.50895H67.6728C67.123 8.8942 66.3369 8.54329 65.5122 8.54437C63.3227 8.65054 61.6021 10.4566 61.6021 12.6486C61.6021 14.8407 63.3227 16.6467 65.5122 16.7529C66.3396 16.7668 67.1307 16.4136 67.6728 15.7883H67.7307V16.3767C67.7307 17.949 66.8915 18.7882 65.5411 18.7882C64.6212 18.7666 63.8056 18.1911 63.4769 17.3316L61.9047 17.9876C62.5101 19.4603 63.9488 20.4182 65.5411 20.4086C67.6535 20.4086 69.3994 19.1643 69.3994 16.1356V8.83374H67.7403V9.50895ZM65.6731 15.1803L65.6761 15.1806H65.6665L65.6731 15.1803ZM67.2985 14.4068C66.8846 14.8752 66.2975 15.1545 65.6731 15.1803C64.3849 15.0653 63.3972 13.9857 63.3972 12.692C63.3972 11.3972 64.3864 10.3171 65.6761 10.2034C66.2994 10.2354 66.8833 10.5176 67.2955 10.9861C67.7077 11.4547 67.9133 12.0698 67.8657 12.692C67.9189 13.3171 67.7139 13.9367 67.2985 14.4068ZM89.1926 4.49304H84.8713V16.5502H86.675V11.9781H89.1926C90.5938 12.0788 91.9339 11.3883 92.6652 10.1888C93.3965 8.98935 93.3965 7.48184 92.6652 6.28236C91.9339 5.08287 90.5938 4.39238 89.1926 4.49304ZM86.6751 10.2805H89.1926L89.2312 10.3095C90.3739 10.3095 91.3002 9.38312 91.3002 8.24044C91.3002 7.09775 90.3739 6.17143 89.2312 6.17143H86.6751V10.2805ZM100.314 8.54444C98.9721 8.46423 97.7104 9.1879 97.1021 10.3868L98.7033 11.0523C99.0258 10.4578 99.6689 10.1098 100.343 10.1649C100.806 10.1109 101.27 10.245 101.633 10.537C101.996 10.829 102.226 11.2545 102.272 11.7179V11.8433C101.693 11.5366 101.047 11.3775 100.391 11.3803C98.6647 11.3803 96.9188 12.3449 96.9188 14.0908C96.9532 14.8428 97.2904 15.549 97.8536 16.0486C98.4168 16.5483 99.1582 16.7988 99.909 16.7433C100.834 16.8098 101.722 16.3659 102.224 15.5858H102.282V16.5504H104.018V11.9108C104.018 9.79839 102.417 8.57338 100.362 8.57338L100.314 8.54444ZM98.684 14.1293C98.684 14.8528 99.5039 15.1518 100.092 15.1518L100.141 15.1807C101.227 15.1542 102.128 14.3313 102.253 13.2516C101.752 12.9722 101.186 12.8323 100.613 12.8464C99.7065 12.8464 98.684 13.1647 98.684 14.1293ZM110.346 8.83372L108.281 14.0617H108.224L106.082 8.83372H104.153L107.365 16.1452L105.532 20.2061H107.413L112.352 8.83372H110.346ZM95.9349 16.5503H94.1312V4.49311H95.9349V16.5503Z" fill="black"/>
<path d="M0.672063 0.590561C0.364592 0.970657 0.2129 1.45331 0.24765 1.94097V23.2774C0.218282 23.7676 0.376966 24.2505 0.691354 24.6278L0.758874 24.6953L12.6907 12.7539V12.4741L0.739583 0.523041L0.672063 0.590561Z" fill="#00D8FF"/>
<path d="M16.6455 16.7372L12.6908 12.7535V12.4738L16.6455 8.48047L16.7323 8.5287L21.4684 11.2199C22.8188 11.9819 22.8188 13.2358 21.4684 14.0075L16.7516 16.689L16.6455 16.7372Z" fill="url(#paint0_linear_13300_47730)"/>
<path d="M16.7611 16.689L12.6906 12.6088L0.671967 24.6274C1.23983 25.1266 2.08259 25.1509 2.67828 24.6853L16.7707 16.6793" fill="#F1324B"/>
<path d="M16.7612 8.53843L2.66879 0.532453C2.0731 0.066828 1.23034 0.0911384 0.662476 0.590328L12.6907 12.6089L16.7612 8.53843Z" fill="#00F076"/>
<path opacity="0.2" d="M16.6453 16.5927L2.66863 24.5504C2.09668 24.9781 1.31144 24.9781 0.739487 24.5504L0.671967 24.618L0.739487 24.6855C1.31037 25.1163 2.09776 25.1163 2.66863 24.6855L16.7611 16.6795L16.6453 16.5927Z" fill="black"/>
<path d="M0.672107 24.4927C0.357718 24.1155 0.199035 23.6325 0.228403 23.1423V23.287C0.199035 23.7772 0.357718 24.2602 0.672107 24.6374L0.739627 24.5699L0.672107 24.4927Z" fill="black"/>
<path d="M21.4684 13.8628L16.6455 16.5925L16.7323 16.6793L21.4684 13.9978C22.0154 13.7409 22.3832 13.2111 22.433 12.6088C22.323 13.1537 21.9668 13.6168 21.4684 13.8628Z" fill="black"/>
<path d="M2.66876 0.667462L21.4683 11.355C21.9667 11.601 22.323 12.0641 22.4329 12.6089C22.3832 12.0066 22.0153 11.4769 21.4683 11.2199L2.66876 0.532421C1.328 -0.239239 0.247681 0.39738 0.247681 1.9407V2.08539C0.247681 0.542067 1.328 -0.0945531 2.66876 0.667462Z" fill="black"/>
<defs>
<linearGradient id="paint0_linear_13300_47730" x1="23.2336" y1="2.76988" x2="-0.0994909" y2="2.76988" gradientUnits="userSpaceOnUse">
<stop stop-color="#FFE000"/>
<stop offset="0.41" stop-color="#FFBD00"/>
<stop offset="0.78" stop-color="#FFA500"/>
<stop offset="1" stop-color="#FF9C00"/>
</linearGradient>
</defs>
</svg>
