<svg width="121" height="40" viewBox="0 0 121 40" fill="none" xmlns="http://www.w3.org/2000/svg">
<path d="M110.635 0.00013H10.0347C9.66798 0.00013 9.30568 0.00013 8.93995 0.00213C8.6338 0.00413 8.33009 0.00994 8.021 0.01483C7.34951 0.0227318 6.67961 0.0818063 6.0171 0.19154C5.35552 0.303663 4.71467 0.515046 4.11622 0.81854C3.5185 1.1246 2.97235 1.5223 2.49757 1.9972C2.0203 2.47077 1.62246 3.01815 1.31935 3.61829C1.0154 4.21724 0.804641 4.85907 0.69435 5.52161C0.583011 6.18332 0.523098 6.85265 0.51515 7.52361C0.50587 7.83021 0.50489 8.13783 0.5 8.44447V31.5587C0.50489 31.8692 0.50587 32.17 0.51515 32.4806C0.523101 33.1516 0.583013 33.8209 0.69435 34.4825C0.804336 35.1455 1.01511 35.7877 1.31935 36.3868C1.62233 36.985 2.02022 37.5302 2.49757 38.0011C2.97054 38.4781 3.51705 38.8761 4.11622 39.1798C4.71467 39.4841 5.35545 39.6968 6.0171 39.8106C6.67972 39.9195 7.34956 39.9786 8.021 39.9874C8.33009 39.9942 8.6338 39.9981 8.93995 39.9981C9.30567 40.0001 9.668 40.0001 10.0347 40.0001H110.635C110.994 40.0001 111.359 40.0001 111.719 39.9981C112.023 39.9981 112.336 39.9942 112.641 39.9874C113.311 39.9791 113.979 39.92 114.641 39.8106C115.304 39.696 115.948 39.4834 116.549 39.1798C117.147 38.8759 117.693 38.478 118.166 38.0011C118.642 37.5284 119.041 36.9836 119.348 36.3868C119.65 35.7872 119.858 35.1451 119.967 34.4825C120.078 33.8208 120.14 33.1516 120.152 32.4806C120.156 32.17 120.156 31.8692 120.156 31.5587C120.164 31.1954 120.164 30.8341 120.164 30.4649V9.53626C120.164 9.17005 120.164 8.80677 120.156 8.44447C120.156 8.13783 120.156 7.83021 120.152 7.52357C120.14 6.85255 120.078 6.18337 119.967 5.52157C119.858 4.85941 119.649 4.21763 119.348 3.61825C118.73 2.41533 117.752 1.43616 116.549 0.81845C115.948 0.515697 115.304 0.30437 114.641 0.19145C113.98 0.0812328 113.311 0.0221378 112.641 0.01469C112.336 0.00981 112.023 0.00395 111.719 0.002C111.359 0 110.994 0 110.635 0V0.00013Z" fill="#A6A6A6"/>
<path d="M8.94481 39.1251C8.64013 39.1251 8.34281 39.1212 8.04052 39.1144C7.4143 39.1063 6.78954 39.0517 6.17138 38.9513C5.59497 38.852 5.03658 38.6674 4.51464 38.4034C3.99748 38.1416 3.52579 37.7984 3.11764 37.3868C2.70358 36.9801 2.35885 36.5084 2.09713 35.9903C1.83252 35.4689 1.64939 34.91 1.55413 34.3331C1.45125 33.7132 1.39559 33.0864 1.38763 32.4581C1.38129 32.2472 1.37299 31.545 1.37299 31.545V8.44446C1.37299 8.44446 1.38183 7.75305 1.38768 7.54992C1.3953 6.9226 1.45064 6.29678 1.55321 5.67785C1.64864 5.09937 1.83191 4.53887 2.09667 4.01575C2.35743 3.49807 2.70024 3.02598 3.11181 2.6178C3.52291 2.20574 3.99611 1.86073 4.51415 1.59533C5.03489 1.33222 5.59222 1.14885 6.16747 1.05139C6.78766 0.949958 7.41459 0.895118 8.04298 0.887332L8.9453 0.875122H111.714L112.627 0.887822C113.25 0.895221 113.871 0.949572 114.485 1.05041C115.066 1.1491 115.63 1.33374 116.156 1.59826C117.194 2.13311 118.039 2.97929 118.571 4.01819C118.832 4.5377 119.012 5.09363 119.106 5.66711C119.21 6.29111 119.268 6.92186 119.28 7.55432C119.283 7.83752 119.283 8.14172 119.283 8.44446C119.291 8.81946 119.291 9.17639 119.291 9.53625V30.4649C119.291 30.8282 119.291 31.1827 119.283 31.5401C119.283 31.8653 119.283 32.1632 119.279 32.4698C119.268 33.091 119.21 33.7105 119.108 34.3233C119.015 34.9044 118.833 35.4676 118.568 35.9933C118.305 36.5057 117.962 36.9734 117.553 37.379C117.144 37.7928 116.672 38.1381 116.153 38.4015C115.628 38.6675 115.066 38.8529 114.485 38.9513C113.867 39.0523 113.242 39.1068 112.616 39.1144C112.323 39.1212 112.017 39.1251 111.719 39.1251L110.635 39.1271L8.94481 39.1251Z" fill="black"/>
<path d="M25.2689 20.3008C25.2796 19.4662 25.5013 18.6478 25.9134 17.9218C26.3254 17.1959 26.9143 16.5859 27.6254 16.1488C27.1737 15.5036 26.5777 14.9727 25.8849 14.5981C25.1921 14.2236 24.4215 14.0157 23.6343 13.9911C21.955 13.8148 20.3271 14.9959 19.4714 14.9959C18.5991 14.9959 17.2816 14.0086 15.8629 14.0378C14.9452 14.0674 14.0509 14.3343 13.267 14.8123C12.4831 15.2904 11.8364 15.9633 11.39 16.7656C9.45595 20.1141 10.8985 25.0351 12.7511 27.7417C13.678 29.0671 14.7613 30.5475 16.1788 30.495C17.5658 30.4375 18.0839 29.6105 19.7582 29.6105C21.4169 29.6105 21.903 30.495 23.3492 30.4616C24.8376 30.4375 25.7753 29.1304 26.6697 27.7925C27.3357 26.8481 27.8481 25.8044 28.1881 24.7C27.3234 24.3343 26.5855 23.7221 26.0664 22.9398C25.5472 22.1575 25.2699 21.2397 25.2689 20.3008Z" fill="white"/>
<path d="M22.5373 12.211C23.3488 11.2368 23.7486 9.98463 23.6518 8.7204C22.412 8.85062 21.2667 9.44318 20.4442 10.38C20.0421 10.8377 19.7341 11.3701 19.5378 11.9469C19.3416 12.5236 19.2609 13.1334 19.3005 13.7414C19.9206 13.7478 20.5341 13.6134 21.0948 13.3483C21.6555 13.0832 22.1487 12.6943 22.5373 12.211Z" fill="white"/>
<path d="M42.8022 27.1397H38.0688L36.9321 30.4962H34.9272L39.4106 18.0782H41.4936L45.977 30.4962H43.938L42.8022 27.1397ZM38.5591 25.5909H42.3111L40.4615 20.1436H40.4097L38.5591 25.5909Z" fill="white"/>
<path d="M55.6597 25.9698C55.6597 28.7833 54.1538 30.5909 51.8814 30.5909C51.3057 30.621 50.7332 30.4884 50.2294 30.2083C49.7256 29.9281 49.3109 29.5118 49.0327 29.0069H48.9897V33.4913H47.1313V21.4425H48.9302V22.9483H48.9644C49.2553 22.4459 49.6771 22.0317 50.1847 21.7498C50.6923 21.468 51.2669 21.329 51.8472 21.3477C54.145 21.3477 55.6597 23.1641 55.6597 25.9698ZM53.7495 25.9698C53.7495 24.1368 52.8023 22.9317 51.357 22.9317C49.937 22.9317 48.982 24.1622 48.982 25.9698C48.982 27.794 49.937 29.0157 51.357 29.0157C52.8023 29.0157 53.7495 27.8194 53.7495 25.9698Z" fill="white"/>
<path d="M65.6245 25.9699C65.6245 28.7833 64.1186 30.591 61.8462 30.591C61.2705 30.6211 60.698 30.4885 60.1942 30.2083C59.6904 29.9282 59.2757 29.5118 58.9975 29.007H58.9545V33.4913H57.0961V21.4425H58.895V22.9484H58.9291C59.2201 22.4459 59.6418 22.0317 60.1494 21.7499C60.6571 21.468 61.2316 21.3291 61.812 21.3478C64.1098 21.3478 65.6245 23.1642 65.6245 25.9699ZM63.7143 25.9699C63.7143 24.1369 62.767 22.9318 61.3217 22.9318C59.9018 22.9318 58.9467 24.1623 58.9467 25.9699C58.9467 27.7941 59.9018 29.0158 61.3217 29.0158C62.7671 29.0158 63.7143 27.8195 63.7143 25.9699H63.7143Z" fill="white"/>
<path d="M72.2105 27.0362C72.3482 28.2677 73.5445 29.0762 75.1792 29.0762C76.7456 29.0762 77.8726 28.2677 77.8726 27.1573C77.8726 26.1934 77.1929 25.6163 75.5835 25.2208L73.9742 24.8331C71.6939 24.2823 70.6353 23.2159 70.6353 21.4854C70.6353 19.3428 72.5025 17.8712 75.1538 17.8712C77.7778 17.8712 79.5767 19.3428 79.6372 21.4854H77.7612C77.6489 20.2462 76.6245 19.4981 75.1274 19.4981C73.6304 19.4981 72.606 20.255 72.606 21.3565C72.606 22.2344 73.2603 22.751 74.8608 23.1465L76.229 23.4825C78.7769 24.085 79.8355 25.1085 79.8355 26.9248C79.8355 29.2481 77.9849 30.7032 75.0415 30.7032C72.2876 30.7032 70.4282 29.2823 70.3081 27.0362L72.2105 27.0362Z" fill="white"/>
<path d="M83.8462 19.2999V21.4425H85.5679V22.9142H83.8462V27.9054C83.8462 28.6808 84.1909 29.0421 84.9477 29.0421C85.1521 29.0386 85.3562 29.0242 85.5591 28.9991V30.462C85.2188 30.5256 84.8729 30.5544 84.5268 30.5479C82.6938 30.5479 81.979 29.8595 81.979 28.1036V22.9142H80.6626V21.4425H81.979V19.2999H83.8462Z" fill="white"/>
<path d="M86.565 25.9698C86.565 23.1212 88.2427 21.3312 90.8589 21.3312C93.4839 21.3312 95.1539 23.1212 95.1539 25.9698C95.1539 28.8263 93.4927 30.6085 90.8589 30.6085C88.2261 30.6085 86.565 28.8263 86.565 25.9698ZM93.2603 25.9698C93.2603 24.0157 92.3648 22.8624 90.8589 22.8624C89.3531 22.8624 88.4585 24.0245 88.4585 25.9698C88.4585 27.9318 89.3531 29.0763 90.8589 29.0763C92.3648 29.0763 93.2603 27.9318 93.2603 25.9698H93.2603Z" fill="white"/>
<path d="M96.686 21.4425H98.4585V22.9835H98.5015C98.6214 22.5022 98.9034 22.0769 99.3 21.779C99.6966 21.4811 100.184 21.3288 100.679 21.3478C100.893 21.347 101.107 21.3703 101.316 21.4171V23.1554C101.046 23.0728 100.764 23.0348 100.481 23.0431C100.211 23.0321 99.9418 23.0797 99.692 23.1826C99.4421 23.2855 99.2175 23.4412 99.0335 23.6391C98.8496 23.837 98.7106 24.0724 98.6262 24.3291C98.5417 24.5857 98.5139 24.8576 98.5444 25.1261V30.4962H96.686L96.686 21.4425Z" fill="white"/>
<path d="M109.884 27.837C109.634 29.4806 108.034 30.6085 105.986 30.6085C103.352 30.6085 101.717 28.8439 101.717 26.0128C101.717 23.173 103.361 21.3312 105.908 21.3312C108.413 21.3312 109.988 23.0519 109.988 25.797V26.4337H103.593V26.546C103.564 26.8792 103.605 27.2149 103.716 27.5307C103.826 27.8466 104.002 28.1353 104.232 28.3779C104.463 28.6204 104.742 28.8112 105.052 28.9375C105.361 29.0638 105.695 29.1228 106.029 29.1105C106.468 29.1516 106.909 29.0499 107.285 28.8205C107.662 28.591 107.955 28.2461 108.12 27.837L109.884 27.837ZM103.602 25.1349H108.128C108.145 24.8353 108.1 24.5355 107.995 24.2543C107.89 23.9731 107.729 23.7165 107.52 23.5008C107.312 23.285 107.061 23.1147 106.783 23.0004C106.506 22.8862 106.208 22.8306 105.908 22.837C105.605 22.8352 105.305 22.8934 105.025 23.0081C104.745 23.1229 104.49 23.2919 104.276 23.5056C104.062 23.7192 103.892 23.9732 103.776 24.2528C103.66 24.5325 103.601 24.8323 103.602 25.1349V25.1349Z" fill="white"/>
<path d="M38.3262 8.73114C38.7158 8.70318 39.1067 8.76204 39.4709 8.90347C39.835 9.0449 40.1632 9.26538 40.4317 9.54901C40.7003 9.83263 40.9026 10.1723 41.024 10.5436C41.1454 10.9149 41.1829 11.3085 41.1338 11.696C41.1338 13.6022 40.1035 14.698 38.3262 14.698H36.1709V8.73114H38.3262ZM37.0976 13.8541H38.2226C38.5011 13.8708 38.7797 13.8251 39.0382 13.7205C39.2967 13.6159 39.5287 13.455 39.7172 13.2494C39.9057 13.0438 40.046 12.7988 40.1278 12.5322C40.2097 12.2656 40.2311 11.9841 40.1904 11.7081C40.2281 11.4333 40.2046 11.1535 40.1215 10.8889C40.0383 10.6242 39.8977 10.3812 39.7096 10.1773C39.5216 9.97334 39.2907 9.81353 39.0337 9.70929C38.7766 9.60506 38.4996 9.55897 38.2226 9.57435H37.0976V13.8541Z" fill="white"/>
<path d="M42.1806 12.4445C42.1523 12.1486 42.1862 11.85 42.28 11.5679C42.3739 11.2858 42.5256 11.0265 42.7256 10.8065C42.9255 10.5865 43.1692 10.4108 43.4411 10.2905C43.7129 10.1702 44.0069 10.1081 44.3042 10.1081C44.6014 10.1081 44.8954 10.1702 45.1673 10.2905C45.4391 10.4108 45.6828 10.5865 45.8828 10.8065C46.0827 11.0265 46.2345 11.2858 46.3283 11.5679C46.4222 11.85 46.456 12.1486 46.4277 12.4445C46.4566 12.7407 46.4231 13.0397 46.3295 13.3222C46.2359 13.6047 46.0843 13.8645 45.8843 14.085C45.6843 14.3054 45.4404 14.4815 45.1683 14.602C44.8961 14.7226 44.6018 14.7848 44.3042 14.7848C44.0065 14.7848 43.7122 14.7226 43.4401 14.602C43.168 14.4815 42.9241 14.3054 42.7241 14.085C42.5241 13.8645 42.3724 13.6047 42.2788 13.3222C42.1852 13.0397 42.1518 12.7407 42.1806 12.4445ZM45.5136 12.4445C45.5136 11.4684 45.0752 10.8976 44.3056 10.8976C43.5332 10.8976 43.0986 11.4684 43.0986 12.4445C43.0986 13.4284 43.5332 13.9948 44.3056 13.9948C45.0752 13.9948 45.5136 13.4245 45.5136 12.4445H45.5136Z" fill="white"/>
<path d="M52.0732 14.6979H51.1514L50.2207 11.3815H50.1504L49.2236 14.6979H48.3105L47.0693 10.1949H47.9707L48.7773 13.6309H48.8438L49.7695 10.1949H50.6221L51.5479 13.6309H51.6182L52.4209 10.1949H53.3096L52.0732 14.6979Z" fill="white"/>
<path d="M54.3535 10.1949H55.209V10.9103H55.2754C55.388 10.6533 55.5781 10.438 55.8189 10.2942C56.0598 10.1504 56.3395 10.0853 56.6191 10.108C56.8382 10.0915 57.0582 10.1246 57.2628 10.2047C57.4674 10.2848 57.6514 10.4099 57.8011 10.5707C57.9508 10.7316 58.0623 10.924 58.1275 11.1338C58.1927 11.3437 58.2099 11.5655 58.1777 11.7828V14.6978H57.2891V12.006C57.2891 11.2823 56.9746 10.9225 56.3174 10.9225C56.1686 10.9155 56.0201 10.9409 55.8821 10.9967C55.744 11.0525 55.6197 11.1375 55.5175 11.2459C55.4154 11.3543 55.3379 11.4835 55.2904 11.6246C55.2429 11.7658 55.2264 11.9155 55.2422 12.0636V14.6979H54.3535L54.3535 10.1949Z" fill="white"/>
<path d="M59.5938 8.43713H60.4824V14.6979H59.5938V8.43713Z" fill="white"/>
<path d="M61.7178 12.4445C61.6895 12.1486 61.7234 11.85 61.8172 11.5679C61.9111 11.2858 62.0629 11.0265 62.2628 10.8065C62.4628 10.5865 62.7065 10.4107 62.9784 10.2904C63.2503 10.1702 63.5443 10.108 63.8416 10.108C64.1389 10.108 64.4329 10.1702 64.7047 10.2904C64.9766 10.4107 65.2203 10.5865 65.4203 10.8065C65.6203 11.0265 65.772 11.2858 65.8659 11.5679C65.9598 11.85 65.9936 12.1486 65.9653 12.4445C65.9942 12.7407 65.9607 13.0397 65.8671 13.3222C65.7734 13.6048 65.6217 13.8646 65.4217 14.085C65.2217 14.3054 64.9778 14.4815 64.7057 14.602C64.4335 14.7226 64.1392 14.7848 63.8416 14.7848C63.5439 14.7848 63.2496 14.7226 62.9775 14.602C62.7053 14.4815 62.4614 14.3054 62.2614 14.085C62.0614 13.8646 61.9097 13.6048 61.8161 13.3222C61.7225 13.0397 61.689 12.7407 61.7178 12.4445ZM65.0508 12.4445C65.0508 11.4684 64.6123 10.8976 63.8428 10.8976C63.0703 10.8976 62.6358 11.4684 62.6358 12.4445C62.6358 13.4284 63.0704 13.9948 63.8428 13.9948C64.6123 13.9948 65.0508 13.4245 65.0508 12.4445H65.0508Z" fill="white"/>
<path d="M66.9009 13.4244C66.9009 12.6139 67.5044 12.1466 68.5757 12.0802L69.7954 12.0099V11.6212C69.7954 11.1456 69.481 10.8771 68.8735 10.8771C68.3774 10.8771 68.0337 11.0592 67.9351 11.3776H67.0747C67.1655 10.6041 67.8931 10.108 68.9146 10.108C70.0435 10.108 70.6802 10.67 70.6802 11.6212V14.6979H69.8247V14.0651H69.7544C69.6117 14.2921 69.4113 14.4771 69.1737 14.6013C68.936 14.7255 68.6697 14.7844 68.4019 14.7721C68.2128 14.7917 68.0218 14.7716 67.841 14.7129C67.6602 14.6542 67.4938 14.5582 67.3524 14.4313C67.211 14.3043 67.0977 14.1491 67.02 13.9757C66.9422 13.8023 66.9016 13.6145 66.9009 13.4244ZM69.7954 13.0397V12.6632L68.6958 12.7335C68.0757 12.775 67.7944 12.986 67.7944 13.3829C67.7944 13.7882 68.146 14.024 68.6294 14.024C68.7711 14.0384 68.9142 14.0241 69.0502 13.982C69.1862 13.9399 69.3123 13.8709 69.4211 13.779C69.5299 13.6872 69.6191 13.5744 69.6834 13.4474C69.7477 13.3204 69.7858 13.1817 69.7954 13.0397Z" fill="white"/>
<path d="M71.8481 12.4445C71.8481 11.0216 72.5796 10.1203 73.7173 10.1203C73.9987 10.1073 74.278 10.1747 74.5225 10.3146C74.767 10.4545 74.9667 10.6611 75.0981 10.9103H75.1646V8.43713H76.0532V14.6979H75.2017V13.9864H75.1314C74.9897 14.2339 74.7831 14.438 74.5339 14.5765C74.2846 14.7149 74.0022 14.7826 73.7173 14.7721C72.5718 14.7721 71.8481 13.8707 71.8481 12.4445ZM72.7661 12.4445C72.7661 13.3996 73.2163 13.9743 73.9693 13.9743C74.7183 13.9743 75.1812 13.3913 75.1812 12.4484C75.1812 11.5099 74.7134 10.9186 73.9693 10.9186C73.2212 10.9186 72.7661 11.4972 72.7661 12.4445H72.7661Z" fill="white"/>
<path d="M79.73 12.4445C79.7016 12.1486 79.7355 11.85 79.8293 11.5679C79.9232 11.2858 80.0749 11.0265 80.2749 10.8065C80.4748 10.5865 80.7185 10.4108 80.9904 10.2905C81.2622 10.1702 81.5562 10.1081 81.8535 10.1081C82.1508 10.1081 82.4447 10.1702 82.7166 10.2905C82.9884 10.4108 83.2322 10.5865 83.4321 10.8065C83.632 11.0265 83.7838 11.2858 83.8776 11.5679C83.9715 11.85 84.0053 12.1486 83.977 12.4445C84.0059 12.7407 83.9724 13.0397 83.8788 13.3222C83.7852 13.6047 83.6336 13.8645 83.4336 14.085C83.2336 14.3054 82.9897 14.4815 82.7176 14.602C82.4454 14.7226 82.1511 14.7848 81.8535 14.7848C81.5559 14.7848 81.2615 14.7226 80.9894 14.602C80.7173 14.4815 80.4734 14.3054 80.2734 14.085C80.0734 13.8645 79.9217 13.6047 79.8281 13.3222C79.7346 13.0397 79.7011 12.7407 79.73 12.4445ZM83.063 12.4445C83.063 11.4684 82.6245 10.8976 81.855 10.8976C81.0825 10.8976 80.648 11.4684 80.648 12.4445C80.648 13.4284 81.0825 13.9948 81.855 13.9948C82.6245 13.9948 83.063 13.4245 83.063 12.4445Z" fill="white"/>
<path d="M85.1694 10.1949H86.0249V10.9103H86.0913C86.204 10.6533 86.394 10.438 86.6348 10.2942C86.8757 10.1504 87.1555 10.0853 87.4351 10.108C87.6542 10.0915 87.8742 10.1246 88.0788 10.2047C88.2834 10.2848 88.4673 10.4099 88.617 10.5707C88.7667 10.7316 88.8783 10.924 88.9435 11.1338C89.0087 11.3437 89.0258 11.5655 88.9937 11.7828V14.6978H88.105V12.006C88.105 11.2823 87.7905 10.9225 87.1333 10.9225C86.9846 10.9155 86.836 10.9409 86.698 10.9967C86.5599 11.0525 86.4356 11.1375 86.3335 11.2459C86.2313 11.3543 86.1539 11.4835 86.1063 11.6246C86.0588 11.7658 86.0423 11.9155 86.0581 12.0636V14.6979H85.1694V10.1949Z" fill="white"/>
<path d="M94.0151 9.07385V10.2155H94.9907V10.964H94.0151V13.2794C94.0151 13.7511 94.2095 13.9576 94.6519 13.9576C94.7651 13.9573 94.8783 13.9504 94.9907 13.9371V14.6774C94.8311 14.7059 94.6694 14.7211 94.5073 14.7228C93.519 14.7228 93.1255 14.3751 93.1255 13.507V10.964H92.4106V10.2154H93.1255V9.07385H94.0151Z" fill="white"/>
<path d="M96.2046 8.43713H97.0854V10.9186H97.1558C97.2739 10.6593 97.4691 10.4427 97.7148 10.2983C97.9605 10.154 98.2447 10.0889 98.5288 10.1119C98.7467 10.1001 98.9646 10.1365 99.1669 10.2185C99.3692 10.3006 99.5508 10.4262 99.699 10.5866C99.8471 10.7469 99.958 10.938 100.024 11.1461C100.09 11.3542 100.109 11.5743 100.08 11.7907V14.6979H99.19V12.0099C99.19 11.2906 98.855 10.9264 98.2271 10.9264C98.0743 10.9139 97.9207 10.9349 97.7769 10.9879C97.6332 11.041 97.5027 11.1248 97.3947 11.2335C97.2867 11.3423 97.2038 11.4733 97.1517 11.6174C97.0997 11.7616 97.0797 11.9153 97.0933 12.068V14.6979H96.2046L96.2046 8.43713Z" fill="white"/>
<path d="M105.261 13.4821C105.14 13.8936 104.879 14.2496 104.522 14.4877C104.165 14.7259 103.736 14.831 103.31 14.7848C103.013 14.7926 102.719 14.7358 102.446 14.6183C102.174 14.5008 101.93 14.3253 101.732 14.1042C101.534 13.8831 101.387 13.6215 101.3 13.3377C101.213 13.0539 101.189 12.7546 101.23 12.4606C101.19 12.1657 101.215 11.8658 101.301 11.5811C101.388 11.2964 101.534 11.0337 101.731 10.8106C101.928 10.5875 102.171 10.4093 102.442 10.2881C102.714 10.1669 103.009 10.1055 103.306 10.108C104.559 10.108 105.315 10.964 105.315 12.378V12.6881H102.135V12.7379C102.121 12.9032 102.142 13.0695 102.196 13.2263C102.25 13.383 102.337 13.5267 102.45 13.6482C102.562 13.7696 102.699 13.8662 102.852 13.9316C103.004 13.9969 103.169 14.0298 103.334 14.0279C103.547 14.0535 103.762 14.0152 103.953 13.918C104.144 13.8208 104.301 13.669 104.406 13.482L105.261 13.4821ZM102.135 12.0309H104.41C104.421 11.8798 104.4 11.728 104.349 11.5853C104.298 11.4425 104.218 11.3121 104.114 11.2022C104.009 11.0923 103.883 11.0055 103.743 10.9474C103.603 10.8892 103.453 10.8609 103.301 10.8644C103.148 10.8625 102.995 10.8913 102.853 10.9493C102.71 11.0072 102.581 11.0931 102.472 11.2018C102.364 11.3105 102.278 11.4399 102.22 11.5823C102.162 11.7247 102.133 11.8772 102.135 12.0309H102.135Z" fill="white"/>
</svg>
