<svg width="429" height="160" viewBox="0 0 429 160" fill="none" xmlns="http://www.w3.org/2000/svg">
<path d="M428.755 0H0.923157V159.416H428.755V0Z" fill="url(#paint0_linear_14333_54216)"/>
<path d="M8.37369 151.681H421.304V7.73929H8.37369V151.681ZM411.84 16.5509V142.703H17.6712V16.5509H411.84ZM409.207 19.0365V140.134H20.2213V19.0365H409.207ZM407.111 138.006V21.1604H22.3179V138.002H407.111V138.006Z" fill="url(#paint1_linear_14333_54216)"/>
<path d="M49.6573 75.2441L46.504 66.7068L43.6794 75.3605L34.5774 75.7221L41.9405 81.0798L39.4695 89.8415L46.8451 84.5005L54.4204 89.5548L51.6166 80.8927L58.7676 75.2566L49.6573 75.2441Z" fill="url(#paint2_linear_14333_54216)"/>
<path d="M50.4394 99.6009L48.426 93.89L46.4583 99.6176L40.4014 99.763L45.2436 103.404L43.5131 109.206L48.4718 105.728L53.4596 109.165L51.6833 103.379L56.4963 99.7007L50.4394 99.6009Z" fill="url(#paint3_linear_14333_54216)"/>
<path d="M51.7168 119.73L50.1485 115.458L48.7258 119.78L44.1748 119.951L47.8481 122.64L46.6042 127.017L50.2983 124.352L54.0838 126.888L52.6903 122.557L56.272 119.743L51.7168 119.73Z" fill="url(#paint4_linear_14333_54216)"/>
<path d="M50.3938 53.481L48.2805 47.8075L46.4168 53.5683L40.3599 53.8218L45.2687 57.3756L43.6421 63.2071L48.5384 59.6409L53.5886 62.991L51.7041 57.2343L56.4548 53.4727L50.3938 53.481Z" fill="url(#paint5_linear_14333_54216)"/>
<path d="M56.2345 34.4777L51.6793 34.5484L50.032 30.3088L48.6925 34.6564L44.1415 34.9141L47.8688 37.5285L46.7082 41.9302L50.3523 39.1994L54.1795 41.6642L52.7069 37.3581L56.2345 34.4777Z" fill="url(#paint6_linear_14333_54216)"/>
<path d="M323.454 119.81C323.283 118.891 322.855 118.38 322.085 118.38C321.465 118.38 321.037 118.7 321.037 119.298C321.037 121.094 325.525 121.817 325.525 125.234C325.525 127.283 324.115 128.33 322.172 128.33C320.08 128.33 318.882 127.133 318.52 125.13L320.612 124.552C320.762 125.512 321.103 126.368 322.193 126.368C322.813 126.368 323.262 126.007 323.262 125.363C323.262 123.376 318.774 122.632 318.774 119.494C318.774 117.677 320.184 116.418 321.981 116.418C323.778 116.418 325.122 117.677 325.484 119.473L323.454 119.81ZM326.466 118.592V116.626H327.788V113.529H330.18V116.626H331.782V118.592H330.18V125.209C330.18 125.807 330.438 126.148 330.992 126.148H331.782V128.197C331.462 128.285 331.183 128.326 330.584 128.326C328.787 128.326 327.784 127.495 327.784 125.745V118.592H326.466ZM333.088 120.001C333.217 117.673 334.69 116.414 336.936 116.414C339.183 116.414 340.418 117.44 340.418 119.531V126.896C340.418 127.258 340.501 127.728 340.568 128.114H338.28C338.259 127.794 338.172 127.495 338.151 127.216C337.252 127.944 336.504 128.326 335.351 128.326C333.729 128.326 332.913 127.216 332.913 125.745C332.913 123.226 334.577 121.838 338.022 120.537V119.855C338.022 118.895 337.639 118.384 336.849 118.384C335.759 118.384 335.526 119.024 335.48 120.005H333.088V120.001ZM338.026 122.278C335.846 123.517 335.314 124.307 335.314 125.309C335.314 126.057 335.697 126.356 336.425 126.356C337.086 126.356 337.623 125.865 338.026 125.288V122.278ZM341.891 118.588V116.622H343.218V113.525H345.61V116.622H347.211V118.588H345.61V125.205C345.61 125.803 345.868 126.144 346.421 126.144H347.211V128.193C346.891 128.28 346.612 128.322 346.013 128.322C344.216 128.322 343.214 127.491 343.214 125.741V118.588H341.891ZM348.792 115.674V113.496H351.184V115.674H348.792ZM348.792 128.11V116.626H351.184V128.11H348.792ZM357.873 119.805C357.703 118.887 357.274 118.376 356.505 118.376C355.885 118.376 355.456 118.696 355.456 119.294C355.456 121.09 359.945 121.813 359.945 125.23C359.945 127.279 358.535 128.326 356.592 128.326C354.5 128.326 353.301 127.129 352.94 125.126L355.032 124.548C355.182 125.508 355.523 126.364 356.613 126.364C357.233 126.364 357.682 126.003 357.682 125.358C357.682 123.372 353.193 122.628 353.193 119.49C353.193 117.673 354.604 116.414 356.401 116.414C358.198 116.414 359.541 117.673 359.903 119.469L357.873 119.805ZM360.889 118.588V116.622H362.216V113.525H364.608V116.622H366.21V118.588H364.608V125.205C364.608 125.803 364.866 126.144 365.419 126.144H366.21V128.193C365.89 128.28 365.611 128.322 365.012 128.322C363.219 128.322 362.212 127.491 362.212 125.741V118.588H360.889ZM367.512 119.997C367.641 117.669 369.114 116.41 371.36 116.41C373.606 116.41 374.842 117.436 374.842 119.527V126.892C374.842 127.254 374.925 127.723 374.992 128.11H372.704C372.683 127.79 372.595 127.491 372.575 127.212C371.676 127.94 370.927 128.322 369.775 128.322C368.153 128.322 367.341 127.212 367.341 125.741C367.341 123.222 369.01 121.834 372.45 120.533V119.851C372.45 118.891 372.063 118.38 371.273 118.38C370.183 118.38 369.95 119.02 369.904 120.001H367.512V119.997ZM372.446 122.274C370.266 123.513 369.733 124.303 369.733 125.304C369.733 126.053 370.116 126.352 370.844 126.352C371.505 126.352 372.042 125.861 372.446 125.284V122.274ZM393.79 113.508H380.004C379.717 113.508 379.484 113.741 379.484 114.028V123.413C379.509 123.409 379.534 123.409 379.559 123.409C379.559 123.409 381.789 123.363 382.75 122.865C383.931 122.249 384.813 120.982 384.813 120.982C385.038 120.657 385.283 120.304 385.362 120.192C385.441 120.08 385.52 119.967 385.541 119.943C385.562 119.918 385.654 119.785 385.708 119.71C385.762 119.631 385.99 119.302 386.215 118.982C386.215 118.982 387.559 117.041 389.464 116.052C391.532 114.98 394.261 115.1 394.261 115.1C394.277 115.1 394.29 115.104 394.306 115.104V114.036C394.31 113.741 394.077 113.508 393.79 113.508ZM390.982 118.962C389.801 119.577 388.923 120.845 388.923 120.845C388.699 121.169 388.453 121.522 388.374 121.634C388.295 121.746 388.216 121.859 388.195 121.884C388.174 121.909 388.083 122.042 388.029 122.116C387.975 122.195 387.746 122.524 387.521 122.844C387.521 122.844 386.178 124.785 384.272 125.774C382.292 126.801 379.701 126.734 379.488 126.73V127.794C379.488 128.081 379.721 128.314 380.008 128.314H393.795C394.082 128.314 394.315 128.081 394.315 127.794V118.401C394.269 118.409 394.227 118.417 394.181 118.417C394.173 118.421 391.943 118.463 390.982 118.962Z" fill="#D5B881"/>
<path d="M342.09 48.6719C342.09 47.9528 342.282 47.321 342.668 46.7142L347.64 39.2367C347.831 38.9624 347.943 38.6299 347.943 38.2724V35.3712C347.943 35.0138 347.752 34.8184 347.39 34.8184H344.961C344.603 34.8184 344.407 35.0096 344.407 35.3712V39.1785H342.198V35.205C342.198 33.6047 343.08 32.7194 344.686 32.7194H347.669C349.27 32.7194 350.156 33.6006 350.156 35.205V38.1561C350.156 38.8751 349.965 39.5069 349.578 40.1137L344.607 47.5912C344.416 47.8655 344.303 48.198 344.303 48.5555V50.0435H350.161V52.1425H342.094V48.6719H342.09Z" fill="#D5B881"/>
<path d="M357.432 49.7775V35.205C357.432 33.6048 358.314 32.7195 359.92 32.7195H363.289C364.891 32.7195 365.777 33.6006 365.777 35.205V49.7734C365.777 51.3736 364.895 52.2589 363.289 52.2589H359.92C358.314 52.2589 357.432 51.3778 357.432 49.7775ZM363.011 50.1599C363.368 50.1599 363.564 49.9687 363.564 49.6071V35.3713C363.564 35.0138 363.373 34.8185 363.011 34.8185H360.194C359.837 34.8185 359.641 35.0097 359.641 35.3713V49.6113C359.641 49.9687 359.832 50.1641 360.194 50.1641H363.011V50.1599Z" fill="#D5B881"/>
<path d="M373.049 48.6719C373.049 47.9528 373.24 47.3211 373.627 46.7142L378.598 39.2368C378.789 38.9625 378.902 38.6299 378.902 38.2725V35.3713C378.902 35.0138 378.71 34.8185 378.348 34.8185H375.919C375.561 34.8185 375.366 35.0097 375.366 35.3713V39.1786H373.157V35.205C373.157 33.6048 374.039 32.7195 375.644 32.7195H378.627C380.229 32.7195 381.115 33.6006 381.115 35.205V38.1561C381.115 38.8752 380.923 39.507 380.537 40.1138L375.565 47.5912C375.374 47.8656 375.262 48.1981 375.262 48.5555V50.0435H381.119V52.1425H373.053V48.6719H373.049Z" fill="#D5B881"/>
<path d="M388.336 45.7458H390.545V49.6071C390.545 49.9646 390.737 50.1599 391.099 50.1599H393.807C394.165 50.1599 394.36 49.9687 394.36 49.6071V43.9211C394.36 43.5636 394.169 43.3683 393.807 43.3683H390.991V41.2693H393.807C394.165 41.2693 394.36 41.0781 394.36 40.7165V35.3713C394.36 35.0138 394.169 34.8185 393.807 34.8185H391.099C390.741 34.8185 390.545 35.0097 390.545 35.3713V39.2617H388.336V35.205C388.336 33.6048 389.218 32.7195 390.824 32.7195H394.081C395.683 32.7195 396.569 33.6006 396.569 35.205V40.2011C396.569 41.2236 396.153 41.9385 395.051 42.325C396.157 42.7116 396.569 43.4306 396.569 44.449V49.7734C396.569 51.3736 395.687 52.2589 394.081 52.2589H390.824C389.223 52.2589 388.336 51.3778 388.336 49.7734V45.7458Z" fill="#D5B881"/>
<path d="M121.475 32.6615H125.318L127.91 50.0937L130.473 32.6615H134.346V53.0323H132.016V36.3566L129.395 53.0281H126.425L123.804 36.3566V53.0281H121.475V32.6615Z" fill="#D5B881"/>
<path d="M138.568 50.53V35.1637C138.568 33.4761 139.5 32.5451 141.189 32.5451H144.625C146.314 32.5451 147.246 33.4761 147.246 35.1637V50.5259C147.246 52.2134 146.314 53.1444 144.625 53.1444H141.189C139.5 53.1486 138.568 52.2176 138.568 50.53ZM144.334 50.9374C144.712 50.9374 144.916 50.7337 144.916 50.3555V35.3382C144.916 34.96 144.712 34.7563 144.334 34.7563H141.48C141.101 34.7563 140.898 34.96 140.898 35.3382V50.3513C140.898 50.7295 141.101 50.9332 141.48 50.9332H144.334V50.9374Z" fill="#D5B881"/>
<path d="M151.352 50.53V45.4675H153.681V50.3555C153.681 50.7337 153.885 50.9374 154.264 50.9374H157.059C157.438 50.9374 157.642 50.7337 157.642 50.3555V45.8457C157.642 45.5548 157.554 45.3511 157.292 45.1474L152.517 41.6851C151.76 41.1323 151.439 40.4922 151.439 39.5612V35.1637C151.439 33.4761 152.371 32.5451 154.06 32.5451H157.263C158.952 32.5451 159.884 33.4761 159.884 35.1637V39.9353H157.554V35.3382C157.554 34.96 157.351 34.7563 156.972 34.7563H154.351C153.973 34.7563 153.769 34.96 153.769 35.3382V39.3243C153.769 39.6152 153.856 39.8189 154.118 40.0225L158.894 43.4558C159.651 44.0086 159.971 44.6487 159.971 45.5797V50.5259C159.971 52.2134 159.039 53.1444 157.351 53.1444H153.973C152.284 53.1444 151.352 52.2176 151.352 50.53Z" fill="#D5B881"/>
<path d="M163.661 32.6615H171.989V34.8728H168.99V53.0281H166.66V34.8728H163.661V32.6615Z" fill="#D5B881"/>
<path d="M85.7323 88.7738C85.7323 87.9425 85.8904 87.1112 86.2024 86.2841C86.5144 85.4569 86.972 84.7171 87.571 84.0687C88.17 83.4203 88.9022 82.8882 89.7591 82.4851C90.6203 82.0819 91.5979 81.8782 92.6919 81.8782C93.994 81.8782 95.1255 82.1567 96.0823 82.7178C97.0391 83.279 97.7546 84.0063 98.2247 84.9041L95.762 86.6249C95.6039 86.2591 95.4084 85.9599 95.1671 85.7188C94.9258 85.4777 94.6637 85.2824 94.3767 85.1327C94.0897 84.9831 93.7985 84.8792 93.4948 84.821C93.1953 84.7628 92.8999 84.7337 92.617 84.7337C92.0055 84.7337 91.4689 84.8584 91.0155 85.1036C90.5579 85.353 90.1793 85.6689 89.8798 86.0596C89.5803 86.4503 89.3598 86.8909 89.2142 87.3897C89.0728 87.8843 88.9979 88.3872 88.9979 88.8943C88.9979 89.443 89.0811 89.9667 89.2516 90.4779C89.4222 90.985 89.6676 91.4339 89.9838 91.8246C90.3041 92.2153 90.6868 92.5229 91.1361 92.7515C91.5854 92.9801 92.0887 93.0923 92.6503 93.0923C92.9374 93.0923 93.2327 93.0549 93.5406 92.9843C93.8484 92.9136 94.1396 92.8014 94.4183 92.6517C94.697 92.5021 94.9549 92.3067 95.1921 92.0657C95.425 91.8246 95.6164 91.5295 95.7578 91.1762L98.3786 92.7182C98.1706 93.2253 97.8586 93.6825 97.4509 94.0857C97.0391 94.4889 96.569 94.8297 96.0324 95.0999C95.4957 95.3742 94.93 95.582 94.3309 95.7233C93.7319 95.8647 93.1454 95.9395 92.5713 95.9395C91.5687 95.9395 90.6452 95.7358 89.8049 95.3243C88.9646 94.9128 88.2408 94.3725 87.6334 93.695C87.0261 93.0175 86.5601 92.2486 86.2273 91.3882C85.8987 90.5319 85.7323 89.6633 85.7323 88.7738Z" fill="#D5B881"/>
<path d="M106.578 95.9432C105.547 95.9432 104.611 95.7395 103.762 95.3363C102.913 94.9332 102.19 94.4011 101.59 93.7444C100.991 93.0877 100.526 92.3354 100.193 91.4875C99.8599 90.6396 99.6935 89.7667 99.6935 88.8689C99.6935 87.9711 99.8683 87.0775 100.214 86.2337C100.559 85.3858 101.041 84.6418 101.661 83.9976C102.281 83.3533 103.013 82.8379 103.862 82.4555C104.71 82.0731 105.634 81.8778 106.637 81.8778C107.639 81.8778 108.604 82.0814 109.453 82.4846C110.301 82.8878 111.025 83.424 111.624 84.0848C112.223 84.7499 112.685 85.5063 113.014 86.3501C113.338 87.198 113.5 88.0542 113.5 88.9271C113.5 89.8 113.326 90.7185 112.98 91.5623C112.635 92.4102 112.157 93.1542 111.545 93.7985C110.934 94.4427 110.202 94.9623 109.357 95.353C108.509 95.7478 107.581 95.9432 106.578 95.9432ZM102.963 88.9105C102.963 89.4467 103.042 89.9621 103.196 90.465C103.35 90.9679 103.583 91.4127 103.891 91.8034C104.199 92.1941 104.577 92.5058 105.035 92.7427C105.493 92.9755 106.013 93.096 106.599 93.096C107.186 93.096 107.747 92.9713 108.201 92.7261C108.658 92.4809 109.033 92.1567 109.336 91.7576C109.636 91.3586 109.861 90.9097 110.01 90.411C110.16 89.908 110.235 89.3968 110.235 88.8772C110.235 88.3577 110.156 87.8256 110.002 87.3227C109.844 86.8198 109.611 86.3792 109.299 85.9927C108.987 85.6103 108.604 85.3027 108.155 85.0741C107.706 84.8455 107.186 84.7333 106.599 84.7333C106.013 84.7333 105.455 84.8538 105.006 85.0949C104.557 85.3359 104.178 85.6518 103.87 86.0425C103.562 86.4332 103.334 86.878 103.184 87.3809C103.038 87.8797 102.963 88.3909 102.963 88.9105Z" fill="#D5B881"/>
<path d="M127.153 95.8269V87.5223L124.141 93.5575H122.419L119.407 87.5223V95.8269H116.2V81.9568H119.682L123.28 89.2057L126.899 81.9568H130.36V95.8269H127.153Z" fill="#D5B881"/>
<path d="M133.897 95.8269V81.9568H139.82C140.486 81.9568 141.093 82.094 141.647 82.3683C142.2 82.6427 142.678 83.0001 143.073 83.4407C143.473 83.8854 143.785 84.3842 144.014 84.9453C144.242 85.5065 144.355 86.0717 144.355 86.6453C144.355 87.2563 144.247 87.8424 144.03 88.4035C143.814 88.9646 143.514 89.4634 143.132 89.9081C142.749 90.3529 142.283 90.702 141.734 90.9639C141.185 91.2257 140.582 91.3546 139.916 91.3546H137.1V95.8269H133.897ZM137.104 88.5614H139.725C140.103 88.5614 140.428 88.3993 140.702 88.0751C140.977 87.7509 141.114 87.2729 141.114 86.6495C141.114 86.3253 141.073 86.0426 140.985 85.8099C140.902 85.5771 140.786 85.3818 140.644 85.2238C140.498 85.0659 140.336 84.9536 140.157 84.883C139.974 84.8123 139.791 84.7749 139.608 84.7749H137.104V88.5614Z" fill="#D5B881"/>
<path d="M149.621 81.9568H152.516L157.579 95.8269H154.292L153.219 92.722H148.897L147.84 95.8269H144.554L149.621 81.9568ZM152.691 90.515L151.069 85.6104L149.405 90.515H152.691Z" fill="#D5B881"/>
<path d="M162.787 87.8964V95.8269H159.58V81.9568H162.084L168.557 90.1035V81.9568H171.764V95.8269H169.185L162.787 87.8964Z" fill="#D5B881"/>
<path d="M175.301 95.8269V81.9568H178.508V95.8269H175.301Z" fill="#D5B881"/>
<path d="M191.799 93.013V95.8269H182.043V81.9568H191.624V84.7708H185.251V87.4683H190.725V90.0661H185.251V93.0171H191.799V93.013Z" fill="#D5B881"/>
<path d="M203.039 86.0217C203.002 85.9719 202.865 85.8721 202.628 85.7308C202.395 85.5895 202.099 85.4357 201.746 85.2819C201.392 85.1239 201.009 84.9868 200.593 84.8704C200.177 84.754 199.761 84.6958 199.341 84.6958C198.193 84.6958 197.619 85.0782 197.619 85.8472C197.619 86.0799 197.681 86.2753 197.806 86.4332C197.931 86.5912 198.114 86.7283 198.355 86.853C198.597 86.9777 198.9 87.0899 199.266 87.1938C199.632 87.2978 200.053 87.4141 200.535 87.5471C201.201 87.73 201.8 87.9295 202.332 88.1415C202.865 88.3577 203.318 88.6237 203.692 88.9437C204.063 89.2638 204.35 89.6503 204.554 90.1075C204.757 90.5647 204.857 91.1092 204.857 91.7493C204.857 92.5307 204.712 93.1916 204.416 93.7319C204.121 94.2723 203.734 94.7087 203.252 95.0412C202.769 95.3737 202.216 95.6148 201.588 95.7644C200.964 95.9141 200.315 95.9889 199.653 95.9889C199.146 95.9889 198.621 95.9515 198.089 95.8725C197.552 95.7935 197.032 95.6813 196.525 95.5317C196.017 95.382 195.522 95.2033 195.048 94.9955C194.574 94.7877 194.133 94.5466 193.729 94.2723L195.135 91.4791C195.185 91.5456 195.356 91.6703 195.643 91.8491C195.93 92.0319 196.284 92.2148 196.708 92.3977C197.132 92.5806 197.602 92.7427 198.126 92.884C198.646 93.0295 199.175 93.1002 199.711 93.1002C200.847 93.1002 201.413 92.7552 201.413 92.0652C201.413 91.8033 201.33 91.5914 201.159 91.421C200.989 91.2505 200.756 91.0968 200.456 90.9637C200.157 90.8307 199.803 90.7019 199.391 90.5813C198.979 90.465 198.534 90.3361 198.052 90.1906C197.411 89.9953 196.858 89.7833 196.388 89.5547C195.918 89.3261 195.531 89.0642 195.223 88.765C194.915 88.4657 194.686 88.1207 194.541 87.73C194.391 87.3393 194.316 86.8821 194.316 86.3626C194.316 85.6352 194.453 84.9868 194.728 84.4298C195.002 83.8687 195.373 83.399 195.843 83.0125C196.313 82.6259 196.858 82.3391 197.473 82.1438C198.093 81.9484 198.746 81.8487 199.437 81.8487C199.919 81.8487 200.394 81.8944 200.864 81.9858C201.334 82.0773 201.783 82.1937 202.212 82.3391C202.64 82.4846 203.044 82.6467 203.414 82.8296C203.784 83.0125 204.125 83.1954 204.441 83.3782L203.039 86.0217Z" fill="#D5B881"/>
<path d="M78.2609 63.3902H74.0386V74.4464H70.8312V63.3902H66.5881V60.5763H78.2609V63.3902Z" fill="#D5B881"/>
<path d="M80.3405 74.4464V60.5763H86.5971C87.2502 60.5763 87.8493 60.7135 88.4067 60.9878C88.96 61.2621 89.4384 61.6196 89.8419 62.0602C90.2454 62.5049 90.5615 63.0037 90.7903 63.5648C91.0191 64.1259 91.1315 64.6912 91.1315 65.2648C91.1315 65.6929 91.0815 66.1085 90.9734 66.5034C90.8694 66.9024 90.7196 67.2765 90.5241 67.6256C90.3286 67.9789 90.0915 68.2948 89.8128 68.5733C89.534 68.8518 89.2179 69.0929 88.8643 69.2841L91.9135 74.4422H88.2985L85.6403 69.9699H83.5478V74.4422H80.3405V74.4464ZM83.5478 67.1851H86.4806C86.8592 67.1851 87.1837 67.0063 87.4582 66.6489C87.7328 66.2914 87.87 65.8301 87.87 65.2731C87.87 64.7161 87.712 64.2465 87.4 63.9056C87.088 63.569 86.7469 63.3985 86.3849 63.3985H83.552V67.1851H83.5478Z" fill="#D5B881"/>
<path d="M100.046 71.7114C100.595 71.7114 101.057 71.5992 101.436 71.3706C101.814 71.142 102.118 70.8386 102.355 70.4603C102.588 70.0821 102.754 69.6498 102.854 69.1635C102.954 68.6731 103 68.1785 103 67.6672V60.5763H106.207V67.6672C106.207 68.6315 106.087 69.5293 105.845 70.3647C105.604 71.2002 105.234 71.9276 104.73 72.551C104.227 73.1745 103.591 73.6691 102.813 74.0266C102.039 74.384 101.115 74.5628 100.046 74.5628C98.9772 74.5628 97.9913 74.3757 97.2092 73.9975C96.4272 73.6192 95.7907 73.1163 95.304 72.4845C94.8173 71.8528 94.4553 71.1212 94.2307 70.2858C94.0019 69.4545 93.8896 68.5816 93.8896 67.6672V60.5763H97.0969V67.6672C97.0969 68.2034 97.1468 68.7105 97.255 69.1926C97.3632 69.6748 97.5296 70.1029 97.7625 70.4811C97.9955 70.8594 98.2992 71.1586 98.6735 71.3789C99.0396 71.6034 99.4972 71.7114 100.046 71.7114Z" fill="#D5B881"/>
<path d="M117.739 64.6412C117.702 64.5913 117.565 64.4916 117.327 64.3461C117.095 64.2048 116.799 64.051 116.446 63.8972C116.092 63.7393 115.709 63.6021 115.293 63.4857C114.877 63.3693 114.461 63.3112 114.041 63.3112C112.893 63.3112 112.319 63.6935 112.319 64.4625C112.319 64.6952 112.381 64.8906 112.506 65.0485C112.631 65.2065 112.814 65.3437 113.055 65.4683C113.296 65.593 113.6 65.7053 113.966 65.8092C114.332 65.9131 114.752 66.0295 115.235 66.1625C115.901 66.3454 116.5 66.5449 117.032 66.7568C117.565 66.973 118.018 67.239 118.392 67.559C118.763 67.8791 119.05 68.2656 119.254 68.7228C119.457 69.18 119.557 69.7245 119.557 70.3646C119.557 71.146 119.412 71.8069 119.116 72.3473C118.821 72.8876 118.434 73.324 117.951 73.6565C117.469 73.9891 116.916 74.2301 116.288 74.3798C115.664 74.5294 115.015 74.6042 114.353 74.6042C113.846 74.6042 113.321 74.5668 112.789 74.4878C112.252 74.4089 111.732 74.2966 111.225 74.147C110.717 73.9974 110.222 73.8186 109.748 73.6108C109.274 73.403 108.833 73.1619 108.429 72.8876L109.835 70.0945C109.885 70.161 110.056 70.2815 110.343 70.4644C110.63 70.6473 110.984 70.8302 111.408 71.013C111.832 71.1959 112.302 71.358 112.826 71.4993C113.346 71.6407 113.875 71.7155 114.411 71.7155C115.547 71.7155 116.113 71.3705 116.113 70.6805C116.113 70.4187 116.03 70.2067 115.859 70.0363C115.688 69.8659 115.456 69.7121 115.156 69.5791C114.856 69.4461 114.503 69.3172 114.091 69.1967C113.679 69.0803 113.234 68.9514 112.752 68.806C112.111 68.6106 111.558 68.3986 111.088 68.17C110.617 67.9414 110.231 67.6796 109.923 67.3803C109.615 67.081 109.386 66.7361 109.241 66.3454C109.091 65.9546 109.016 65.4974 109.016 64.9779C109.016 64.2505 109.153 63.6021 109.428 63.0451C109.702 62.484 110.073 62.0143 110.543 61.6278C111.013 61.2454 111.558 60.9544 112.173 60.7591C112.793 60.5637 113.446 60.464 114.137 60.464C114.619 60.464 115.094 60.5097 115.564 60.6012C116.034 60.6926 116.483 60.809 116.911 60.9544C117.34 61.0999 117.743 61.262 118.114 61.4408C118.484 61.6236 118.825 61.8065 119.141 61.9894L117.739 64.6412Z" fill="#D5B881"/>
<path d="M132.735 63.3902H128.513V74.4464H125.306V63.3902H121.063V60.5763H132.735V63.3902Z" fill="#D5B881"/>
<path d="M140.195 60.5971H143.148L144.554 65.032L145.96 60.5971H148.93L146.605 67.0437L148.011 70.7762L151.493 60.5804H154.991L149.438 74.4505H146.759L144.55 69.018L142.362 74.4505H139.662L134.129 60.5804H137.611L141.11 70.7762L142.478 67.0437L140.195 60.5971Z" fill="#D5B881"/>
<path d="M162.355 74.5627C161.323 74.5627 160.387 74.359 159.538 73.9558C158.69 73.5526 157.966 73.0206 157.367 72.3639C156.768 71.7072 156.302 70.9549 155.969 70.107C155.636 69.259 155.47 68.3862 155.47 67.4884C155.47 66.5906 155.645 65.697 155.99 64.8491C156.335 64.0011 156.818 63.2571 157.438 62.6129C158.057 61.9686 158.789 61.4532 159.638 61.0708C160.487 60.6885 161.41 60.4931 162.413 60.4931C163.415 60.4931 164.38 60.6968 165.229 61.0999C166.078 61.5031 166.802 62.0393 167.401 62.7002C168 63.3652 168.461 64.1217 168.79 64.9654C169.115 65.8134 169.277 66.6737 169.277 67.5424C169.277 68.4111 169.102 69.3339 168.757 70.1776C168.412 71.0255 167.933 71.7695 167.322 72.4138C166.71 73.058 165.978 73.5776 165.133 73.9683C164.285 74.3673 163.357 74.5627 162.355 74.5627ZM158.735 67.53C158.735 68.0661 158.814 68.5815 158.968 69.0845C159.126 69.5874 159.355 70.0321 159.663 70.4228C159.971 70.8135 160.349 71.1253 160.807 71.3622C161.265 71.5991 161.785 71.7155 162.371 71.7155C162.958 71.7155 163.519 71.5908 163.973 71.3456C164.43 71.1003 164.805 70.7761 165.108 70.3771C165.408 69.9781 165.633 69.5292 165.782 69.0304C165.932 68.5275 166.007 68.0163 166.007 67.4967C166.007 66.9772 165.928 66.4451 165.774 65.9422C165.62 65.4393 165.383 64.9987 165.071 64.6121C164.759 64.2297 164.376 63.9222 163.927 63.6936C163.478 63.465 162.958 63.3527 162.371 63.3527C161.785 63.3527 161.227 63.4733 160.778 63.7143C160.329 63.9554 159.95 64.2713 159.642 64.662C159.334 65.0527 159.106 65.4975 158.956 66.0004C158.806 66.5033 158.735 67.0104 158.735 67.53Z" fill="#D5B881"/>
<path d="M171.981 74.4464V60.5763H178.237C178.891 60.5763 179.49 60.7135 180.047 60.9878C180.6 61.2621 181.079 61.6196 181.482 62.0602C181.886 62.5049 182.202 63.0037 182.431 63.5648C182.66 64.1259 182.772 64.6912 182.772 65.2648C182.772 65.6929 182.722 66.1085 182.614 66.5034C182.51 66.9024 182.36 67.2765 182.164 67.6256C181.969 67.9789 181.732 68.2948 181.453 68.5733C181.174 68.8518 180.858 69.0929 180.505 69.2841L183.554 74.4422H179.939L177.281 69.9699H175.188V74.4422H171.981V74.4464ZM175.188 67.1851H178.121C178.5 67.1851 178.824 67.0063 179.099 66.6489C179.373 66.2914 179.51 65.8301 179.51 65.2731C179.51 64.7161 179.352 64.2465 179.04 63.9056C178.728 63.569 178.387 63.3985 178.025 63.3985H175.192V67.1851H175.188Z" fill="#D5B881"/>
<path d="M196.213 63.3902H191.991V74.4464H188.783V63.3902H184.54V60.5763H196.213V63.3902Z" fill="#D5B881"/>
<path d="M210.24 60.5763V74.4464H207.033V68.7604H201.5V74.4464H198.293V60.5763H201.5V65.9506H207.033V60.5763H210.24Z" fill="#D5B881"/>
<path d="M215.69 60.5763L218.681 66.944L221.713 60.5763H225.212L220.265 69.7205V74.4464H217.079V69.6789L212.212 60.5763H215.69Z" fill="#D5B881"/>
<path d="M91.2696 103.242H93.5992V123.609H91.2696V103.242Z" fill="#D5B881"/>
<path d="M97.8006 103.242H100.13L104.498 113.542V103.242H106.828V123.609H104.498V118.895L100.13 108.596V123.609H97.8006V103.242Z" fill="#D5B881"/>
<path d="M119.786 103.242H123.571L126.629 123.609H124.299L123.63 118.954H119.728L119.058 123.609H116.728L119.786 103.242ZM123.309 116.742L121.679 105.453L120.048 116.742H123.309Z" fill="#D5B881"/>
<path d="M130.485 103.242H134.329L136.921 120.67L139.483 103.242H143.356V123.609H141.027V106.937L138.406 123.609H135.436L132.815 106.937V123.609H130.485V103.242Z" fill="#D5B881"/>
<path d="M147.612 103.242H154.659V105.453H149.941V112.145H154.484V114.356H149.941V121.398H154.775V123.609H147.612V103.242Z" fill="#D5B881"/>
<path d="M158.711 103.242H164.593C166.282 103.242 167.214 104.173 167.214 105.861V112.553C167.214 113.978 166.544 114.88 165.292 115.113L167.505 123.609H165.176L162.992 115.171H161.041V123.609H158.711V103.242ZM164.302 112.96C164.68 112.96 164.884 112.756 164.884 112.378V106.035C164.884 105.657 164.68 105.453 164.302 105.453H161.041V112.96H164.302Z" fill="#D5B881"/>
<path d="M171.503 103.242H173.833V123.609H171.503V103.242Z" fill="#D5B881"/>
<path d="M178.001 121.111V105.748C178.001 104.061 178.933 103.13 180.622 103.13H184C185.688 103.13 186.62 104.061 186.62 105.748V110.811H184.291V105.923C184.291 105.545 184.087 105.341 183.708 105.341H180.913C180.534 105.341 180.33 105.545 180.33 105.923V120.936C180.33 121.314 180.534 121.518 180.913 121.518H183.708C184.087 121.518 184.291 121.314 184.291 120.936V116.048H186.62V121.111C186.62 122.798 185.688 123.729 184 123.729H180.622C178.933 123.729 178.001 122.798 178.001 121.111Z" fill="#D5B881"/>
<path d="M193.314 103.242H197.099L200.157 123.609H197.827L197.157 118.954H193.255L192.586 123.609H190.256L193.314 103.242ZM196.837 116.742L195.206 105.453L193.576 116.742H196.837Z" fill="#D5B881"/>
<path d="M399.797 106.746H379.929V68.3902H399.797L393.982 87.568L399.797 106.746Z" fill="url(#paint7_linear_14333_54216)"/>
<path d="M386.673 100.399L379.929 106.746V68.3902L386.673 62.0433V100.399Z" fill="#390907"/>
<path d="M232.022 106.746H251.89V68.3902H232.022L237.837 87.568L232.022 106.746Z" fill="url(#paint8_linear_14333_54216)"/>
<path d="M245.147 100.399L251.89 106.746V68.3902L245.147 62.0433V100.399Z" fill="#390907"/>
<path d="M387.417 62.0433H245.147V100.399H387.417V62.0433Z" fill="#E5231B"/>
<path d="M278.713 82.3101H282.802C282.802 80.5519 281.658 79.8536 280.801 79.8536C279.811 79.8536 278.78 80.6683 278.713 82.3101ZM339.482 82.281H343.571C343.571 80.5228 342.427 79.8245 341.57 79.8245C340.58 79.8245 339.548 80.6392 339.482 82.281ZM351.82 82.256H355.91C355.91 80.4978 354.766 79.7996 353.909 79.7996C352.923 79.7996 351.891 80.6101 351.82 82.256ZM373.935 88.977C373.935 88.977 373.968 88.9354 373.968 88.9063C373.968 88.8772 373.956 88.8565 373.935 88.8357C373.914 88.819 373.877 88.8107 373.822 88.8107H373.735V89.0019H373.818C373.872 89.0019 373.91 88.9978 373.935 88.977ZM373.956 89.11C373.985 89.1225 374.01 89.1349 374.022 89.1474C374.043 89.164 374.06 89.1931 374.085 89.2264C374.085 89.2264 374.126 89.3054 374.209 89.4508H373.981C373.91 89.3012 373.856 89.2139 373.835 89.1848C373.81 89.1557 373.785 89.1432 373.76 89.1432C373.752 89.1432 373.743 89.1432 373.735 89.1432V89.4467H373.552V88.6736H373.889C373.985 88.6736 374.047 88.6944 374.089 88.7318C374.134 88.7692 374.155 88.8232 374.155 88.8897C374.155 88.9437 374.139 88.9853 374.105 89.0227C374.068 89.0643 374.03 89.0892 373.956 89.1058M374.263 89.4716C374.376 89.3594 374.434 89.2222 374.434 89.0601C374.434 88.898 374.376 88.7609 374.263 88.6486C374.151 88.5364 374.014 88.4782 373.852 88.4782C373.689 88.4782 373.552 88.5364 373.44 88.6486C373.327 88.7609 373.269 88.898 373.269 89.0601C373.269 89.2222 373.327 89.3594 373.44 89.4716C373.556 89.5838 373.689 89.642 373.852 89.642C374.014 89.642 374.151 89.5838 374.263 89.4716ZM374.575 89.0601C374.575 89.189 374.542 89.3095 374.48 89.4217C374.413 89.534 374.326 89.6212 374.213 89.6877C374.101 89.7542 373.98 89.7833 373.852 89.7833C373.723 89.7833 373.602 89.7501 373.49 89.6877C373.377 89.6212 373.29 89.534 373.223 89.4217C373.161 89.3095 373.128 89.189 373.128 89.0601C373.128 88.9313 373.161 88.8107 373.223 88.6985C373.29 88.5863 373.377 88.499 373.49 88.4367C373.602 88.3702 373.723 88.3411 373.852 88.3411C373.98 88.3411 374.101 88.3743 374.213 88.4367C374.322 88.499 374.413 88.5863 374.48 88.6985C374.542 88.8107 374.575 88.9313 374.575 89.0601ZM372.895 89.7501H369.13L365.224 84.646L363.947 85.5936V86.5829H365.062V89.7501H359.283V86.5953H360.382V75.4935H358.738V72.3803H363.951V82.3682L366.563 80.4604H364.92V77.2766H371.959V80.4604H370.865L368.115 82.5013L371.256 86.5912H372.899V89.7501H372.895ZM359.321 83.4988C359.321 83.7523 359.321 84.0059 359.3 84.2844H351.816C351.625 86.6868 352.519 87.4142 353.905 87.4142C355.061 87.4142 355.922 86.6618 355.922 85.4648H359.146C359.075 87.568 357.956 89.9995 353.701 89.9995C349.445 89.9995 347.427 86.9237 347.427 83.478C347.427 80.4022 349.487 77.1145 353.63 77.1145C357.773 77.1145 359.321 79.8661 359.321 83.4988ZM346.978 83.5279C346.978 83.7814 346.978 84.035 346.957 84.3135H339.474C339.282 86.7159 340.177 87.4433 341.562 87.4433C342.718 87.4433 343.579 86.6909 343.579 85.4939H346.803C346.733 87.6012 345.614 90.0286 341.358 90.0286C337.102 90.0286 335.085 86.9528 335.085 83.5071C335.085 80.4313 337.144 77.1478 341.291 77.1478C345.243 77.1478 346.978 79.8952 346.978 83.5279ZM335.43 80.4397H334.332L331.557 89.775H327.871L326.124 84.6626L324.581 89.775H320.82L317.704 80.4397H316.606V77.2766H323.125V80.4397H321.482L323.179 85.4108L325.413 77.2766H327.418L330.164 85.4108L331.624 80.4397H329.981V77.2766H335.43V80.4397ZM309.418 80.5685C309.418 81.0091 309.767 81.3084 310.99 81.7032L312.75 82.281C314.368 82.813 316.315 84.0142 316.315 86.213C316.315 88.8024 314.372 90.0535 311.985 90.0535C310.088 90.0535 308.586 89.1266 308.195 88.711V89.775H305.004V85.4482H308.12C308.211 86.8614 309.464 87.6012 310.62 87.6012C311.544 87.6012 311.985 87.2105 311.985 86.7242C311.985 86.1465 311.639 85.8222 310.063 85.3152L308.511 84.8039C306.938 84.2968 305.154 83.1413 305.154 81.034C305.154 78.4653 307.421 77.1727 309.368 77.1727C311.315 77.1727 312.342 77.7338 312.829 78.2866L312.837 77.314H316.028V81.2252H312.746C312.7 80.1612 311.66 79.6957 310.616 79.6957C309.809 79.6915 309.418 80.0614 309.418 80.5685ZM304.838 80.4397H303.744L300.965 89.775H297.279L295.536 84.6626L293.993 89.775H290.232L287.116 80.4397H286.022V77.2766H292.537V80.4397H290.893L292.591 85.4108L294.825 77.2766H296.83L299.575 85.4108L301.035 80.4397H299.392V77.2766H304.842V80.4397H304.838ZM286.214 83.5528C286.214 83.8064 286.214 84.0599 286.193 84.3384H278.709C278.518 86.7408 279.412 87.4682 280.797 87.4682C281.954 87.4682 282.815 86.7159 282.815 85.5188H286.043C285.972 87.622 284.853 90.0535 280.598 90.0535C276.342 90.0535 274.324 86.9777 274.324 83.5321C274.324 80.4563 276.384 77.1685 280.527 77.1685C284.67 77.1685 286.214 79.9243 286.214 83.5528ZM275.281 75.5517H273.638V89.775H270.605L263.196 80.0822V86.6037H264.84V89.775H257.988V86.6078H259.631V75.5517H257.988V72.3845H263.188L270.069 81.404V75.5517H268.426V72.3845H275.277V75.5517H275.281Z" fill="white"/>
<defs>
<linearGradient id="paint0_linear_14333_54216" x1="0.30748" y1="1.69168" x2="429.285" y2="157.958" gradientUnits="userSpaceOnUse">
<stop offset="0.2" stop-color="#192C47"/>
<stop offset="0.5" stop-color="#004267"/>
<stop offset="0.8" stop-color="#192C47"/>
</linearGradient>
<linearGradient id="paint1_linear_14333_54216" x1="132.033" y1="223.014" x2="297.439" y2="-63.7149" gradientUnits="userSpaceOnUse">
<stop stop-color="#D5B881"/>
<stop offset="0.14" stop-color="#E1CDA6"/>
<stop offset="0.34" stop-color="#F2EAD9"/>
<stop offset="0.39" stop-color="#EDE1C9"/>
<stop offset="0.52" stop-color="#E0CBA2"/>
<stop offset="0.62" stop-color="#D8BD8A"/>
<stop offset="0.68" stop-color="#D5B881"/>
<stop offset="1" stop-color="#E2CDA7"/>
</linearGradient>
<linearGradient id="paint2_linear_14333_54216" x1="17.6881" y1="107.634" x2="80.3074" y2="48.9861" gradientUnits="userSpaceOnUse">
<stop stop-color="#D5B881"/>
<stop offset="0.14" stop-color="#E1CDA6"/>
<stop offset="0.34" stop-color="#F2EAD9"/>
<stop offset="0.39" stop-color="#EDE1C9"/>
<stop offset="0.52" stop-color="#E0CBA2"/>
<stop offset="0.62" stop-color="#D8BD8A"/>
<stop offset="0.68" stop-color="#D5B881"/>
<stop offset="1" stop-color="#E2CDA7"/>
</linearGradient>
<linearGradient id="paint3_linear_14333_54216" x1="32.2123" y1="117.872" x2="95.717" y2="60.1769" gradientUnits="userSpaceOnUse">
<stop stop-color="#D5B881"/>
<stop offset="0.14" stop-color="#E1CDA6"/>
<stop offset="0.34" stop-color="#F2EAD9"/>
<stop offset="0.39" stop-color="#EDE1C9"/>
<stop offset="0.52" stop-color="#E0CBA2"/>
<stop offset="0.62" stop-color="#D8BD8A"/>
<stop offset="0.68" stop-color="#D5B881"/>
<stop offset="1" stop-color="#E2CDA7"/>
</linearGradient>
<linearGradient id="paint4_linear_14333_54216" x1="45.6127" y1="126.518" x2="108.345" y2="67.99" gradientUnits="userSpaceOnUse">
<stop stop-color="#D5B881"/>
<stop offset="0.14" stop-color="#E1CDA6"/>
<stop offset="0.34" stop-color="#F2EAD9"/>
<stop offset="0.39" stop-color="#EDE1C9"/>
<stop offset="0.52" stop-color="#E0CBA2"/>
<stop offset="0.62" stop-color="#D8BD8A"/>
<stop offset="0.68" stop-color="#D5B881"/>
<stop offset="1" stop-color="#E2CDA7"/>
</linearGradient>
<linearGradient id="paint5_linear_14333_54216" x1="3.56101" y1="99.3686" x2="66.0276" y2="40.5528" gradientUnits="userSpaceOnUse">
<stop stop-color="#D5B881"/>
<stop offset="0.14" stop-color="#E1CDA6"/>
<stop offset="0.34" stop-color="#F2EAD9"/>
<stop offset="0.39" stop-color="#EDE1C9"/>
<stop offset="0.52" stop-color="#E0CBA2"/>
<stop offset="0.62" stop-color="#D8BD8A"/>
<stop offset="0.68" stop-color="#D5B881"/>
<stop offset="1" stop-color="#E2CDA7"/>
</linearGradient>
<linearGradient id="paint6_linear_14333_54216" x1="-7.38113" y1="92.7942" x2="54.247" y2="33.1018" gradientUnits="userSpaceOnUse">
<stop stop-color="#D5B881"/>
<stop offset="0.14" stop-color="#E1CDA6"/>
<stop offset="0.34" stop-color="#F2EAD9"/>
<stop offset="0.39" stop-color="#EDE1C9"/>
<stop offset="0.52" stop-color="#E0CBA2"/>
<stop offset="0.62" stop-color="#D8BD8A"/>
<stop offset="0.68" stop-color="#D5B881"/>
<stop offset="1" stop-color="#E2CDA7"/>
</linearGradient>
<linearGradient id="paint7_linear_14333_54216" x1="379.929" y1="87.568" x2="399.797" y2="87.568" gradientUnits="userSpaceOnUse">
<stop stop-color="#650F0C"/>
<stop offset="0.13" stop-color="#6E100D"/>
<stop offset="0.33" stop-color="#861410"/>
<stop offset="0.59" stop-color="#AE1A15"/>
<stop offset="0.9" stop-color="#E5231B"/>
</linearGradient>
<linearGradient id="paint8_linear_14333_54216" x1="251.89" y1="160.439" x2="232.022" y2="160.439" gradientUnits="userSpaceOnUse">
<stop stop-color="#650F0C"/>
<stop offset="0.13" stop-color="#6E100D"/>
<stop offset="0.33" stop-color="#861410"/>
<stop offset="0.59" stop-color="#AE1A15"/>
<stop offset="0.9" stop-color="#E5231B"/>
</linearGradient>
</defs>
</svg>
