<svg width="46" height="45" viewBox="0 0 46 45" fill="none" xmlns="http://www.w3.org/2000/svg">
<path d="M8 7.5H38C39.4918 7.5 40.9226 8.09263 41.9775 9.14752C43.0324 10.2024 43.625 11.6332 43.625 13.125V26.1875C43.625 26.7398 43.1773 27.1875 42.625 27.1875H40.875C40.3227 27.1875 39.875 26.7398 39.875 26.1875V13.125C39.875 12.6277 39.6775 12.1508 39.3258 11.7992C38.9742 11.4475 38.4973 11.25 38 11.25H8C7.50272 11.25 7.02581 11.4475 6.67417 11.7992C6.32254 12.1508 6.125 12.6277 6.125 13.125V31.875C6.125 32.3723 6.32254 32.8492 6.67417 33.2008C7.02581 33.5525 7.50272 33.75 8 33.75H24.8125C25.3648 33.75 25.8125 34.1977 25.8125 34.75V36.5C25.8125 37.0523 25.3648 37.5 24.8125 37.5H8C6.50816 37.5 5.07742 36.9074 4.02252 35.8525C2.96763 34.7976 2.375 33.3668 2.375 31.875V13.125C2.375 11.6332 2.96763 10.2024 4.02252 9.14752C5.07742 8.09263 6.50816 7.5 8 7.5Z" fill="#49D600"/>
<path fill-rule="evenodd" clip-rule="evenodd" d="M19.2016 16.0341C20.1159 15.0837 21.4264 14.5391 22.9997 14.5391C25.2864 14.5391 26.7084 15.608 27.4411 16.8898C27.7724 17.4692 27.9297 18.0311 28.0069 18.4361C28.0462 18.6424 28.0668 18.8193 28.0778 18.9531C28.0833 19.0203 28.0864 19.0777 28.0881 19.1236C28.089 19.1465 28.0895 19.1667 28.0899 19.1839L28.0902 19.2075L28.0903 19.2176L28.0903 19.2222L28.0903 19.2244C28.0903 19.2255 28.0903 19.2266 26.2153 19.2266H28.0903C28.0903 20.2621 27.2508 21.1016 26.2153 21.1016C25.1922 21.1016 24.3605 20.2822 24.3406 19.2638C24.3405 19.2623 24.3404 19.2605 24.3402 19.2583C24.3386 19.2384 24.3341 19.1955 24.3232 19.1381C24.2999 19.0158 24.2562 18.8745 24.1855 18.7509C24.1214 18.6387 24.0393 18.5462 23.9142 18.4733C23.7899 18.4008 23.5228 18.2891 22.9997 18.2891C22.3236 18.2891 22.0307 18.5023 21.904 18.634C21.748 18.7961 21.6679 19.0202 21.6679 19.2266V19.2266C21.6679 19.5307 21.74 19.9392 21.9162 20.2117C21.9887 20.3239 22.0743 20.4075 22.1941 20.4714C22.3162 20.5364 22.5568 20.625 22.9997 20.625C24.9317 20.625 26.3673 21.3721 27.2197 22.6441C27.9804 23.7791 28.0903 25.0658 28.0903 25.848C28.0903 26.8557 27.7491 28.0338 26.8794 28.9796C25.9711 29.9675 24.6401 30.5355 22.9997 30.5355C20.7148 30.5355 19.2953 29.4641 18.5649 28.1828C18.2347 27.6036 18.0779 27.0421 18.001 26.6374C17.9618 26.4314 17.9412 26.2547 17.9304 26.121C17.9249 26.0538 17.9218 25.9966 17.92 25.9507C17.9192 25.9278 17.9186 25.9077 17.9183 25.8905L17.918 25.867L17.9179 25.8569L17.9179 25.8523L17.9179 25.8501C17.9179 25.849 17.9179 25.848 19.7929 25.848H17.9179C17.9179 24.8124 18.7574 23.973 19.7929 23.973C20.8161 23.973 21.6478 24.7925 21.6675 25.8109C21.6677 25.8125 21.6678 25.8144 21.668 25.8166C21.6696 25.8367 21.6741 25.8798 21.685 25.9374C21.7084 26.06 21.752 26.2017 21.8226 26.3256C21.8868 26.4381 21.9685 26.5301 22.0922 26.6024C22.215 26.6742 22.4796 26.7855 22.9997 26.7855C23.7371 26.7855 24.014 26.5556 24.119 26.4414C24.2626 26.2853 24.3403 26.0571 24.3403 25.848C24.3403 25.3339 24.2486 24.9466 24.1046 24.7317C24.0499 24.6502 23.9815 24.5824 23.8627 24.5241C23.7343 24.4611 23.475 24.375 22.9997 24.375C20.982 24.375 19.5759 23.4988 18.767 22.2477C18.0429 21.1277 17.9179 19.8995 17.9179 19.2266M19.2016 16.0341C18.3165 16.9541 17.9179 18.1363 17.9179 19.2265L19.2016 16.0341Z" fill="#49D600"/>
<path fill-rule="evenodd" clip-rule="evenodd" d="M23 12.4007C24.0355 12.4007 24.875 13.2401 24.875 14.2757L24.875 16.4141C24.875 17.4496 24.0356 18.2891 23 18.2891C21.9645 18.2891 21.125 17.4496 21.125 16.4141L21.125 14.2757C21.125 13.2402 21.9645 12.4007 23 12.4007Z" fill="#49D600"/>
<path fill-rule="evenodd" clip-rule="evenodd" d="M23 26.7855C24.0355 26.7855 24.875 27.6249 24.875 28.6605V30.8105C24.875 31.846 24.0355 32.6855 23 32.6855C21.9645 32.6855 21.125 31.846 21.125 30.8105V28.6605C21.125 27.6249 21.9645 26.7855 23 26.7855Z" fill="#49D600"/>
<ellipse cx="34.2476" cy="22.4976" rx="1.87258" ry="1.87258" fill="#49D600"/>
<ellipse cx="11.7476" cy="22.4976" rx="1.87258" ry="1.87258" fill="#49D600"/>
<path fill-rule="evenodd" clip-rule="evenodd" d="M28.625 33.75C28.625 32.7145 29.4645 31.875 30.5 31.875L39.875 31.875C40.9105 31.875 41.75 32.7145 41.75 33.75C41.75 34.7855 40.9105 35.625 39.875 35.625L30.5 35.625C29.4645 35.625 28.625 34.7855 28.625 33.75Z" fill="#49D600"/>
<path fill-rule="evenodd" clip-rule="evenodd" d="M42.2995 35.0758C41.5672 35.808 40.38 35.808 39.6478 35.0758L34.7995 30.2274C34.0672 29.4952 34.0672 28.308 34.7995 27.5758C35.5317 26.8436 36.7189 26.8436 37.4511 27.5758L42.2995 32.4241C43.0317 33.1564 43.0317 34.3436 42.2995 35.0758Z" fill="#49D600"/>
<path fill-rule="evenodd" clip-rule="evenodd" d="M42.3138 32.4977C43.0461 33.2299 43.0461 34.4171 42.3138 35.1493L37.4655 39.9977C36.7332 40.7299 35.5461 40.7299 34.8138 39.9977C34.0816 39.2654 34.0816 38.0782 34.8138 37.346L39.6622 32.4977C40.3944 31.7654 41.5816 31.7654 42.3138 32.4977Z" fill="#49D600"/>
</svg>
