<svg width="57" height="56" viewBox="0 0 57 56" fill="none" xmlns="http://www.w3.org/2000/svg">
<path fill-rule="evenodd" clip-rule="evenodd" d="M47.0677 10.7916C47.3514 9.5346 46.5367 8.51556 45.248 8.51556C43.9594 8.51556 42.6847 9.5346 42.401 10.7916L41.6683 14.0381C37.39 14.8905 33.2515 17.9337 32.3009 22.1456C31.1731 27.1428 35.2752 30.4948 40.2872 30.4948C43.5964 30.4948 45.0197 32.5843 44.6343 34.2918C44.2497 35.9958 41.8922 38.0802 38.5937 38.0888L38.5739 38.0887L38.5526 38.0888C35.2582 38.0801 33.8417 35.9957 34.2263 34.2918C34.51 33.0347 33.6953 32.0157 32.4066 32.0157C31.118 32.0157 29.8433 33.0347 29.5596 34.2918C28.609 38.5038 31.374 41.547 35.2677 42.3993L34.535 45.6457C34.2513 46.9028 35.066 47.9218 36.3546 47.9218C37.6433 47.9218 38.918 46.9028 39.2017 45.6457L39.9344 42.3991C44.2124 41.5465 48.3504 38.5035 49.301 34.2918C50.4288 29.2946 46.3267 25.9426 41.3146 25.9426C38.0055 25.9426 36.5822 23.8531 36.9676 22.1456C37.3525 20.4401 39.7138 18.3536 43.0168 18.3486L43.0288 18.3487L43.0407 18.3486C46.3412 18.3538 47.7605 20.4402 47.3756 22.1456C47.0919 23.4027 47.9066 24.4217 49.1952 24.4217C50.4839 24.4217 51.7586 23.4027 52.0423 22.1456C52.9928 17.9339 50.2282 14.8908 46.335 14.0383L47.0677 10.7916ZM18.9331 16.3333C17.6444 16.3333 16.5998 17.378 16.5998 18.6666C16.5998 19.9553 17.6444 21 18.9331 21L28.7046 21C29.9932 21 31.0379 19.9553 31.0379 18.6666C31.0379 17.378 29.9932 16.3333 28.7046 16.3333L18.9331 16.3333ZM10.8245 28C10.8245 26.7113 11.8692 25.6666 13.1579 25.6666L25.817 25.6666C27.1057 25.6666 28.1503 26.7113 28.1503 28C28.1503 29.2886 27.1057 30.3333 25.817 30.3333H13.1579C11.8692 30.3333 10.8245 29.2886 10.8245 28ZM7.38265 35C6.09399 35 5.04932 36.0447 5.04932 37.3333C5.04932 38.622 6.09399 39.6666 7.38265 39.6666H22.9294C24.2181 39.6666 25.2627 38.622 25.2627 37.3333C25.2627 36.0447 24.2181 35 22.9294 35H7.38265Z" fill="#49D600"/>
</svg>
