<svg width="78" height="64" viewBox="0 0 78 64" fill="none" xmlns="http://www.w3.org/2000/svg">
<path d="M38.77 27.1288L38.4348 31.5326H34.0855V46.2836H28.3613V31.5326H25.4639V27.1288H28.3613V23.8265V22.8728C28.3613 22.8728 28.1564 17.998 34.0855 17.7345C36.9674 17.6073 39.3675 18.2485 39.3675 18.2485L38.7583 22.5779C38.7583 22.5779 34.0863 21.1486 34.0863 23.9345V27.128L38.77 27.1288Z" fill="#91FF50"/>
<path d="M32.4148 64C14.5422 64 0 49.6442 0 31.9992C0 14.3542 14.5422 0 32.4148 0C50.289 0 64.8312 14.3542 64.8312 31.9992C64.8312 49.6442 50.289 64 32.4148 64ZM32.4148 4.39612C16.9966 4.39612 4.45321 16.7786 4.45321 31.9992C4.45321 47.2198 16.9966 59.6031 32.4148 59.6031C47.8346 59.6031 60.3772 47.2198 60.3772 31.9992C60.3772 16.7786 47.8346 4.39612 32.4148 4.39612Z" fill="#91FF50"/>
</svg>
