<svg width="78" height="64" viewBox="0 0 78 64" fill="none" xmlns="http://www.w3.org/2000/svg">
<path d="M45.443 21.7542C44.3637 22.3923 43.171 22.8565 41.9002 23.1085C40.8822 22.0254 39.4306 21.3467 37.8304 21.3467C34.7495 21.3467 32.2531 23.8431 32.2531 26.924C32.2531 27.3598 32.3006 27.7873 32.3971 28.1925C27.762 27.9619 23.6523 25.742 20.9001 22.367C20.419 23.1912 20.1455 24.1503 20.1455 25.1721C20.1455 27.1048 21.1299 28.8137 22.6274 29.8141C21.712 29.7858 20.8541 29.5338 20.1011 29.1155C20.0996 29.1385 20.0996 29.163 20.0996 29.1883C20.0996 31.8885 22.0215 34.1451 24.5754 34.6561C24.1058 34.7848 23.614 34.8545 23.1046 34.8545C22.7461 34.8545 22.3968 34.8177 22.0575 34.7534C22.7668 36.9687 24.8243 38.5811 27.2656 38.6263C25.3582 40.1223 22.9537 41.0139 20.3386 41.0139C19.8882 41.0139 19.4454 40.9887 19.0088 40.935C21.4776 42.5169 24.4099 43.4414 27.5597 43.4414C37.8197 43.4414 43.4291 34.941 43.4291 27.5713C43.4291 27.33 43.423 27.0887 43.413 26.8489C44.5023 26.0638 45.4476 25.081 46.1944 23.9626C45.1948 24.4054 44.1193 24.7041 42.991 24.8389C44.1423 24.1503 45.0263 23.0541 45.443 21.7542Z" fill="#91FF50"/>
<path d="M32 0C14.355 0 0 14.3542 0 31.9992C0 49.6442 14.355 64 32 64C49.645 64 64 49.6442 64 31.9992C64 14.3542 49.645 0 32 0ZM32 59.6031C16.7794 59.6031 4.39613 47.2198 4.39613 31.9992C4.39613 16.7786 16.7794 4.39612 32 4.39612C47.2206 4.39612 59.6039 16.7786 59.6039 31.9992C59.6039 47.2198 47.2206 59.6031 32 59.6031Z" fill="#91FF50"/>
</svg>
