<svg width="40" height="40" viewBox="0 0 40 40" fill="none" xmlns="http://www.w3.org/2000/svg">
<path d="M31.6667 5.00002H30V3.33335C30 2.89133 29.8244 2.4674 29.5119 2.15484C29.1993 1.84228 28.7754 1.66669 28.3333 1.66669C27.8913 1.66669 27.4674 1.84228 27.1548 2.15484C26.8423 2.4674 26.6667 2.89133 26.6667 3.33335V5.00002H13.3333V3.33335C13.3333 2.89133 13.1577 2.4674 12.8452 2.15484C12.5326 1.84228 12.1087 1.66669 11.6667 1.66669C11.2246 1.66669 10.8007 1.84228 10.4882 2.15484C10.1756 2.4674 10 2.89133 10 3.33335V5.00002H8.33334C7.00726 5.00002 5.73549 5.5268 4.79781 6.46449C3.86013 7.40217 3.33334 8.67394 3.33334 10V33.3334C3.33334 34.6594 3.86013 35.9312 4.79781 36.8689C5.73549 37.8066 7.00726 38.3334 8.33334 38.3334H31.6667C32.9928 38.3334 34.2645 37.8066 35.2022 36.8689C36.1399 35.9312 36.6667 34.6594 36.6667 33.3334V10C36.6667 8.67394 36.1399 7.40217 35.2022 6.46449C34.2645 5.5268 32.9928 5.00002 31.6667 5.00002ZM33.3333 33.3334C33.3333 33.7754 33.1578 34.1993 32.8452 34.5119C32.5326 34.8244 32.1087 35 31.6667 35H8.33334C7.89132 35 7.46739 34.8244 7.15483 34.5119C6.84227 34.1993 6.66668 33.7754 6.66668 33.3334V18.3334H33.3333V33.3334ZM33.3333 15H6.66668V10C6.66668 9.55799 6.84227 9.13407 7.15483 8.82151C7.46739 8.50895 7.89132 8.33335 8.33334 8.33335H10V10C10 10.442 10.1756 10.866 10.4882 11.1785C10.8007 11.4911 11.2246 11.6667 11.6667 11.6667C12.1087 11.6667 12.5326 11.4911 12.8452 11.1785C13.1577 10.866 13.3333 10.442 13.3333 10V8.33335H26.6667V10C26.6667 10.442 26.8423 10.866 27.1548 11.1785C27.4674 11.4911 27.8913 11.6667 28.3333 11.6667C28.7754 11.6667 29.1993 11.4911 29.5119 11.1785C29.8244 10.866 30 10.442 30 10V8.33335H31.6667C32.1087 8.33335 32.5326 8.50895 32.8452 8.82151C33.1578 9.13407 33.3333 9.55799 33.3333 10V15Z" fill="#49D600"/>
<ellipse cx="11.6667" cy="23.3334" rx="1.66667" ry="1.66667" fill="#49D600"/>
<ellipse cx="11.6667" cy="30" rx="1.66667" ry="1.66667" fill="#49D600"/>
<ellipse cx="20" cy="23.3334" rx="1.66667" ry="1.66667" fill="#49D600"/>
<circle cx="20" cy="30" r="1.66667" fill="#49D600"/>
<circle cx="28.3333" cy="23.3334" r="1.66667" fill="#49D600"/>
<ellipse cx="28.3333" cy="30" rx="1.66667" ry="1.66667" fill="#49D600"/>
</svg>
