<svg width="40" height="40" viewBox="0 0 40 40" fill="none" xmlns="http://www.w3.org/2000/svg">
<path fill-rule="evenodd" clip-rule="evenodd" d="M19.9999 3.32449C23.7506 3.32449 27.3477 4.81446 29.9999 7.46663C32.641 10.1078 34.1247 13.6899 34.1247 17.425C34.1247 21.1601 32.641 24.7422 29.9999 27.3833L21.1499 36.2666C20.9949 36.4228 20.8106 36.5468 20.6075 36.6314C20.4044 36.7161 20.1866 36.7596 19.9666 36.7596C19.7465 36.7596 19.5287 36.7161 19.3256 36.6314C19.1225 36.5468 18.9382 36.4228 18.7832 36.2666L9.99989 27.4666C7.34772 24.8145 5.85775 21.2174 5.85775 17.4666C5.85775 13.7159 7.34772 10.1188 9.99989 7.46663C12.6521 4.81446 16.2492 3.32449 19.9999 3.32449ZM19.9999 32.65L27.6166 25C29.1213 23.4938 30.1458 21.5754 30.5604 19.4871C30.975 17.3989 30.7612 15.2345 29.946 13.2678C29.1309 11.301 27.7509 9.62005 25.9805 8.43742C24.2101 7.2548 22.1289 6.6236 19.9999 6.6236C17.8709 6.6236 15.7896 7.2548 14.0193 8.43742C12.2489 9.62005 10.8689 11.301 10.0537 13.2678C9.23853 15.2345 9.02474 17.3989 9.43938 19.4871C9.85401 21.5754 10.8785 23.4938 12.3832 25L19.9999 32.65ZM23.3333 16.6667C23.3333 18.5076 21.841 20 20 20C18.1591 20 16.6667 18.5076 16.6667 16.6667C16.6667 14.8257 18.1591 13.3333 20 13.3333C21.841 13.3333 23.3333 14.8257 23.3333 16.6667ZM26.6667 16.6667C26.6667 20.3486 23.6819 23.3333 20 23.3333C16.3181 23.3333 13.3333 20.3486 13.3333 16.6667C13.3333 12.9848 16.3181 10 20 10C23.6819 10 26.6667 12.9848 26.6667 16.6667Z" fill="#49D600"/>
</svg>
