<svg width="156" height="156" viewBox="0 0 156 156" fill="none" xmlns="http://www.w3.org/2000/svg">
<circle cx="78" cy="78" r="78" fill="black"/>
<rect width="80.6897" height="80.6897" transform="translate(37.7937 37.7938)" fill="black"/>
<path fill-rule="evenodd" clip-rule="evenodd" d="M94.1956 60.1198C91.2293 54.4679 85.8916 51.7925 77.8517 51.7925C68.4084 51.7925 62.7935 55.6057 60.4681 63.7883C67.3747 66.4938 71.6668 66.2449 78.9798 61.7578L80.0087 61.1265L81.2033 61.3006C87.5548 62.2262 90.8433 61.7769 94.1956 60.1198ZM96.3283 66.4826C96.4306 67.0074 96.5221 67.5469 96.6029 68.1011V89.7158L87.2057 98.8068C86.7606 98.7041 86.297 98.6498 85.8208 98.6498C82.4333 98.6498 79.6871 101.396 79.6871 104.783C79.6871 108.171 82.4333 110.917 85.8208 110.917C89.2083 110.917 91.9544 108.171 91.9544 104.783C91.9544 104.378 91.915 103.981 91.8399 103.597L102.253 93.5239C102.853 92.9432 103.211 92.1602 103.262 91.3315C107.603 89.5163 111.546 84.3936 111.546 78.0539C111.546 71.4745 107.505 66.9546 102.935 65.5564C100.435 52.1778 91.8092 45.1273 77.8517 45.1273C64.0513 45.1273 55.5983 52.1969 53.2463 65.5582C48.6791 66.9585 44.6421 71.4774 44.6421 78.0539C44.6421 84.7275 49.0114 90.0525 53.6144 91.5904C56.0881 100.137 64.4107 108.116 74.4366 108.116C76.2772 108.116 77.7693 106.624 77.7693 104.783C77.7693 102.943 76.2772 101.451 74.4366 101.451C66.4017 101.451 59.5302 93.2281 59.5302 86.5142V70.5464C67.217 73.2459 73.2035 72.8569 81.431 68.0582C87.9912 68.8881 92.2628 68.3139 96.3283 66.4826ZM52.865 82.9596V73.5048C51.951 74.5725 51.3073 76.1091 51.3073 78.0539C51.3073 79.9897 51.9733 81.6876 52.865 82.9596ZM104.88 78.0539C104.88 80.029 104.187 81.7564 103.268 83.0365V73.4419C104.211 74.5118 104.88 76.0706 104.88 78.0539ZM69.0992 91.0166C74.072 95.8792 81.8984 95.8792 87.0045 91.0448C88.0158 90.0873 88.0594 88.4913 87.1019 87.4801C86.1445 86.4688 84.5485 86.4252 83.5373 87.3826C80.3859 90.3664 75.6475 90.3664 72.6251 87.4109C71.6294 86.4372 70.033 86.4551 69.0593 87.4508C68.0857 88.4464 68.1036 90.0429 69.0992 91.0166ZM71.8316 74.0764H68.793C66.7673 74.0764 65.7545 74.9248 65.7545 76.6217C65.7545 78.3185 66.7673 79.167 68.793 79.167H71.8316C73.8573 79.167 74.8701 78.3185 74.8701 76.6217C74.8701 74.9248 73.8573 74.0764 71.8316 74.0764ZM84.3015 74.0764H87.3401C89.3657 74.0764 90.3786 74.9248 90.3786 76.6217C90.3786 78.3185 89.3657 79.167 87.3401 79.167H84.3015C82.2758 79.167 81.263 78.3185 81.263 76.6217C81.263 74.9248 82.2758 74.0764 84.3015 74.0764Z" fill="#49D600"/>
</svg>
