<svg width="57" height="56" viewBox="0 0 57 56" fill="none" xmlns="http://www.w3.org/2000/svg">
<path fill-rule="evenodd" clip-rule="evenodd" d="M30.7034 10.5C30.7034 11.1444 30.1811 11.6667 29.5367 11.6667C28.8924 11.6667 28.3701 11.1444 28.3701 10.5C28.3701 9.85569 28.8924 9.33335 29.5367 9.33335C30.1811 9.33335 30.7034 9.85569 30.7034 10.5ZM35.3701 10.5C35.3701 13.7217 32.7584 16.3334 29.5367 16.3334C26.3151 16.3334 23.7034 13.7217 23.7034 10.5C23.7034 7.27836 26.3151 4.66669 29.5367 4.66669C32.7584 4.66669 35.3701 7.27836 35.3701 10.5ZM22.4189 15.3192C22.8233 16.5428 22.1592 17.8625 20.9356 18.2669C19.3192 18.8011 18.0833 19.3555 17.417 19.7462C17.0066 19.9869 16.5464 20.0898 16.0958 20.0625C16.3047 20.5048 16.3762 21.0149 16.2716 21.5262C15.2753 26.3947 12.2326 29.1327 9.76952 30.3797C9.97393 32.5982 10.6273 33.6341 11.3761 34.2188C12.4445 35.0531 14.3725 35.5348 17.955 35.5348C19.2436 35.5348 20.2883 36.5795 20.2883 37.8681V42.0001H21.7784L23.6228 38.1525C23.9479 37.4743 24.5801 36.9944 25.3207 36.8635C26.0614 36.7326 26.8198 36.9667 27.3577 37.4924C27.6996 37.8265 28.3289 38.0589 29.5108 37.9389C30.6694 37.8213 31.9243 37.4018 32.9827 36.988C33.7008 36.7073 34.5112 36.7994 35.148 37.2342C35.7847 37.6689 36.1656 38.3902 36.1656 39.1612V42.0001H37.7549L40.7993 36.5461C41.0313 36.1306 41.3848 35.7959 41.8123 35.587C42.6529 35.1762 45.6681 32.8178 44.7546 26.5681C44.1807 22.6423 41.2938 20.0614 37.6083 18.4771C36.4244 17.9682 35.8772 16.5959 36.3861 15.4119C36.895 14.228 38.2673 13.6808 39.4512 14.1898C43.2731 15.8326 47.1787 18.7257 48.7792 23.421C49.0786 23.0019 49.3703 22.289 49.3703 21.0584C49.3703 19.7697 50.415 18.7251 51.7036 18.7251C52.9923 18.7251 54.037 19.7697 54.037 21.0584C54.037 23.8397 53.085 25.8915 51.6021 27.2261C50.9655 27.799 50.2716 28.2029 49.5883 28.4734C49.6937 34.4294 46.8684 37.9164 44.5577 39.3876L41.1621 45.4707C40.7499 46.2091 39.9704 46.6667 39.1247 46.6667H33.8323C32.5436 46.6667 31.4989 45.6221 31.4989 44.3334V42.334C31.0073 42.4422 30.4977 42.5294 29.9821 42.5817C29.0136 42.68 27.8898 42.667 26.7812 42.3596L25.3515 45.342C24.9634 46.1516 24.1452 46.6667 23.2474 46.6667H17.955C16.6663 46.6667 15.6216 45.6221 15.6216 44.3334V40.1317C12.8683 39.9504 10.3926 39.3716 8.504 37.8969C5.93276 35.8891 5.03674 32.7318 5.03674 28.8167C5.03674 27.7414 5.77166 26.8053 6.81628 26.5501C7.70239 26.3336 9.97839 25.1793 11.171 22.3236C10.7938 22.1015 10.4144 21.8469 10.0529 21.5596C9.00702 20.7283 7.68296 19.2668 7.68296 17.1793C7.68296 16.1039 8.41788 15.1678 9.4625 14.9126C10.5942 14.6361 12.1152 14.5033 13.5135 14.5767C14.2209 14.6138 14.9741 14.7073 15.6766 14.8977C15.8623 14.948 16.0638 15.0101 16.2727 15.0884C17.1812 14.6623 18.2764 14.2308 19.4712 13.836C20.6948 13.4316 22.0145 14.0957 22.4189 15.3192ZM26.0367 18.6667C24.7481 18.6667 23.7034 19.7114 23.7034 21C23.7034 22.2887 24.7481 23.3334 26.0367 23.3334H33.0367C34.3254 23.3334 35.3701 22.2887 35.3701 21C35.3701 19.7114 34.3254 18.6667 33.0367 18.6667H26.0367ZM21.3701 25.6667C21.3701 26.9554 20.3254 28 19.0367 28C17.7481 28 16.7034 26.9554 16.7034 25.6667C16.7034 24.378 17.7481 23.3334 19.0367 23.3334C20.3254 23.3334 21.3701 24.378 21.3701 25.6667Z" fill="#49D600"/>
</svg>
