<svg width="57" height="56" viewBox="0 0 57 56" fill="none" xmlns="http://www.w3.org/2000/svg">
<path fill-rule="evenodd" clip-rule="evenodd" d="M32.3619 14.4038C28.8329 13.6576 25.1633 13.9498 21.7968 15.2451C18.4303 16.5404 15.5113 18.7833 13.3926 21.7026C11.274 24.6218 10.0465 28.0924 9.85869 31.6946C9.67085 35.2968 10.5307 38.8762 12.3342 42C12.9786 43.116 12.5962 44.543 11.4802 45.1874C10.3641 45.8317 8.9371 45.4493 8.29277 44.3333C6.03836 40.4286 4.96356 35.9543 5.19835 31.4516C5.43315 26.9489 6.96748 22.6106 9.61578 18.9616C12.2641 15.3125 15.9129 12.5088 20.121 10.8897C24.3291 9.27056 28.9161 8.90532 33.3274 9.83814C34.5882 10.1047 35.3941 11.3429 35.1275 12.6037C34.8609 13.8645 33.6227 14.6705 32.3619 14.4038ZM38.6338 14.1261C39.3729 13.0705 40.8279 12.814 41.8835 13.5531C43.3462 14.5774 44.6866 15.7661 45.8782 17.0961C46.7381 18.0558 46.6572 19.531 45.6974 20.3909C44.7377 21.2509 43.2625 21.17 42.4025 20.2102C41.4493 19.1462 40.377 18.1952 39.2068 17.3758C38.1512 16.6367 37.8946 15.1818 38.6338 14.1261ZM50.4263 24.6862C49.9856 23.4753 48.6466 22.8509 47.4357 23.2917C46.2247 23.7324 45.6004 25.0714 46.0411 26.2823C46.5297 27.6247 46.8626 29.0188 47.0332 30.4371C47.1871 31.7165 48.3491 32.6289 49.6285 32.475C50.908 32.3211 51.8204 31.1591 51.6665 29.8797C51.4532 28.1068 51.0371 26.3642 50.4263 24.6862ZM49.1935 36.9369C50.4191 37.3351 51.0898 38.6515 50.6916 39.877C50.1398 41.5753 49.3949 43.2047 48.4714 44.733C47.805 45.836 46.3707 46.1899 45.2677 45.5235C44.1647 44.8571 43.8108 43.4227 44.4772 42.3198C45.216 41.0971 45.8119 39.7936 46.2533 38.435C46.6516 37.2094 47.9679 36.5387 49.1935 36.9369ZM30.8334 21C30.8334 19.7113 29.7887 18.6666 28.5 18.6666C27.2114 18.6666 26.1667 19.7113 26.1667 21V33.065C23.4479 34.0259 21.5 36.6188 21.5 39.6666C21.5 43.5326 24.634 46.6666 28.5 46.6666C32.366 46.6666 35.5 43.5326 35.5 39.6666C35.5 36.6188 33.5521 34.0259 30.8334 33.065V21ZM28.5 42C29.7887 42 30.8334 40.9553 30.8334 39.6666C30.8334 38.378 29.7887 37.3333 28.5 37.3333C27.2114 37.3333 26.1667 38.378 26.1667 39.6666C26.1667 40.9553 27.2114 42 28.5 42Z" fill="#49D600"/>
</svg>
