<svg width="40" height="41" viewBox="0 0 40 41" fill="none" xmlns="http://www.w3.org/2000/svg">
<path d="M36.6666 13.5334C36.6746 13.428 36.6746 13.3221 36.6666 13.2167L33.3333 4.88337C33.2031 4.55397 32.9713 4.2746 32.6716 4.0858C32.372 3.897 32.0199 3.80858 31.6666 3.83337H8.33325C7.99945 3.83305 7.67325 3.93296 7.39689 4.12017C7.12053 4.30738 6.90676 4.57326 6.78325 4.88337L3.44992 13.2167C3.44188 13.3221 3.44188 13.428 3.44992 13.5334C3.39454 13.6262 3.3551 13.7276 3.33325 13.8334C3.3518 14.9854 3.66863 16.113 4.25283 17.1062C4.83702 18.0993 5.66865 18.9241 6.66659 19.5V35.5C6.66659 35.9421 6.84218 36.366 7.15474 36.6786C7.4673 36.9911 7.89122 37.1667 8.33325 37.1667H31.6666C32.1086 37.1667 32.5325 36.9911 32.8451 36.6786C33.1577 36.366 33.3333 35.9421 33.3333 35.5V19.5667C34.3408 18.985 35.1786 18.1497 35.7634 17.1439C36.3482 16.1381 36.6596 14.9968 36.6666 13.8334C36.6822 13.734 36.6822 13.6328 36.6666 13.5334ZM29.9999 33.8334C18.8893 33.8334 21.1105 33.8334 9.99992 33.8334V20.5C10.949 20.4947 11.8861 20.2867 12.7483 19.8901C13.6106 19.4934 14.3783 18.9172 14.9999 18.2C15.6255 18.9094 16.3949 19.4776 17.257 19.8667C18.1191 20.2559 19.0541 20.4571 19.9999 20.4571C20.9458 20.4571 21.8808 20.2559 22.7428 19.8667C23.6049 19.4776 24.3743 18.9094 24.9999 18.2C25.6216 18.9172 26.3892 19.4934 27.2515 19.8901C28.1138 20.2867 29.0508 20.4947 29.9999 20.5V33.8334ZM29.9999 17.1667C29.1159 17.1667 28.268 16.8155 27.6429 16.1904C27.0178 15.5653 26.6666 14.7174 26.6666 13.8334C26.6666 13.3913 26.491 12.9674 26.1784 12.6549C25.8659 12.3423 25.4419 12.1667 24.9999 12.1667C24.5579 12.1667 24.134 12.3423 23.8214 12.6549C23.5088 12.9674 23.3333 13.3913 23.3333 13.8334C23.3333 14.7174 22.9821 15.5653 22.3569 16.1904C21.7318 16.8155 20.884 17.1667 19.9999 17.1667C19.1159 17.1667 18.268 16.8155 17.6429 16.1904C17.0178 15.5653 16.6666 14.7174 16.6666 13.8334C16.6666 13.3913 16.491 12.9674 16.1784 12.6549C15.8659 12.3423 15.4419 12.1667 14.9999 12.1667C14.5579 12.1667 14.134 12.3423 13.8214 12.6549C13.5088 12.9674 13.3333 13.3913 13.3333 13.8334C13.3497 14.2711 13.2797 14.7078 13.1274 15.1185C12.975 15.5292 12.7433 15.9059 12.4453 16.227C12.1474 16.5481 11.7892 16.8075 11.391 16.9901C10.9929 17.1728 10.5627 17.2753 10.1249 17.2917C9.24086 17.3249 8.37985 17.0055 7.73128 16.4038C7.41015 16.1059 7.15084 15.7476 6.96816 15.3495C6.78547 14.9513 6.683 14.5211 6.66659 14.0834L9.46659 7.16671H30.5333L33.3333 14.0834C33.2701 14.9234 32.8912 15.7084 32.2728 16.2804C31.6544 16.8524 30.8423 17.1691 29.9999 17.1667Z" fill="#49D600"/>
<path fill-rule="evenodd" clip-rule="evenodd" d="M15 25.5C15 24.5795 15.7462 23.8333 16.6667 23.8333H23.3333C24.2538 23.8333 25 24.5795 25 25.5V33.8333H21.6667V27.1666H18.3333V33.8333H15V25.5Z" fill="#49D600"/>
</svg>
