<svg width="28" height="28" viewBox="0 0 28 28" fill="none" xmlns="http://www.w3.org/2000/svg">
<path d="M8.16666 16.3333H11.6667C11.9761 16.3333 12.2728 16.2104 12.4916 15.9916C12.7104 15.7728 12.8333 15.4761 12.8333 15.1667C12.8333 14.8573 12.7104 14.5605 12.4916 14.3417C12.2728 14.1229 11.9761 14 11.6667 14H8.16666C7.85724 14 7.5605 14.1229 7.3417 14.3417C7.12291 14.5605 7 14.8573 7 15.1667C7 15.4761 7.12291 15.7728 7.3417 15.9916C7.5605 16.2104 7.85724 16.3333 8.16666 16.3333ZM22.1667 4.66667H5.83333C4.90507 4.66667 4.01483 5.03542 3.35845 5.6918C2.70208 6.34818 2.33333 7.23841 2.33333 8.16667V18.6667C2.33333 19.5949 2.70208 20.4852 3.35845 21.1415C4.01483 21.7979 4.90507 22.1667 5.83333 22.1667H22.1667C23.0949 22.1667 23.9852 21.7979 24.6415 21.1415C25.2979 20.4852 25.6667 19.5949 25.6667 18.6667V8.16667C25.6667 7.23841 25.2979 6.34818 24.6415 5.6918C23.9852 5.03542 23.0949 4.66667 22.1667 4.66667ZM23.3333 18.6667C23.3333 18.9761 23.2104 19.2728 22.9916 19.4916C22.7728 19.7104 22.4761 19.8333 22.1667 19.8333H5.83333C5.52391 19.8333 5.22716 19.7104 5.00837 19.4916C4.78958 19.2728 4.66666 18.9761 4.66666 18.6667V11.6667H23.3333V18.6667ZM23.3333 9.33334H4.66666V8.16667C4.66666 7.85725 4.78958 7.56051 5.00837 7.34171C5.22716 7.12292 5.52391 7.00001 5.83333 7.00001H22.1667C22.4761 7.00001 22.7728 7.12292 22.9916 7.34171C23.2104 7.56051 23.3333 7.85725 23.3333 8.16667V9.33334Z" fill="#5DDF2A"/>
</svg>
