<svg width="46" height="45" viewBox="0 0 46 45" fill="none" xmlns="http://www.w3.org/2000/svg">
<path fill-rule="evenodd" clip-rule="evenodd" d="M23 37.5C31.2843 37.5 38 30.7843 38 22.5C38 14.2157 31.2843 7.5 23 7.5C14.7157 7.5 8 14.2157 8 22.5C8 30.7843 14.7157 37.5 23 37.5ZM23 41.25C33.3553 41.25 41.75 32.8553 41.75 22.5C41.75 12.1447 33.3553 3.75 23 3.75C12.6447 3.75 4.25 12.1447 4.25 22.5C4.25 32.8553 12.6447 41.25 23 41.25Z" fill="#49D600"/>
<path fill-rule="evenodd" clip-rule="evenodd" d="M23.0002 17.841C21.4785 17.841 20.8979 18.7933 20.8979 19.2331C20.8979 19.6728 21.4785 20.6251 23.0002 20.6251C25.8694 20.6251 28.8525 22.6001 28.8525 25.7672C28.8525 28.9342 25.8694 30.9092 23.0002 30.9092C20.1311 30.9092 17.1479 28.9342 17.1479 25.7672C17.1479 24.7316 17.9874 23.8922 19.0229 23.8922C20.0585 23.8922 20.8979 24.7316 20.8979 25.7672C20.8979 26.207 21.4785 27.1592 23.0002 27.1592C24.522 27.1592 25.1025 26.207 25.1025 25.7672C25.1025 25.3274 24.522 24.3751 23.0002 24.3751C20.1311 24.3751 17.1479 22.4001 17.1479 19.2331C17.1479 16.066 20.1311 14.091 23.0002 14.091C25.8694 14.091 28.8525 16.066 28.8525 19.2331C28.8525 20.2686 28.0131 21.1081 26.9775 21.1081C25.942 21.1081 25.1025 20.2686 25.1025 19.2331C25.1025 18.7933 24.522 17.841 23.0002 17.841Z" fill="#49D600"/>
<path fill-rule="evenodd" clip-rule="evenodd" d="M23 11.25C24.0355 11.25 24.875 12.0895 24.875 13.125V15.9659C24.875 17.0015 24.0355 17.8409 23 17.8409C21.9645 17.8409 21.125 17.0015 21.125 15.9659V13.125C21.125 12.0895 21.9645 11.25 23 11.25Z" fill="#49D600"/>
<path fill-rule="evenodd" clip-rule="evenodd" d="M23 27.1591C24.0355 27.1591 24.875 27.9986 24.875 29.0341V31.875C24.875 32.9106 24.0355 33.75 23 33.75C21.9645 33.75 21.125 32.9106 21.125 31.875V29.0341C21.125 27.9986 21.9645 27.1591 23 27.1591Z" fill="#49D600"/>
</svg>
