<svg width="41" height="40" viewBox="0 0 41 40" fill="none" xmlns="http://www.w3.org/2000/svg">
<circle cx="20.5" cy="20" r="20" fill="#91FF50"/>
<path d="M20.7252 28.9287C24.5559 28.9287 27.3725 26.7881 27.3725 23.3799C27.3725 21.1547 26.2177 19.5492 24.3869 18.7042V18.6197C25.8797 17.6902 26.781 16.1692 26.781 14.2821C26.781 10.9584 23.9644 9.07124 20.4435 9.07124C17.5705 9.07124 15.2045 10.5922 14.3595 12.7047L18.0212 14.6482C18.4719 13.6624 19.1479 13.1272 20.3027 13.1272C21.5139 13.1272 22.387 13.9159 22.387 15.0989C22.387 16.1974 21.6829 17.0142 20.3309 17.0142H18.7535V20.5632H20.021C21.7674 20.5632 22.6405 21.5491 22.6405 22.7602C22.6405 24.1686 21.5702 24.9291 20.3872 24.9291C18.8944 24.9291 18.0212 24.2249 17.5987 22.9011L13.6272 24.4784C14.5567 27.0134 17.1762 28.9287 20.7252 28.9287Z" fill="black"/>
</svg>
