<svg width="40" height="40" viewBox="0 0 40 40" fill="none" xmlns="http://www.w3.org/2000/svg">
<path d="M32.7167 6.08332C32.523 5.92669 32.2968 5.81544 32.0545 5.75776C31.8122 5.70007 31.5601 5.69742 31.3167 5.74999C29.5357 6.12322 27.6972 6.12798 25.9144 5.76396C24.1315 5.39994 22.4421 4.67484 20.95 3.63332C20.671 3.43977 20.3396 3.33606 20 3.33606C19.6604 3.33606 19.329 3.43977 19.05 3.63332C17.5579 4.67484 15.8685 5.39994 14.0856 5.76396C12.3028 6.12798 10.4643 6.12322 8.68333 5.74999C8.4399 5.69742 8.18777 5.70007 7.9455 5.75776C7.70323 5.81544 7.47696 5.92669 7.28333 6.08332C7.08996 6.24018 6.9342 6.43838 6.82749 6.66334C6.72077 6.88831 6.66582 7.13433 6.66667 7.38332V19.8C6.66518 22.1896 7.23462 24.5449 8.32756 26.6699C9.42049 28.7949 11.0053 30.628 12.95 32.0167L19.0333 36.35C19.3156 36.551 19.6535 36.659 20 36.659C20.3465 36.659 20.6844 36.551 20.9667 36.35L27.05 32.0167C28.9947 30.628 30.5795 28.7949 31.6724 26.6699C32.7654 24.5449 33.3348 22.1896 33.3333 19.8V7.38332C33.3342 7.13433 33.2792 6.88831 33.1725 6.66334C33.0658 6.43838 32.91 6.24018 32.7167 6.08332ZM30 19.8C30.0013 21.6579 29.5588 23.4893 28.7094 25.1417C27.86 26.7941 26.6283 28.2197 25.1167 29.3L20 32.95L14.8833 29.3C13.3717 28.2197 12.14 26.7941 11.2906 25.1417C10.4412 23.4893 9.99872 21.6579 10 19.8V9.29998C13.494 9.59904 16.9934 8.78836 20 6.98332C23.0066 8.78836 26.506 9.59904 30 9.29998V19.8ZM22.5667 15.9833L18.0833 20.4833L16.6 18.9833C16.2862 18.6695 15.8605 18.4932 15.4167 18.4932C14.9728 18.4932 14.5472 18.6695 14.2333 18.9833C13.9195 19.2972 13.7432 19.7228 13.7432 20.1667C13.7432 20.6105 13.9195 21.0361 14.2333 21.35L16.9 24.0167C17.0549 24.1729 17.2393 24.2969 17.4424 24.3815C17.6455 24.4661 17.8633 24.5096 18.0833 24.5096C18.3034 24.5096 18.5212 24.4661 18.7243 24.3815C18.9274 24.2969 19.1117 24.1729 19.2667 24.0167L25 18.3333C25.3138 18.0195 25.4902 17.5938 25.4902 17.15C25.4902 16.7061 25.3138 16.2805 25 15.9667C24.6862 15.6528 24.2605 15.4765 23.8167 15.4765C23.3728 15.4765 22.9472 15.6528 22.6333 15.9667L22.5667 15.9833Z" fill="#49D600"/>
</svg>
