<svg width="40" height="40" viewBox="0 0 40 40" fill="none" xmlns="http://www.w3.org/2000/svg">
<path fill-rule="evenodd" clip-rule="evenodd" d="M22.7585 10.2885C20.2378 9.75546 17.6166 9.96416 15.212 10.8894C12.8074 11.8146 10.7223 13.4167 9.20902 15.5019C7.6957 17.5871 6.81894 20.0661 6.68477 22.639C6.5506 25.212 7.16478 27.7687 8.45301 30C8.91325 30.7972 8.64012 31.8165 7.84297 32.2767C7.04581 32.737 6.0265 32.4639 5.56626 31.6667C3.95597 28.8776 3.18825 25.6817 3.35596 22.4655C3.52367 19.2492 4.61962 16.1505 6.51127 13.544C8.40292 10.9375 11.0092 8.9349 14.015 7.77838C17.0208 6.62187 20.2972 6.36098 23.4481 7.02728C24.3487 7.21771 24.9244 8.10214 24.7339 9.0027C24.5435 9.90326 23.6591 10.4789 22.7585 10.2885ZM27.2384 10.0901C27.7664 9.33613 28.8056 9.15289 29.5596 9.68085C30.6044 10.4124 31.5618 11.2615 32.413 12.2115C33.0272 12.8971 32.9694 13.9507 32.2839 14.565C31.5983 15.1792 30.5446 15.1214 29.9304 14.4359C29.2495 13.6759 28.4836 12.9966 27.6477 12.4114C26.8937 11.8834 26.7105 10.8442 27.2384 10.0901ZM35.6617 17.6331C35.3469 16.7681 34.3904 16.3221 33.5255 16.6369C32.6605 16.9518 32.2145 17.9082 32.5294 18.7731C32.8784 19.732 33.1161 20.7277 33.238 21.7408C33.3479 22.6547 34.1779 23.3064 35.0918 23.1965C36.0057 23.0865 36.6574 22.2565 36.5475 21.3427C36.3951 20.0763 36.0979 18.8316 35.6617 17.6331ZM34.7811 26.3835C35.6565 26.668 36.1356 27.6082 35.8511 28.4836C35.457 29.6967 34.9249 30.8605 34.2653 31.9522C33.7893 32.74 32.7648 32.9928 31.9769 32.5168C31.1891 32.0408 30.9363 31.0163 31.4123 30.2284C31.94 29.3551 32.3656 28.424 32.681 27.4536C32.9654 26.5782 33.9057 26.0991 34.7811 26.3835ZM21.6667 15C21.6667 14.0795 20.9205 13.3334 20 13.3334C19.0795 13.3334 18.3333 14.0795 18.3333 15V23.6179C16.3914 24.3043 15 26.1563 15 28.3334C15 31.0948 17.2386 33.3334 20 33.3334C22.7614 33.3334 25 31.0948 25 28.3334C25 26.1563 23.6087 24.3043 21.6667 23.6179V15ZM20 30C20.9205 30 21.6667 29.2538 21.6667 28.3334C21.6667 27.4129 20.9205 26.6667 20 26.6667C19.0795 26.6667 18.3333 27.4129 18.3333 28.3334C18.3333 29.2538 19.0795 30 20 30Z" fill="#49D600"/>
</svg>
