<svg width="45" height="45" viewBox="0 0 45 45" fill="none" xmlns="http://www.w3.org/2000/svg">
<path d="M37.5 7.5H7.5C6.00816 7.5 4.57742 8.09263 3.52252 9.14752C2.46763 10.2024 1.875 11.6332 1.875 13.125V31.875C1.875 33.3668 2.46763 34.7976 3.52252 35.8525C4.57742 36.9074 6.00816 37.5 7.5 37.5H37.5C38.9918 37.5 40.4226 36.9074 41.4775 35.8525C42.5324 34.7976 43.125 33.3668 43.125 31.875V13.125C43.125 11.6332 42.5324 10.2024 41.4775 9.14752C40.4226 8.09263 38.9918 7.5 37.5 7.5ZM39.375 31.875C39.375 32.3723 39.1775 32.8492 38.8258 33.2008C38.4742 33.5525 37.9973 33.75 37.5 33.75H7.5C7.00272 33.75 6.52581 33.5525 6.17417 33.2008C5.82254 32.8492 5.625 32.3723 5.625 31.875V13.125C5.625 12.6277 5.82254 12.1508 6.17417 11.7992C6.52581 11.4475 7.00272 11.25 7.5 11.25H37.5C37.9973 11.25 38.4742 11.4475 38.8258 11.7992C39.1775 12.1508 39.375 12.6277 39.375 13.125V31.875Z" fill="#49D600"/>
<path fill-rule="evenodd" clip-rule="evenodd" d="M18.7016 16.0341C19.616 15.0837 20.9265 14.5391 22.4997 14.5391C24.7865 14.5391 26.2085 15.608 26.9412 16.8898C27.2724 17.4692 27.4298 18.0311 27.5069 18.4361C27.5463 18.6424 27.5669 18.8193 27.5778 18.9531C27.5833 19.0203 27.5864 19.0777 27.5882 19.1236C27.5891 19.1465 27.5896 19.1667 27.5899 19.1839L27.5902 19.2075L27.5903 19.2176L27.5903 19.2222L27.5903 19.2244C27.5903 19.2255 27.5903 19.2266 25.7153 19.2266H27.5903C27.5903 20.2621 26.7509 21.1016 25.7153 21.1016C24.6922 21.1016 23.8605 20.2822 23.8407 19.2638C23.8406 19.2623 23.8404 19.2605 23.8403 19.2583C23.8386 19.2384 23.8342 19.1955 23.8232 19.1381C23.7999 19.0158 23.7563 18.8745 23.6856 18.7509C23.6215 18.6387 23.5393 18.5462 23.4143 18.4733C23.2899 18.4008 23.0229 18.2891 22.4997 18.2891C21.8236 18.2891 21.5307 18.5023 21.404 18.634C21.2481 18.7961 21.168 19.0202 21.168 19.2266V19.2266C21.168 19.5307 21.2401 19.9392 21.4162 20.2117C21.4888 20.3239 21.5744 20.4075 21.6942 20.4714C21.8162 20.5364 22.0569 20.625 22.4997 20.625C24.4318 20.625 25.8674 21.3721 26.7198 22.6441C27.4805 23.7791 27.5903 25.0658 27.5903 25.848C27.5903 26.8557 27.2492 28.0338 26.3795 28.9796C25.4711 29.9675 24.1402 30.5355 22.4997 30.5355C20.2148 30.5355 18.7954 29.4641 18.0649 28.1828C17.7347 27.6036 17.5779 27.0421 17.501 26.6374C17.4619 26.4314 17.4413 26.2547 17.4304 26.121C17.4249 26.0538 17.4218 25.9966 17.4201 25.9507C17.4192 25.9278 17.4187 25.9077 17.4184 25.8905L17.4181 25.867L17.418 25.8569L17.418 25.8523L17.418 25.8501C17.418 25.849 17.418 25.848 19.293 25.848H17.418C17.418 24.8124 18.2574 23.973 19.293 23.973C20.3161 23.973 21.1479 24.7925 21.1676 25.8109C21.1677 25.8125 21.1679 25.8144 21.168 25.8166C21.1697 25.8367 21.1742 25.8798 21.1851 25.9374C21.2084 26.06 21.2521 26.2017 21.3227 26.3256C21.3868 26.4381 21.4686 26.5301 21.5922 26.6024C21.715 26.6742 21.9797 26.7855 22.4997 26.7855C23.2372 26.7855 23.5141 26.5556 23.619 26.4414C23.7626 26.2853 23.8403 26.0571 23.8403 25.848C23.8403 25.3339 23.7487 24.9466 23.6047 24.7317C23.55 24.6502 23.4815 24.5824 23.3628 24.5241C23.2344 24.4611 22.9751 24.375 22.4997 24.375C20.4821 24.375 19.0759 23.4988 18.2671 22.2477C17.543 21.1277 17.418 19.8995 17.418 19.2266M18.7016 16.0341C17.8165 16.9541 17.418 18.1363 17.418 19.2265L18.7016 16.0341Z" fill="#49D600"/>
<path fill-rule="evenodd" clip-rule="evenodd" d="M22.5 12.4007C23.5355 12.4007 24.375 13.2401 24.375 14.2757L24.375 16.4141C24.375 17.4496 23.5356 18.2891 22.5 18.2891C21.4645 18.2891 20.625 17.4496 20.625 16.4141L20.625 14.2757C20.625 13.2402 21.4645 12.4007 22.5 12.4007Z" fill="#49D600"/>
<path fill-rule="evenodd" clip-rule="evenodd" d="M22.5 26.7855C23.5355 26.7855 24.375 27.6249 24.375 28.6605V30.8105C24.375 31.846 23.5355 32.6855 22.5 32.6855C21.4645 32.6855 20.625 31.846 20.625 30.8105V28.6605C20.625 27.6249 21.4645 26.7855 22.5 26.7855Z" fill="#49D600"/>
<ellipse cx="33.7476" cy="22.4976" rx="1.87258" ry="1.87258" fill="#49D600"/>
<ellipse cx="11.2476" cy="22.4976" rx="1.87258" ry="1.87258" fill="#49D600"/>
</svg>
