<svg width="45" height="45" viewBox="0 0 45 45" fill="none" xmlns="http://www.w3.org/2000/svg">
<path d="M36.8063 6.84378C36.5884 6.66757 36.3339 6.54242 36.0613 6.47752C35.7888 6.41263 35.5051 6.40964 35.2313 6.46878C33.2277 6.88867 31.1594 6.89402 29.1537 6.4845C27.148 6.07497 25.2473 5.25924 23.5688 4.08753C23.2549 3.86979 22.882 3.75311 22.5 3.75311C22.118 3.75311 21.7451 3.86979 21.4313 4.08753C19.7527 5.25924 17.852 6.07497 15.8463 6.4845C13.8406 6.89402 11.7723 6.88867 9.76876 6.46878C9.4949 6.40964 9.21126 6.41263 8.9387 6.47752C8.66614 6.54242 8.41159 6.66757 8.19376 6.84378C7.97622 7.02025 7.80099 7.24322 7.68093 7.49631C7.56088 7.74939 7.49906 8.02616 7.50001 8.30628V22.275C7.49834 24.9633 8.13896 27.6131 9.36851 30.0037C10.5981 32.3943 12.381 34.4566 14.5688 36.0188L21.4125 40.8938C21.7301 41.1199 22.1102 41.2414 22.5 41.2414C22.8898 41.2414 23.27 41.1199 23.5875 40.8938L30.4313 36.0188C32.619 34.4566 34.402 32.3943 35.6315 30.0037C36.8611 27.6131 37.5017 24.9633 37.5 22.275V8.30628C37.501 8.02616 37.4391 7.74939 37.3191 7.49631C37.199 7.24322 37.0238 7.02025 36.8063 6.84378ZM33.75 22.275C33.7515 24.3652 33.2537 26.4255 32.2981 28.2844C31.3425 30.1434 29.9568 31.7472 28.2563 32.9625L22.5 37.0688L16.7438 32.9625C15.0432 31.7472 13.6575 30.1434 12.7019 28.2844C11.7463 26.4255 11.2486 24.3652 11.25 22.275V10.4625C15.1808 10.799 19.1176 9.88695 22.5 7.85628C25.8824 9.88695 29.8192 10.799 33.75 10.4625V22.275ZM25.3875 17.9813L20.3438 23.0438L18.675 21.3563C18.3219 21.0032 17.8431 20.8049 17.3438 20.8049C16.8444 20.8049 16.3656 21.0032 16.0125 21.3563C15.6594 21.7093 15.4611 22.1882 15.4611 22.6875C15.4611 23.1868 15.6594 23.6657 16.0125 24.0188L19.0125 27.0188C19.1868 27.1945 19.3942 27.334 19.6227 27.4292C19.8512 27.5244 20.0962 27.5734 20.3438 27.5734C20.5913 27.5734 20.8364 27.5244 21.0648 27.4292C21.2933 27.334 21.5007 27.1945 21.675 27.0188L28.125 20.625C28.4781 20.272 28.6764 19.7931 28.6764 19.2938C28.6764 18.7945 28.4781 18.3156 28.125 17.9625C27.7719 17.6095 27.2931 17.4111 26.7938 17.4111C26.2944 17.4111 25.8156 17.6095 25.4625 17.9625L25.3875 17.9813Z" fill="#49D600"/>
</svg>
