<svg width="57" height="56" viewBox="0 0 57 56" fill="none" xmlns="http://www.w3.org/2000/svg">
<path fill-rule="evenodd" clip-rule="evenodd" d="M44.8333 6.99998H42.5V4.66665C42.5 4.04781 42.2541 3.45432 41.8165 3.01673C41.379 2.57915 40.7855 2.33331 40.1666 2.33331C39.5478 2.33331 38.9543 2.57915 38.5167 3.01673C38.0791 3.45432 37.8333 4.04781 37.8333 4.66665V6.99998H19.1666V4.66665C19.1666 4.04781 18.9208 3.45432 18.4832 3.01673C18.0456 2.57915 17.4521 2.33331 16.8333 2.33331C16.2145 2.33331 15.621 2.57915 15.1834 3.01673C14.7458 3.45432 14.5 4.04781 14.5 4.66665V6.99998H12.1666C10.3101 6.99998 8.52963 7.73748 7.21688 9.05023C5.90412 10.363 5.16663 12.1435 5.16663 14V46.6666C5.16663 48.5232 5.90412 50.3036 7.21688 51.6164C8.52963 52.9292 10.3101 53.6666 12.1666 53.6666H44.8333C46.6898 53.6666 48.4703 52.9292 49.783 51.6164C51.0958 50.3036 51.8333 48.5232 51.8333 46.6666V14C51.8333 12.1435 51.0958 10.363 49.783 9.05023C48.4703 7.73748 46.6898 6.99998 44.8333 6.99998ZM47.1666 46.6666C47.1666 47.2855 46.9208 47.879 46.4832 48.3166C46.0456 48.7542 45.4521 49 44.8333 49H12.1666C11.5478 49 10.9543 48.7542 10.5167 48.3166C10.0791 47.879 9.83329 47.2855 9.83329 46.6666V25.6666H47.1666V46.6666ZM47.1666 21H9.83329V14C9.83329 13.3811 10.0791 12.7877 10.5167 12.3501C10.9543 11.9125 11.5478 11.6666 12.1666 11.6666H14.5V14C14.5 14.6188 14.7458 15.2123 15.1834 15.6499C15.621 16.0875 16.2145 16.3333 16.8333 16.3333C17.4521 16.3333 18.0456 16.0875 18.4832 15.6499C18.9208 15.2123 19.1666 14.6188 19.1666 14V11.6666H37.8333V14C37.8333 14.6188 38.0791 15.2123 38.5167 15.6499C38.9543 16.0875 39.5478 16.3333 40.1666 16.3333C40.7855 16.3333 41.379 16.0875 41.8165 15.6499C42.2541 15.2123 42.5 14.6188 42.5 14V11.6666H44.8333C45.4521 11.6666 46.0456 11.9125 46.4832 12.3501C46.9208 12.7877 47.1666 13.3811 47.1666 14V21ZM19.1666 32.6666C19.1666 33.9553 18.122 35 16.8333 35C15.5446 35 14.5 33.9553 14.5 32.6666C14.5 31.378 15.5446 30.3333 16.8333 30.3333C18.122 30.3333 19.1666 31.378 19.1666 32.6666ZM16.8333 44.3333C18.122 44.3333 19.1666 43.2886 19.1666 42C19.1666 40.7113 18.122 39.6666 16.8333 39.6666C15.5446 39.6666 14.5 40.7113 14.5 42C14.5 43.2886 15.5446 44.3333 16.8333 44.3333ZM30.8333 32.6666C30.8333 33.9553 29.7886 35 28.5 35C27.2113 35 26.1666 33.9553 26.1666 32.6666C26.1666 31.378 27.2113 30.3333 28.5 30.3333C29.7886 30.3333 30.8333 31.378 30.8333 32.6666ZM28.5 44.3333C29.7886 44.3333 30.8333 43.2886 30.8333 42C30.8333 40.7113 29.7886 39.6666 28.5 39.6666C27.2113 39.6666 26.1666 40.7113 26.1666 42C26.1666 43.2886 27.2113 44.3333 28.5 44.3333ZM42.5 32.6666C42.5 33.9553 41.4553 35 40.1666 35C38.878 35 37.8333 33.9553 37.8333 32.6666C37.8333 31.378 38.878 30.3333 40.1666 30.3333C41.4553 30.3333 42.5 31.378 42.5 32.6666ZM40.1666 44.3333C41.4553 44.3333 42.5 43.2886 42.5 42C42.5 40.7113 41.4553 39.6666 40.1666 39.6666C38.878 39.6666 37.8333 40.7113 37.8333 42C37.8333 43.2886 38.878 44.3333 40.1666 44.3333Z" fill="#49D600"/>
</svg>
